<?xml version="1.0" encoding="utf-8" standalone="no"?>
<!DOCTYPE svg PUBLIC "-//W3C//DTD SVG 1.1//EN"
  "http://www.w3.org/Graphics/SVG/1.1/DTD/svg11.dtd">
<svg xmlns:xlink="http://www.w3.org/1999/xlink" width="783.513625pt" height="481.035175pt" viewBox="0 0 783.513625 481.035175" xmlns="http://www.w3.org/2000/svg" version="1.1">
 <metadata>
  <rdf:RDF xmlns:dc="http://purl.org/dc/elements/1.1/" xmlns:cc="http://creativecommons.org/ns#" xmlns:rdf="http://www.w3.org/1999/02/22-rdf-syntax-ns#">
   <cc:Work>
    <dc:type rdf:resource="http://purl.org/dc/dcmitype/StillImage"/>
    <dc:date>2023-03-14T01:10:25.450491</dc:date>
    <dc:format>image/svg+xml</dc:format>
    <dc:creator>
     <cc:Agent>
      <dc:title>Matplotlib v3.7.1, https://matplotlib.org/</dc:title>
     </cc:Agent>
    </dc:creator>
   </cc:Work>
  </rdf:RDF>
 </metadata>
 <defs>
  <style type="text/css">*{stroke-linejoin: round; stroke-linecap: butt}</style>
 </defs>
 <g id="figure_1">
  <g id="patch_1">
   <path d="M 0 481.035175 
L 783.513625 481.035175 
L 783.513625 0 
L 0 0 
z
" style="fill: #ffffff"/>
  </g>
  <g id="axes_1">
   <g id="patch_2">
    <path d="M 48.195625 353.015795 
L 717.795625 353.015795 
L 717.795625 28.225313 
L 48.195625 28.225313 
z
" style="fill: #ffffff"/>
   </g>
   <g id="LineCollection_1">
    <path d="M 74.979625 298.24364 
L 74.979625 160.665369 
" clip-path="url(#p8f51ea78a5)" style="fill: none; stroke: #0000ff; stroke-opacity: 0.4; stroke-width: 2"/>
    <path d="M 128.547625 298.24364 
L 128.547625 160.665369 
" clip-path="url(#p8f51ea78a5)" style="fill: none; stroke: #0000ff; stroke-opacity: 0.4; stroke-width: 2"/>
    <path d="M 182.115625 298.24364 
L 182.115625 160.665369 
" clip-path="url(#p8f51ea78a5)" style="fill: none; stroke: #0000ff; stroke-opacity: 0.4; stroke-width: 2"/>
    <path d="M 235.683625 298.24364 
L 235.683625 160.665369 
" clip-path="url(#p8f51ea78a5)" style="fill: none; stroke: #0000ff; stroke-opacity: 0.4; stroke-width: 2"/>
    <path d="M 289.251625 278.582675 
L 289.251625 167.976605 
" clip-path="url(#p8f51ea78a5)" style="fill: none; stroke: #0000ff; stroke-opacity: 0.4; stroke-width: 2"/>
    <path d="M 342.819625 278.582675 
L 342.819625 167.976605 
" clip-path="url(#p8f51ea78a5)" style="fill: none; stroke: #0000ff; stroke-opacity: 0.4; stroke-width: 2"/>
    <path d="M 396.387625 278.582675 
L 396.387625 167.976605 
" clip-path="url(#p8f51ea78a5)" style="fill: none; stroke: #0000ff; stroke-opacity: 0.4; stroke-width: 2"/>
    <path d="M 449.955625 278.582675 
L 449.955625 167.976605 
" clip-path="url(#p8f51ea78a5)" style="fill: none; stroke: #0000ff; stroke-opacity: 0.4; stroke-width: 2"/>
    <path d="M 503.523625 280.920426 
L 503.523625 126.417324 
" clip-path="url(#p8f51ea78a5)" style="fill: none; stroke: #0000ff; stroke-opacity: 0.4; stroke-width: 2"/>
    <path d="M 557.091625 280.920426 
L 557.091625 126.417324 
" clip-path="url(#p8f51ea78a5)" style="fill: none; stroke: #0000ff; stroke-opacity: 0.4; stroke-width: 2"/>
    <path d="M 610.659625 280.920426 
L 610.659625 126.417324 
" clip-path="url(#p8f51ea78a5)" style="fill: none; stroke: #0000ff; stroke-opacity: 0.4; stroke-width: 2"/>
    <path d="M 664.227625 280.920426 
L 664.227625 126.417324 
" clip-path="url(#p8f51ea78a5)" style="fill: none; stroke: #0000ff; stroke-opacity: 0.4; stroke-width: 2"/>
   </g>
   <g id="line2d_1">
    <defs>
     <path id="mfee2f0f198" d="M 0 1.5 
C 0.397805 1.5 0.77937 1.341951 1.06066 1.06066 
C 1.341951 0.77937 1.5 0.397805 1.5 0 
C 1.5 -0.397805 1.341951 -0.77937 1.06066 -1.06066 
C 0.77937 -1.341951 0.397805 -1.5 0 -1.5 
C -0.397805 -1.5 -0.77937 -1.341951 -1.06066 -1.06066 
C -1.341951 -0.77937 -1.5 -0.397805 -1.5 0 
C -1.5 0.397805 -1.341951 0.77937 -1.06066 1.06066 
C -0.77937 1.341951 -0.397805 1.5 0 1.5 
z
" style="stroke: #0000ff; stroke-opacity: 0.8"/>
    </defs>
    <g clip-path="url(#p8f51ea78a5)">
     <use xlink:href="#mfee2f0f198" x="74.979625" y="229.454504" style="fill: #0000ff; fill-opacity: 0.8; stroke: #0000ff; stroke-opacity: 0.8"/>
     <use xlink:href="#mfee2f0f198" x="128.547625" y="229.454504" style="fill: #0000ff; fill-opacity: 0.8; stroke: #0000ff; stroke-opacity: 0.8"/>
     <use xlink:href="#mfee2f0f198" x="182.115625" y="229.454504" style="fill: #0000ff; fill-opacity: 0.8; stroke: #0000ff; stroke-opacity: 0.8"/>
     <use xlink:href="#mfee2f0f198" x="235.683625" y="229.454504" style="fill: #0000ff; fill-opacity: 0.8; stroke: #0000ff; stroke-opacity: 0.8"/>
     <use xlink:href="#mfee2f0f198" x="289.251625" y="223.27964" style="fill: #0000ff; fill-opacity: 0.8; stroke: #0000ff; stroke-opacity: 0.8"/>
     <use xlink:href="#mfee2f0f198" x="342.819625" y="223.27964" style="fill: #0000ff; fill-opacity: 0.8; stroke: #0000ff; stroke-opacity: 0.8"/>
     <use xlink:href="#mfee2f0f198" x="396.387625" y="223.27964" style="fill: #0000ff; fill-opacity: 0.8; stroke: #0000ff; stroke-opacity: 0.8"/>
     <use xlink:href="#mfee2f0f198" x="449.955625" y="223.27964" style="fill: #0000ff; fill-opacity: 0.8; stroke: #0000ff; stroke-opacity: 0.8"/>
     <use xlink:href="#mfee2f0f198" x="503.523625" y="203.668875" style="fill: #0000ff; fill-opacity: 0.8; stroke: #0000ff; stroke-opacity: 0.8"/>
     <use xlink:href="#mfee2f0f198" x="557.091625" y="203.668875" style="fill: #0000ff; fill-opacity: 0.8; stroke: #0000ff; stroke-opacity: 0.8"/>
     <use xlink:href="#mfee2f0f198" x="610.659625" y="203.668875" style="fill: #0000ff; fill-opacity: 0.8; stroke: #0000ff; stroke-opacity: 0.8"/>
     <use xlink:href="#mfee2f0f198" x="664.227625" y="203.668875" style="fill: #0000ff; fill-opacity: 0.8; stroke: #0000ff; stroke-opacity: 0.8"/>
    </g>
   </g>
   <g id="matplotlib.axis_1"/>
   <g id="matplotlib.axis_2">
    <g id="ytick_1">
     <g id="line2d_2">
      <defs>
       <path id="mfec495a1e3" d="M 0 0 
L -3.5 0 
" style="stroke: #000000; stroke-width: 0.8"/>
      </defs>
      <g>
       <use xlink:href="#mfec495a1e3" x="48.195625" y="317.584106" style="stroke: #000000; stroke-width: 0.8"/>
      </g>
     </g>
     <g id="text_1">
      <!-- 5 -->
      <g transform="translate(33.195625 323.047856) scale(0.16 -0.16)">
       <defs>
        <path id="STIXGeneral-Regular-35" d="M 2803 4358 
L 2573 3814 
Q 2534 3731 2400 3731 
L 1158 3731 
L 902 3187 
Q 1606 3053 1920 2896 
Q 2234 2739 2502 2368 
Q 2726 2061 2726 1555 
Q 2726 1094 2576 780 
Q 2426 467 2099 224 
Q 1664 -90 1011 -90 
Q 646 -90 422 19 
Q 198 128 198 307 
Q 198 550 486 550 
Q 717 550 960 352 
Q 1210 147 1414 147 
Q 1747 147 2012 480 
Q 2278 813 2278 1229 
Q 2278 1843 1850 2189 
Q 1293 2637 486 2637 
Q 410 2637 410 2688 
L 416 2720 
L 1114 4237 
L 2438 4237 
Q 2547 4237 2608 4269 
Q 2669 4301 2746 4403 
L 2803 4358 
z
" transform="scale(0.015625)"/>
       </defs>
       <use xlink:href="#STIXGeneral-Regular-35"/>
      </g>
     </g>
    </g>
    <g id="ytick_2">
     <g id="line2d_3">
      <g>
       <use xlink:href="#mfec495a1e3" x="48.195625" y="258.531291" style="stroke: #000000; stroke-width: 0.8"/>
      </g>
     </g>
     <g id="text_2">
      <!-- 6 -->
      <g transform="translate(33.195625 263.995041) scale(0.16 -0.16)">
       <defs>
        <path id="STIXGeneral-Regular-36" d="M 2854 4378 
L 2867 4275 
Q 2112 4154 1606 3664 
Q 1101 3174 973 2451 
Q 1344 2739 1786 2739 
Q 2349 2739 2672 2380 
Q 2995 2022 2995 1402 
Q 2995 774 2669 378 
Q 2291 -90 1651 -90 
Q 870 -90 518 557 
Q 218 1107 218 1786 
Q 218 2835 915 3552 
Q 1312 3962 1731 4131 
Q 2150 4301 2854 4378 
z
M 2419 1203 
Q 2419 2445 1555 2445 
Q 1235 2445 1024 2275 
Q 813 2106 813 1702 
Q 813 954 1046 522 
Q 1280 90 1722 90 
Q 2061 90 2240 394 
Q 2419 698 2419 1203 
z
" transform="scale(0.015625)"/>
       </defs>
       <use xlink:href="#STIXGeneral-Regular-36"/>
      </g>
     </g>
    </g>
    <g id="ytick_3">
     <g id="line2d_4">
      <g>
       <use xlink:href="#mfec495a1e3" x="48.195625" y="199.478476" style="stroke: #000000; stroke-width: 0.8"/>
      </g>
     </g>
     <g id="text_3">
      <!-- 7 -->
      <g transform="translate(33.195625 204.942226) scale(0.16 -0.16)">
       <defs>
        <path id="STIXGeneral-Regular-37" d="M 2874 4134 
L 1517 -51 
L 1101 -51 
L 2368 3763 
L 992 3763 
Q 717 3763 582 3667 
Q 448 3571 243 3238 
L 128 3296 
L 512 4237 
L 2874 4237 
L 2874 4134 
z
" transform="scale(0.015625)"/>
       </defs>
       <use xlink:href="#STIXGeneral-Regular-37"/>
      </g>
     </g>
    </g>
    <g id="ytick_4">
     <g id="line2d_5">
      <g>
       <use xlink:href="#mfec495a1e3" x="48.195625" y="140.425661" style="stroke: #000000; stroke-width: 0.8"/>
      </g>
     </g>
     <g id="text_4">
      <!-- 8 -->
      <g transform="translate(33.195625 145.889411) scale(0.16 -0.16)">
       <defs>
        <path id="STIXGeneral-Regular-38" d="M 2848 992 
Q 2848 499 2505 204 
Q 2163 -90 1587 -90 
Q 1050 -90 704 204 
Q 358 499 358 954 
Q 358 1293 524 1533 
Q 691 1773 1190 2125 
Q 710 2522 553 2765 
Q 397 3008 397 3328 
Q 397 3782 745 4054 
Q 1094 4326 1638 4326 
Q 2106 4326 2410 4060 
Q 2714 3795 2714 3411 
Q 2714 3059 2531 2848 
Q 2349 2637 1856 2374 
Q 2432 1990 2640 1689 
Q 2848 1389 2848 992 
z
M 2272 3411 
Q 2272 3744 2086 3945 
Q 1901 4147 1574 4147 
Q 1248 4147 1059 3977 
Q 870 3808 870 3513 
Q 870 3219 1059 2979 
Q 1248 2739 1670 2490 
Q 1997 2682 2134 2896 
Q 2272 3110 2272 3411 
z
M 1734 1741 
L 1357 1997 
Q 1075 1766 960 1545 
Q 845 1325 845 1011 
Q 845 576 1065 333 
Q 1286 90 1658 90 
Q 1971 90 2166 285 
Q 2362 480 2362 794 
Q 2362 1082 2214 1299 
Q 2067 1517 1734 1741 
z
" transform="scale(0.015625)"/>
       </defs>
       <use xlink:href="#STIXGeneral-Regular-38"/>
      </g>
     </g>
    </g>
    <g id="ytick_5">
     <g id="line2d_6">
      <g>
       <use xlink:href="#mfec495a1e3" x="48.195625" y="81.372846" style="stroke: #000000; stroke-width: 0.8"/>
      </g>
     </g>
     <g id="text_5">
      <!-- 9 -->
      <g transform="translate(33.195625 86.836596) scale(0.16 -0.16)">
       <defs>
        <path id="STIXGeneral-Regular-39" d="M 378 -141 
L 358 -13 
Q 1094 115 1603 608 
Q 2112 1101 2304 1882 
Q 1933 1517 1344 1517 
Q 826 1517 509 1875 
Q 192 2234 192 2816 
Q 192 3462 573 3894 
Q 954 4326 1523 4326 
Q 2131 4326 2528 3840 
Q 2938 3328 2938 2522 
Q 2938 1958 2742 1462 
Q 2547 966 2170 621 
Q 1773 262 1395 105 
Q 1018 -51 378 -141 
z
M 2317 2272 
L 2317 2522 
Q 2317 4147 1472 4147 
Q 1171 4147 1005 3930 
Q 909 3802 845 3546 
Q 781 3290 781 3034 
Q 781 2464 995 2128 
Q 1210 1792 1568 1792 
Q 1824 1792 2070 1917 
Q 2317 2042 2317 2272 
z
" transform="scale(0.015625)"/>
       </defs>
       <use xlink:href="#STIXGeneral-Regular-39"/>
      </g>
     </g>
    </g>
    <g id="text_6">
     <!-- Coefficient -->
     <g transform="translate(25.289062 231.112116) rotate(-90) scale(0.18 -0.18)">
      <defs>
       <path id="STIXGeneral-Regular-43" d="M 3930 838 
L 4051 723 
Q 3482 -90 2304 -90 
Q 1376 -90 794 480 
Q 179 1082 179 2080 
Q 179 3014 755 3661 
Q 1357 4326 2310 4326 
Q 2720 4326 3072 4230 
Q 3475 4115 3514 4115 
Q 3725 4115 3782 4326 
L 3910 4326 
L 3968 2874 
L 3821 2874 
Q 3718 3334 3488 3584 
Q 3034 4070 2458 4070 
Q 1747 4070 1334 3548 
Q 922 3027 922 2182 
Q 922 1152 1382 653 
Q 1811 192 2522 192 
Q 2944 192 3251 339 
Q 3558 486 3930 838 
z
" transform="scale(0.015625)"/>
       <path id="STIXGeneral-Regular-6f" d="M 3008 1478 
Q 3008 806 2608 371 
Q 2208 -64 1568 -64 
Q 979 -64 582 368 
Q 186 800 186 1459 
Q 186 2125 582 2534 
Q 979 2944 1626 2944 
Q 2221 2944 2614 2537 
Q 3008 2131 3008 1478 
z
M 2432 1306 
Q 2432 2035 2112 2445 
Q 1856 2765 1504 2765 
Q 1171 2765 966 2493 
Q 762 2221 762 1747 
Q 762 928 1101 435 
Q 1318 115 1677 115 
Q 2029 115 2230 432 
Q 2432 749 2432 1306 
z
" transform="scale(0.015625)"/>
       <path id="STIXGeneral-Regular-65" d="M 2611 1050 
L 2714 1005 
Q 2330 -64 1376 -64 
Q 813 -64 486 329 
Q 160 723 160 1389 
Q 160 2074 525 2509 
Q 890 2944 1485 2944 
Q 2061 2944 2374 2502 
Q 2560 2246 2592 1773 
L 621 1773 
Q 646 1370 700 1158 
Q 755 947 915 730 
Q 1184 378 1626 378 
Q 1939 378 2153 531 
Q 2368 685 2611 1050 
z
M 634 1978 
L 1939 1978 
Q 1882 2381 1750 2547 
Q 1619 2714 1312 2714 
Q 1043 2714 864 2525 
Q 685 2336 634 1978 
z
" transform="scale(0.015625)"/>
       <path id="STIXGeneral-Regular-66" d="M 134 2880 
L 659 2880 
Q 666 3264 710 3478 
Q 755 3693 883 3910 
Q 1152 4371 1786 4371 
Q 2074 4371 2262 4259 
Q 2451 4147 2451 3974 
Q 2451 3866 2374 3789 
Q 2298 3712 2182 3712 
Q 2029 3712 1894 3942 
Q 1741 4192 1555 4192 
Q 1197 4192 1197 3622 
L 1197 2880 
L 1978 2880 
L 1978 2675 
L 1197 2675 
L 1197 666 
Q 1197 307 1299 208 
Q 1402 109 1792 96 
L 1792 0 
L 128 0 
L 128 96 
Q 474 115 566 214 
Q 659 314 659 666 
L 659 2675 
L 134 2675 
L 134 2880 
z
" transform="scale(0.015625)"/>
       <path id="STIXGeneral-Regular-69" d="M 1152 4045 
Q 1152 3904 1056 3811 
Q 960 3718 819 3718 
Q 685 3718 592 3811 
Q 499 3904 499 4045 
Q 499 4179 595 4275 
Q 691 4371 826 4371 
Q 966 4371 1059 4275 
Q 1152 4179 1152 4045 
z
M 1619 0 
L 102 0 
L 102 96 
Q 435 115 521 211 
Q 608 307 608 666 
L 608 2118 
Q 608 2342 563 2432 
Q 518 2522 397 2522 
Q 243 2522 128 2490 
L 128 2592 
L 1120 2944 
L 1146 2918 
L 1146 672 
Q 1146 314 1226 218 
Q 1306 122 1619 96 
L 1619 0 
z
" transform="scale(0.015625)"/>
       <path id="STIXGeneral-Regular-63" d="M 2547 998 
L 2637 941 
Q 2362 403 2112 205 
Q 1786 -64 1376 -64 
Q 845 -64 502 336 
Q 160 736 160 1357 
Q 160 2170 698 2618 
Q 1094 2944 1562 2944 
Q 1965 2944 2256 2749 
Q 2547 2554 2547 2285 
Q 2547 2176 2457 2096 
Q 2368 2016 2246 2016 
Q 2022 2016 1939 2310 
L 1901 2451 
Q 1850 2630 1773 2694 
Q 1696 2758 1523 2758 
Q 1133 2758 893 2451 
Q 653 2144 653 1645 
Q 653 1094 928 745 
Q 1203 397 1645 397 
Q 1920 397 2118 528 
Q 2317 659 2547 998 
z
" transform="scale(0.015625)"/>
       <path id="STIXGeneral-Regular-6e" d="M 3104 0 
L 1773 0 
L 1779 96 
Q 2016 115 2096 233 
Q 2176 352 2176 672 
L 2176 1946 
Q 2176 2592 1709 2592 
Q 1549 2592 1408 2515 
Q 1267 2438 1050 2227 
L 1050 461 
Q 1050 269 1136 192 
Q 1222 115 1466 96 
L 1466 0 
L 115 0 
L 115 96 
Q 358 115 435 214 
Q 512 314 512 602 
L 512 2157 
Q 512 2394 467 2483 
Q 422 2573 288 2573 
Q 160 2573 102 2547 
L 102 2656 
Q 550 2784 979 2944 
L 1030 2925 
L 1030 2426 
L 1037 2426 
Q 1491 2944 1958 2944 
Q 2323 2944 2518 2688 
Q 2714 2432 2714 1958 
L 2714 544 
Q 2714 288 2790 205 
Q 2867 122 3104 96 
L 3104 0 
z
" transform="scale(0.015625)"/>
       <path id="STIXGeneral-Regular-74" d="M 1702 493 
L 1786 422 
Q 1478 -64 1011 -64 
Q 448 -64 448 749 
L 448 2675 
L 109 2675 
Q 83 2694 83 2720 
Q 83 2771 192 2842 
Q 435 2982 813 3526 
Q 826 3546 874 3606 
Q 922 3667 941 3706 
Q 986 3706 986 3622 
L 986 2880 
L 1632 2880 
L 1632 2675 
L 986 2675 
L 986 845 
Q 986 538 1062 403 
Q 1139 269 1318 269 
Q 1510 269 1702 493 
z
" transform="scale(0.015625)"/>
      </defs>
      <use xlink:href="#STIXGeneral-Regular-43"/>
      <use xlink:href="#STIXGeneral-Regular-6f" x="66.699997"/>
      <use xlink:href="#STIXGeneral-Regular-65" x="116.699982"/>
      <use xlink:href="#STIXGeneral-Regular-66" x="161.099976"/>
      <use xlink:href="#STIXGeneral-Regular-66" x="194.399963"/>
      <use xlink:href="#STIXGeneral-Regular-69" x="227.699951"/>
      <use xlink:href="#STIXGeneral-Regular-63" x="255.499939"/>
      <use xlink:href="#STIXGeneral-Regular-69" x="299.899933"/>
      <use xlink:href="#STIXGeneral-Regular-65" x="327.699921"/>
      <use xlink:href="#STIXGeneral-Regular-6e" x="372.099915"/>
      <use xlink:href="#STIXGeneral-Regular-74" x="422.099899"/>
     </g>
    </g>
   </g>
   <g id="line2d_7">
    <path d="M 48.195625 223.27964 
L 717.795625 223.27964 
" clip-path="url(#p8f51ea78a5)" style="fill: none; stroke-dasharray: 3.6,1.5; stroke-dashoffset: 0; stroke: #000000; stroke-width: 0.3"/>
   </g>
   <g id="patch_3">
    <path d="M 48.195625 353.015795 
L 48.195625 28.225312 
" style="fill: none; stroke: #000000; stroke-width: 0.8; stroke-linejoin: miter; stroke-linecap: square"/>
   </g>
   <g id="patch_4">
    <path d="M 717.795625 353.015795 
L 717.795625 28.225312 
" style="fill: none; stroke: #000000; stroke-width: 0.8; stroke-linejoin: miter; stroke-linecap: square"/>
   </g>
   <g id="patch_5">
    <path d="M 48.195625 353.015795 
L 717.795625 353.015795 
" style="fill: none; stroke: #000000; stroke-width: 0.8; stroke-linejoin: miter; stroke-linecap: square"/>
   </g>
   <g id="patch_6">
    <path d="M 48.195625 28.225313 
L 717.795625 28.225313 
" style="fill: none; stroke: #000000; stroke-width: 0.8; stroke-linejoin: miter; stroke-linecap: square"/>
   </g>
   <g id="text_7">
    <!-- Specification curve analysis -->
    <g transform="translate(259.572188 22.225313) scale(0.22 -0.22)">
     <defs>
      <path id="STIXGeneral-Regular-53" d="M 3002 2963 
L 2842 2963 
Q 2733 3360 2579 3565 
Q 2189 4064 1651 4064 
Q 1357 4064 1181 3894 
Q 1005 3725 1005 3456 
Q 1005 3328 1069 3206 
Q 1133 3085 1206 2998 
Q 1280 2912 1465 2784 
Q 1651 2656 1766 2589 
Q 1882 2522 2150 2362 
Q 2669 2061 2905 1763 
Q 3142 1466 3142 1107 
Q 3142 576 2771 243 
Q 2400 -90 1837 -90 
Q 1421 -90 1082 58 
Q 915 128 781 128 
Q 704 128 653 70 
Q 602 13 602 -83 
L 461 -83 
L 275 1274 
L 416 1274 
Q 845 141 1734 141 
Q 2074 141 2285 342 
Q 2496 544 2496 858 
Q 2496 1158 2310 1363 
Q 2003 1696 1235 2106 
Q 454 2522 454 3206 
Q 454 3718 768 4022 
Q 1082 4326 1568 4326 
Q 1907 4326 2240 4186 
Q 2413 4109 2522 4109 
Q 2688 4109 2726 4326 
L 2861 4326 
L 3002 2963 
z
" transform="scale(0.015625)"/>
      <path id="STIXGeneral-Regular-70" d="M 1018 2931 
L 1018 2438 
Q 1421 2944 1939 2944 
Q 2406 2944 2707 2560 
Q 3008 2176 3008 1581 
Q 3008 883 2621 409 
Q 2234 -64 1664 -64 
Q 1466 -64 1328 -6 
Q 1190 51 1018 211 
L 1018 -794 
Q 1018 -1094 1120 -1180 
Q 1222 -1267 1581 -1274 
L 1581 -1389 
L 32 -1389 
L 32 -1280 
Q 314 -1254 397 -1171 
Q 480 -1088 480 -838 
L 480 2157 
Q 480 2381 429 2451 
Q 378 2522 218 2522 
Q 115 2522 58 2515 
L 58 2618 
Q 506 2752 979 2944 
L 1018 2931 
z
M 1018 2138 
L 1018 563 
Q 1018 422 1238 281 
Q 1459 141 1683 141 
Q 2029 141 2243 467 
Q 2458 794 2458 1325 
Q 2458 1888 2243 2224 
Q 2029 2560 1670 2560 
Q 1446 2560 1232 2419 
Q 1018 2278 1018 2138 
z
" transform="scale(0.015625)"/>
      <path id="STIXGeneral-Regular-61" d="M 2829 422 
L 2829 243 
Q 2586 -64 2253 -64 
Q 1888 -64 1843 403 
L 1837 403 
Q 1427 -64 909 -64 
Q 608 -64 422 112 
Q 237 288 237 602 
Q 237 1050 685 1350 
Q 992 1555 1837 1869 
L 1837 2214 
Q 1837 2502 1699 2646 
Q 1562 2790 1338 2790 
Q 1146 2790 1018 2697 
Q 890 2605 890 2477 
Q 890 2419 909 2348 
Q 928 2278 928 2208 
Q 928 2112 841 2029 
Q 755 1946 634 1946 
Q 525 1946 441 2029 
Q 358 2112 358 2240 
Q 358 2547 685 2752 
Q 986 2944 1421 2944 
Q 1939 2944 2176 2656 
Q 2291 2522 2323 2384 
Q 2355 2246 2355 1946 
L 2355 723 
Q 2355 301 2554 301 
Q 2682 301 2829 422 
z
M 1837 813 
L 1837 1715 
Q 1248 1510 1018 1293 
Q 800 1094 800 800 
Q 800 557 921 432 
Q 1043 307 1242 307 
Q 1453 307 1613 410 
Q 1747 506 1792 589 
Q 1837 672 1837 813 
z
" transform="scale(0.015625)"/>
      <path id="STIXGeneral-Regular-20" transform="scale(0.015625)"/>
      <path id="STIXGeneral-Regular-75" d="M 3072 320 
L 3072 230 
Q 2573 96 2195 -58 
L 2163 -38 
L 2163 486 
L 2150 486 
Q 1747 -64 1235 -64 
Q 870 -64 662 160 
Q 454 384 454 755 
L 454 2362 
Q 454 2598 371 2688 
Q 288 2778 58 2790 
L 58 2880 
L 992 2880 
L 992 813 
Q 992 595 1123 451 
Q 1254 307 1446 307 
Q 1760 307 1984 506 
Q 2067 582 2099 649 
Q 2131 717 2131 877 
L 2131 2355 
Q 2131 2605 2041 2678 
Q 1952 2752 1658 2771 
L 1658 2880 
L 2669 2880 
L 2669 685 
Q 2669 461 2742 390 
Q 2816 320 3034 320 
L 3072 320 
z
" transform="scale(0.015625)"/>
      <path id="STIXGeneral-Regular-72" d="M 1024 2931 
L 1024 2342 
Q 1267 2688 1430 2816 
Q 1594 2944 1792 2944 
Q 1958 2944 2051 2854 
Q 2144 2765 2144 2605 
Q 2144 2470 2077 2393 
Q 2010 2317 1894 2317 
Q 1773 2317 1638 2445 
Q 1536 2541 1472 2541 
Q 1338 2541 1181 2355 
Q 1024 2170 1024 2016 
L 1024 576 
Q 1024 301 1133 205 
Q 1242 109 1568 96 
L 1568 0 
L 32 0 
L 32 96 
Q 339 154 412 224 
Q 486 294 486 538 
L 486 2138 
Q 486 2349 438 2435 
Q 390 2522 269 2522 
Q 166 2522 45 2496 
L 45 2598 
Q 448 2726 992 2944 
L 1024 2931 
z
" transform="scale(0.015625)"/>
      <path id="STIXGeneral-Regular-76" d="M 3053 2880 
L 3053 2784 
Q 2906 2771 2835 2688 
Q 2765 2605 2637 2285 
L 1818 230 
Q 1690 -90 1638 -90 
Q 1587 -90 1523 77 
Q 1510 96 1497 141 
Q 1485 186 1472 211 
L 704 2048 
Q 499 2534 403 2652 
Q 307 2771 122 2784 
L 122 2880 
L 1376 2880 
L 1376 2784 
Q 1210 2771 1146 2732 
Q 1082 2694 1082 2611 
Q 1082 2509 1139 2368 
L 1792 730 
L 2426 2387 
Q 2464 2483 2464 2579 
Q 2464 2758 2163 2784 
L 2163 2880 
L 3053 2880 
z
" transform="scale(0.015625)"/>
      <path id="STIXGeneral-Regular-6c" d="M 1645 0 
L 134 0 
L 134 96 
Q 435 122 531 221 
Q 627 320 627 589 
L 627 3590 
Q 627 3821 569 3910 
Q 512 4000 358 4000 
Q 224 4000 122 3987 
L 122 4090 
Q 730 4237 1133 4371 
L 1165 4346 
L 1165 557 
Q 1165 288 1254 201 
Q 1344 115 1645 96 
L 1645 0 
z
" transform="scale(0.015625)"/>
      <path id="STIXGeneral-Regular-79" d="M 3040 2880 
L 3040 2784 
Q 2925 2771 2854 2700 
Q 2784 2630 2720 2458 
L 1760 -160 
Q 1510 -838 1257 -1116 
Q 1005 -1395 640 -1395 
Q 435 -1395 313 -1289 
Q 192 -1184 192 -1024 
Q 192 -902 272 -816 
Q 352 -730 467 -730 
Q 653 -730 800 -813 
Q 883 -858 966 -858 
Q 1101 -858 1286 -576 
Q 1376 -448 1459 -211 
Q 1542 26 1542 115 
Q 1542 198 1274 762 
L 429 2566 
Q 346 2752 90 2790 
L 90 2880 
L 1402 2880 
L 1402 2784 
Q 1197 2778 1117 2739 
Q 1037 2701 1037 2611 
Q 1037 2541 1120 2349 
L 1837 749 
L 2458 2515 
Q 2483 2573 2483 2630 
Q 2483 2784 2189 2784 
L 2189 2880 
L 3040 2880 
z
" transform="scale(0.015625)"/>
      <path id="STIXGeneral-Regular-73" d="M 998 1926 
L 1664 1523 
Q 1984 1331 2105 1164 
Q 2227 998 2227 736 
Q 2227 416 1961 176 
Q 1696 -64 1331 -64 
Q 1030 -64 864 -6 
Q 691 51 570 51 
Q 461 51 416 -26 
L 333 -26 
L 333 979 
L 435 979 
Q 538 512 730 294 
Q 922 77 1248 77 
Q 1485 77 1632 211 
Q 1779 346 1779 550 
Q 1779 845 1440 1030 
L 1094 1222 
Q 326 1651 326 2150 
Q 326 2522 566 2730 
Q 806 2938 1210 2938 
Q 1491 2938 1638 2867 
Q 1754 2816 1818 2816 
Q 1862 2816 1920 2880 
L 1990 2880 
L 2022 2010 
L 1926 2010 
Q 1818 2445 1654 2621 
Q 1491 2797 1203 2797 
Q 986 2797 854 2688 
Q 723 2579 723 2362 
Q 723 2253 796 2128 
Q 870 2003 998 1926 
z
" transform="scale(0.015625)"/>
     </defs>
     <use xlink:href="#STIXGeneral-Regular-53"/>
     <use xlink:href="#STIXGeneral-Regular-70" x="55.599991"/>
     <use xlink:href="#STIXGeneral-Regular-65" x="105.599976"/>
     <use xlink:href="#STIXGeneral-Regular-63" x="149.999969"/>
     <use xlink:href="#STIXGeneral-Regular-69" x="194.399963"/>
     <use xlink:href="#STIXGeneral-Regular-66" x="222.199951"/>
     <use xlink:href="#STIXGeneral-Regular-69" x="255.499939"/>
     <use xlink:href="#STIXGeneral-Regular-63" x="283.299927"/>
     <use xlink:href="#STIXGeneral-Regular-61" x="327.699921"/>
     <use xlink:href="#STIXGeneral-Regular-74" x="372.099915"/>
     <use xlink:href="#STIXGeneral-Regular-69" x="399.899902"/>
     <use xlink:href="#STIXGeneral-Regular-6f" x="427.69989"/>
     <use xlink:href="#STIXGeneral-Regular-6e" x="477.699875"/>
     <use xlink:href="#STIXGeneral-Regular-20" x="527.69986"/>
     <use xlink:href="#STIXGeneral-Regular-63" x="552.699844"/>
     <use xlink:href="#STIXGeneral-Regular-75" x="597.099838"/>
     <use xlink:href="#STIXGeneral-Regular-72" x="647.099823"/>
     <use xlink:href="#STIXGeneral-Regular-76" x="680.399811"/>
     <use xlink:href="#STIXGeneral-Regular-65" x="730.399796"/>
     <use xlink:href="#STIXGeneral-Regular-20" x="774.799789"/>
     <use xlink:href="#STIXGeneral-Regular-61" x="799.799774"/>
     <use xlink:href="#STIXGeneral-Regular-6e" x="844.199768"/>
     <use xlink:href="#STIXGeneral-Regular-61" x="894.199753"/>
     <use xlink:href="#STIXGeneral-Regular-6c" x="938.599747"/>
     <use xlink:href="#STIXGeneral-Regular-79" x="966.399734"/>
     <use xlink:href="#STIXGeneral-Regular-73" x="1016.399719"/>
     <use xlink:href="#STIXGeneral-Regular-69" x="1055.299713"/>
     <use xlink:href="#STIXGeneral-Regular-73" x="1083.099701"/>
    </g>
   </g>
   <g id="text_8">
    <!-- Median coefficient -->
    <g style="fill: #808080" transform="translate(80.336425 215.488269) scale(0.12 -0.12)">
     <defs>
      <path id="STIXGeneral-Regular-4d" d="M 5530 0 
L 3738 0 
L 3738 122 
Q 4115 147 4214 265 
Q 4314 384 4314 787 
L 4314 3661 
L 2682 0 
L 2592 0 
L 979 3514 
L 979 966 
Q 979 448 1088 294 
Q 1197 141 1574 122 
L 1574 0 
L 77 0 
L 77 122 
Q 358 141 480 205 
Q 602 269 650 432 
Q 698 595 698 966 
L 698 3514 
Q 698 3878 589 3984 
Q 480 4090 90 4115 
L 90 4237 
L 1357 4237 
L 2835 1024 
L 4250 4237 
L 5523 4237 
L 5523 4115 
Q 5178 4109 5072 3993 
Q 4966 3878 4966 3520 
L 4966 717 
Q 4966 378 5072 262 
Q 5178 147 5530 122 
L 5530 0 
z
" transform="scale(0.015625)"/>
      <path id="STIXGeneral-Regular-64" d="M 3142 269 
L 2202 -64 
L 2176 -45 
L 2176 365 
Q 1869 -64 1357 -64 
Q 826 -64 499 317 
Q 173 698 173 1312 
Q 173 1990 563 2467 
Q 954 2944 1504 2944 
Q 1850 2944 2176 2669 
L 2176 3667 
Q 2176 3866 2118 3930 
Q 2061 3994 1882 3994 
Q 1792 3994 1741 3987 
L 1741 4090 
Q 2323 4243 2682 4371 
L 2714 4358 
L 2714 730 
Q 2714 506 2768 435 
Q 2822 365 2995 365 
Q 3034 365 3142 371 
L 3142 269 
z
M 2176 653 
L 2176 2125 
Q 2176 2381 1981 2573 
Q 1786 2765 1523 2765 
Q 1158 2765 940 2438 
Q 723 2112 723 1568 
Q 723 979 963 624 
Q 1203 269 1606 269 
Q 1907 269 2080 474 
Q 2176 582 2176 653 
z
" transform="scale(0.015625)"/>
     </defs>
     <use xlink:href="#STIXGeneral-Regular-4d"/>
     <use xlink:href="#STIXGeneral-Regular-65" x="88.899994"/>
     <use xlink:href="#STIXGeneral-Regular-64" x="133.299988"/>
     <use xlink:href="#STIXGeneral-Regular-69" x="183.299973"/>
     <use xlink:href="#STIXGeneral-Regular-61" x="211.09996"/>
     <use xlink:href="#STIXGeneral-Regular-6e" x="255.499954"/>
     <use xlink:href="#STIXGeneral-Regular-20" x="305.499939"/>
     <use xlink:href="#STIXGeneral-Regular-63" x="330.499924"/>
     <use xlink:href="#STIXGeneral-Regular-6f" x="374.899918"/>
     <use xlink:href="#STIXGeneral-Regular-65" x="424.899902"/>
     <use xlink:href="#STIXGeneral-Regular-66" x="469.299896"/>
     <use xlink:href="#STIXGeneral-Regular-66" x="502.599884"/>
     <use xlink:href="#STIXGeneral-Regular-69" x="535.899872"/>
     <use xlink:href="#STIXGeneral-Regular-63" x="563.69986"/>
     <use xlink:href="#STIXGeneral-Regular-69" x="608.099854"/>
     <use xlink:href="#STIXGeneral-Regular-65" x="635.899841"/>
     <use xlink:href="#STIXGeneral-Regular-6e" x="680.299835"/>
     <use xlink:href="#STIXGeneral-Regular-74" x="730.29982"/>
    </g>
   </g>
  </g>
  <g id="axes_2">
   <g id="patch_7">
    <path d="M 48.195625 471.745312 
L 717.795625 471.745312 
L 717.795625 393.335795 
L 48.195625 393.335795 
z
" style="fill: #ffffff"/>
   </g>
   <g id="patch_8">
    <path d="M 61.587625 469.43915 
L 88.371625 469.43915 
L 88.371625 464.826826 
L 61.587625 464.826826 
z
" clip-path="url(#pb1570639e6)" style="fill: #9b9b9b; stroke: #9b9b9b; stroke-linejoin: miter"/>
   </g>
   <g id="patch_9">
    <path d="M 115.155625 469.43915 
L 141.939625 469.43915 
L 141.939625 464.826826 
L 115.155625 464.826826 
z
" clip-path="url(#pb1570639e6)" style="fill: #9b9b9b; stroke: #9b9b9b; stroke-linejoin: miter"/>
   </g>
   <g id="patch_10">
    <path d="M 168.723625 469.43915 
L 195.507625 469.43915 
L 195.507625 464.826826 
L 168.723625 464.826826 
z
" clip-path="url(#pb1570639e6)" style="fill: #9b9b9b; stroke: #9b9b9b; stroke-linejoin: miter"/>
   </g>
   <g id="patch_11">
    <path d="M 222.291625 469.43915 
L 249.075625 469.43915 
L 249.075625 464.826826 
L 222.291625 464.826826 
z
" clip-path="url(#pb1570639e6)" style="fill: #9b9b9b; stroke: #9b9b9b; stroke-linejoin: miter"/>
   </g>
   <g id="patch_12">
    <path d="M 275.859625 469.43915 
L 302.643625 469.43915 
L 302.643625 464.826826 
L 275.859625 464.826826 
z
" clip-path="url(#pb1570639e6)" style="fill: #f2f2f2; stroke: #f2f2f2; stroke-linejoin: miter"/>
   </g>
   <g id="patch_13">
    <path d="M 329.427625 469.43915 
L 356.211625 469.43915 
L 356.211625 464.826826 
L 329.427625 464.826826 
z
" clip-path="url(#pb1570639e6)" style="fill: #f2f2f2; stroke: #f2f2f2; stroke-linejoin: miter"/>
   </g>
   <g id="patch_14">
    <path d="M 382.995625 469.43915 
L 409.779625 469.43915 
L 409.779625 464.826826 
L 382.995625 464.826826 
z
" clip-path="url(#pb1570639e6)" style="fill: #f2f2f2; stroke: #f2f2f2; stroke-linejoin: miter"/>
   </g>
   <g id="patch_15">
    <path d="M 436.563625 469.43915 
L 463.347625 469.43915 
L 463.347625 464.826826 
L 436.563625 464.826826 
z
" clip-path="url(#pb1570639e6)" style="fill: #f2f2f2; stroke: #f2f2f2; stroke-linejoin: miter"/>
   </g>
   <g id="patch_16">
    <path d="M 490.131625 469.43915 
L 516.915625 469.43915 
L 516.915625 464.826826 
L 490.131625 464.826826 
z
" clip-path="url(#pb1570639e6)" style="fill: #f2f2f2; stroke: #f2f2f2; stroke-linejoin: miter"/>
   </g>
   <g id="patch_17">
    <path d="M 543.699625 469.43915 
L 570.483625 469.43915 
L 570.483625 464.826826 
L 543.699625 464.826826 
z
" clip-path="url(#pb1570639e6)" style="fill: #f2f2f2; stroke: #f2f2f2; stroke-linejoin: miter"/>
   </g>
   <g id="patch_18">
    <path d="M 597.267625 469.43915 
L 624.051625 469.43915 
L 624.051625 464.826826 
L 597.267625 464.826826 
z
" clip-path="url(#pb1570639e6)" style="fill: #f2f2f2; stroke: #f2f2f2; stroke-linejoin: miter"/>
   </g>
   <g id="patch_19">
    <path d="M 650.835625 469.43915 
L 677.619625 469.43915 
L 677.619625 464.826826 
L 650.835625 464.826826 
z
" clip-path="url(#pb1570639e6)" style="fill: #f2f2f2; stroke: #f2f2f2; stroke-linejoin: miter"/>
   </g>
   <g id="patch_20">
    <path d="M 61.587625 446.377527 
L 88.371625 446.377527 
L 88.371625 441.765203 
L 61.587625 441.765203 
z
" clip-path="url(#pb1570639e6)" style="fill: #f2f2f2; stroke: #f2f2f2; stroke-linejoin: miter"/>
   </g>
   <g id="patch_21">
    <path d="M 115.155625 446.377527 
L 141.939625 446.377527 
L 141.939625 441.765203 
L 115.155625 441.765203 
z
" clip-path="url(#pb1570639e6)" style="fill: #f2f2f2; stroke: #f2f2f2; stroke-linejoin: miter"/>
   </g>
   <g id="patch_22">
    <path d="M 168.723625 446.377527 
L 195.507625 446.377527 
L 195.507625 441.765203 
L 168.723625 441.765203 
z
" clip-path="url(#pb1570639e6)" style="fill: #f2f2f2; stroke: #f2f2f2; stroke-linejoin: miter"/>
   </g>
   <g id="patch_23">
    <path d="M 222.291625 446.377527 
L 249.075625 446.377527 
L 249.075625 441.765203 
L 222.291625 441.765203 
z
" clip-path="url(#pb1570639e6)" style="fill: #f2f2f2; stroke: #f2f2f2; stroke-linejoin: miter"/>
   </g>
   <g id="patch_24">
    <path d="M 275.859625 446.377527 
L 302.643625 446.377527 
L 302.643625 441.765203 
L 275.859625 441.765203 
z
" clip-path="url(#pb1570639e6)" style="fill: #9b9b9b; stroke: #9b9b9b; stroke-linejoin: miter"/>
   </g>
   <g id="patch_25">
    <path d="M 329.427625 446.377527 
L 356.211625 446.377527 
L 356.211625 441.765203 
L 329.427625 441.765203 
z
" clip-path="url(#pb1570639e6)" style="fill: #9b9b9b; stroke: #9b9b9b; stroke-linejoin: miter"/>
   </g>
   <g id="patch_26">
    <path d="M 382.995625 446.377527 
L 409.779625 446.377527 
L 409.779625 441.765203 
L 382.995625 441.765203 
z
" clip-path="url(#pb1570639e6)" style="fill: #9b9b9b; stroke: #9b9b9b; stroke-linejoin: miter"/>
   </g>
   <g id="patch_27">
    <path d="M 436.563625 446.377527 
L 463.347625 446.377527 
L 463.347625 441.765203 
L 436.563625 441.765203 
z
" clip-path="url(#pb1570639e6)" style="fill: #9b9b9b; stroke: #9b9b9b; stroke-linejoin: miter"/>
   </g>
   <g id="patch_28">
    <path d="M 490.131625 446.377527 
L 516.915625 446.377527 
L 516.915625 441.765203 
L 490.131625 441.765203 
z
" clip-path="url(#pb1570639e6)" style="fill: #f2f2f2; stroke: #f2f2f2; stroke-linejoin: miter"/>
   </g>
   <g id="patch_29">
    <path d="M 543.699625 446.377527 
L 570.483625 446.377527 
L 570.483625 441.765203 
L 543.699625 441.765203 
z
" clip-path="url(#pb1570639e6)" style="fill: #f2f2f2; stroke: #f2f2f2; stroke-linejoin: miter"/>
   </g>
   <g id="patch_30">
    <path d="M 597.267625 446.377527 
L 624.051625 446.377527 
L 624.051625 441.765203 
L 597.267625 441.765203 
z
" clip-path="url(#pb1570639e6)" style="fill: #f2f2f2; stroke: #f2f2f2; stroke-linejoin: miter"/>
   </g>
   <g id="patch_31">
    <path d="M 650.835625 446.377527 
L 677.619625 446.377527 
L 677.619625 441.765203 
L 650.835625 441.765203 
z
" clip-path="url(#pb1570639e6)" style="fill: #f2f2f2; stroke: #f2f2f2; stroke-linejoin: miter"/>
   </g>
   <g id="patch_32">
    <path d="M 61.587625 423.315905 
L 88.371625 423.315905 
L 88.371625 418.70358 
L 61.587625 418.70358 
z
" clip-path="url(#pb1570639e6)" style="fill: #f2f2f2; stroke: #f2f2f2; stroke-linejoin: miter"/>
   </g>
   <g id="patch_33">
    <path d="M 115.155625 423.315905 
L 141.939625 423.315905 
L 141.939625 418.70358 
L 115.155625 418.70358 
z
" clip-path="url(#pb1570639e6)" style="fill: #9b9b9b; stroke: #9b9b9b; stroke-linejoin: miter"/>
   </g>
   <g id="patch_34">
    <path d="M 168.723625 423.315905 
L 195.507625 423.315905 
L 195.507625 418.70358 
L 168.723625 418.70358 
z
" clip-path="url(#pb1570639e6)" style="fill: #f2f2f2; stroke: #f2f2f2; stroke-linejoin: miter"/>
   </g>
   <g id="patch_35">
    <path d="M 222.291625 423.315905 
L 249.075625 423.315905 
L 249.075625 418.70358 
L 222.291625 418.70358 
z
" clip-path="url(#pb1570639e6)" style="fill: #9b9b9b; stroke: #9b9b9b; stroke-linejoin: miter"/>
   </g>
   <g id="patch_36">
    <path d="M 275.859625 423.315905 
L 302.643625 423.315905 
L 302.643625 418.70358 
L 275.859625 418.70358 
z
" clip-path="url(#pb1570639e6)" style="fill: #f2f2f2; stroke: #f2f2f2; stroke-linejoin: miter"/>
   </g>
   <g id="patch_37">
    <path d="M 329.427625 423.315905 
L 356.211625 423.315905 
L 356.211625 418.70358 
L 329.427625 418.70358 
z
" clip-path="url(#pb1570639e6)" style="fill: #9b9b9b; stroke: #9b9b9b; stroke-linejoin: miter"/>
   </g>
   <g id="patch_38">
    <path d="M 382.995625 423.315905 
L 409.779625 423.315905 
L 409.779625 418.70358 
L 382.995625 418.70358 
z
" clip-path="url(#pb1570639e6)" style="fill: #f2f2f2; stroke: #f2f2f2; stroke-linejoin: miter"/>
   </g>
   <g id="patch_39">
    <path d="M 436.563625 423.315905 
L 463.347625 423.315905 
L 463.347625 418.70358 
L 436.563625 418.70358 
z
" clip-path="url(#pb1570639e6)" style="fill: #9b9b9b; stroke: #9b9b9b; stroke-linejoin: miter"/>
   </g>
   <g id="patch_40">
    <path d="M 490.131625 423.315905 
L 516.915625 423.315905 
L 516.915625 418.70358 
L 490.131625 418.70358 
z
" clip-path="url(#pb1570639e6)" style="fill: #f2f2f2; stroke: #f2f2f2; stroke-linejoin: miter"/>
   </g>
   <g id="patch_41">
    <path d="M 543.699625 423.315905 
L 570.483625 423.315905 
L 570.483625 418.70358 
L 543.699625 418.70358 
z
" clip-path="url(#pb1570639e6)" style="fill: #9b9b9b; stroke: #9b9b9b; stroke-linejoin: miter"/>
   </g>
   <g id="patch_42">
    <path d="M 597.267625 423.315905 
L 624.051625 423.315905 
L 624.051625 418.70358 
L 597.267625 418.70358 
z
" clip-path="url(#pb1570639e6)" style="fill: #f2f2f2; stroke: #f2f2f2; stroke-linejoin: miter"/>
   </g>
   <g id="patch_43">
    <path d="M 650.835625 423.315905 
L 677.619625 423.315905 
L 677.619625 418.70358 
L 650.835625 418.70358 
z
" clip-path="url(#pb1570639e6)" style="fill: #9b9b9b; stroke: #9b9b9b; stroke-linejoin: miter"/>
   </g>
   <g id="patch_44">
    <path d="M 61.587625 400.254282 
L 88.371625 400.254282 
L 88.371625 395.641957 
L 61.587625 395.641957 
z
" clip-path="url(#pb1570639e6)" style="fill: #f2f2f2; stroke: #f2f2f2; stroke-linejoin: miter"/>
   </g>
   <g id="patch_45">
    <path d="M 115.155625 400.254282 
L 141.939625 400.254282 
L 141.939625 395.641957 
L 115.155625 395.641957 
z
" clip-path="url(#pb1570639e6)" style="fill: #f2f2f2; stroke: #f2f2f2; stroke-linejoin: miter"/>
   </g>
   <g id="patch_46">
    <path d="M 168.723625 400.254282 
L 195.507625 400.254282 
L 195.507625 395.641957 
L 168.723625 395.641957 
z
" clip-path="url(#pb1570639e6)" style="fill: #9b9b9b; stroke: #9b9b9b; stroke-linejoin: miter"/>
   </g>
   <g id="patch_47">
    <path d="M 222.291625 400.254282 
L 249.075625 400.254282 
L 249.075625 395.641957 
L 222.291625 395.641957 
z
" clip-path="url(#pb1570639e6)" style="fill: #9b9b9b; stroke: #9b9b9b; stroke-linejoin: miter"/>
   </g>
   <g id="patch_48">
    <path d="M 275.859625 400.254282 
L 302.643625 400.254282 
L 302.643625 395.641957 
L 275.859625 395.641957 
z
" clip-path="url(#pb1570639e6)" style="fill: #f2f2f2; stroke: #f2f2f2; stroke-linejoin: miter"/>
   </g>
   <g id="patch_49">
    <path d="M 329.427625 400.254282 
L 356.211625 400.254282 
L 356.211625 395.641957 
L 329.427625 395.641957 
z
" clip-path="url(#pb1570639e6)" style="fill: #f2f2f2; stroke: #f2f2f2; stroke-linejoin: miter"/>
   </g>
   <g id="patch_50">
    <path d="M 382.995625 400.254282 
L 409.779625 400.254282 
L 409.779625 395.641957 
L 382.995625 395.641957 
z
" clip-path="url(#pb1570639e6)" style="fill: #9b9b9b; stroke: #9b9b9b; stroke-linejoin: miter"/>
   </g>
   <g id="patch_51">
    <path d="M 436.563625 400.254282 
L 463.347625 400.254282 
L 463.347625 395.641957 
L 436.563625 395.641957 
z
" clip-path="url(#pb1570639e6)" style="fill: #9b9b9b; stroke: #9b9b9b; stroke-linejoin: miter"/>
   </g>
   <g id="patch_52">
    <path d="M 490.131625 400.254282 
L 516.915625 400.254282 
L 516.915625 395.641957 
L 490.131625 395.641957 
z
" clip-path="url(#pb1570639e6)" style="fill: #f2f2f2; stroke: #f2f2f2; stroke-linejoin: miter"/>
   </g>
   <g id="patch_53">
    <path d="M 543.699625 400.254282 
L 570.483625 400.254282 
L 570.483625 395.641957 
L 543.699625 395.641957 
z
" clip-path="url(#pb1570639e6)" style="fill: #f2f2f2; stroke: #f2f2f2; stroke-linejoin: miter"/>
   </g>
   <g id="patch_54">
    <path d="M 597.267625 400.254282 
L 624.051625 400.254282 
L 624.051625 395.641957 
L 597.267625 395.641957 
z
" clip-path="url(#pb1570639e6)" style="fill: #9b9b9b; stroke: #9b9b9b; stroke-linejoin: miter"/>
   </g>
   <g id="patch_55">
    <path d="M 650.835625 400.254282 
L 677.619625 400.254282 
L 677.619625 395.641957 
L 650.835625 395.641957 
z
" clip-path="url(#pb1570639e6)" style="fill: #9b9b9b; stroke: #9b9b9b; stroke-linejoin: miter"/>
   </g>
   <g id="matplotlib.axis_3"/>
   <g id="matplotlib.axis_4">
    <g id="ytick_6">
     <g id="line2d_8">
      <g>
       <use xlink:href="#mfec495a1e3" x="48.195625" y="467.132988" style="stroke: #000000; stroke-width: 0.8"/>
      </g>
     </g>
     <g id="text_9">
      <!-- c1 -->
      <g transform="translate(29.866875 471.2308) scale(0.12 -0.12)">
       <defs>
        <path id="STIXGeneral-Regular-31" d="M 2522 0 
L 755 0 
L 755 96 
Q 1107 115 1235 227 
Q 1363 339 1363 608 
L 1363 3482 
Q 1363 3795 1171 3795 
Q 1082 3795 883 3718 
L 710 3654 
L 710 3744 
L 1856 4326 
L 1914 4307 
L 1914 486 
Q 1914 275 2042 185 
Q 2170 96 2522 96 
L 2522 0 
z
" transform="scale(0.015625)"/>
       </defs>
       <use xlink:href="#STIXGeneral-Regular-63"/>
       <use xlink:href="#STIXGeneral-Regular-31" x="44.399994"/>
      </g>
     </g>
    </g>
    <g id="ytick_7">
     <g id="line2d_9">
      <g>
       <use xlink:href="#mfec495a1e3" x="48.195625" y="444.071365" style="stroke: #000000; stroke-width: 0.8"/>
      </g>
     </g>
     <g id="text_10">
      <!-- c2 -->
      <g transform="translate(29.866875 448.169178) scale(0.12 -0.12)">
       <defs>
        <path id="STIXGeneral-Regular-32" d="M 3034 877 
L 2688 0 
L 186 0 
L 186 77 
L 1325 1286 
Q 1773 1754 1965 2144 
Q 2157 2534 2157 2950 
Q 2157 3379 1920 3616 
Q 1683 3853 1267 3853 
Q 922 3853 720 3673 
Q 518 3494 326 3021 
L 192 3053 
Q 301 3648 630 3987 
Q 960 4326 1523 4326 
Q 2054 4326 2380 4006 
Q 2707 3686 2707 3200 
Q 2707 2477 1888 1613 
L 832 486 
L 2330 486 
Q 2541 486 2665 569 
Q 2790 653 2944 915 
L 3034 877 
z
" transform="scale(0.015625)"/>
       </defs>
       <use xlink:href="#STIXGeneral-Regular-63"/>
       <use xlink:href="#STIXGeneral-Regular-32" x="44.399994"/>
      </g>
     </g>
    </g>
    <g id="ytick_8">
     <g id="line2d_10">
      <g>
       <use xlink:href="#mfec495a1e3" x="48.195625" y="421.009742" style="stroke: #000000; stroke-width: 0.8"/>
      </g>
     </g>
     <g id="text_11">
      <!-- group1 -->
      <g transform="translate(7.2 425.10193) scale(0.12 -0.12)">
       <defs>
        <path id="STIXGeneral-Regular-67" d="M 3008 2483 
L 2477 2483 
Q 2598 2208 2598 1946 
Q 2598 1453 2265 1203 
Q 1933 954 1600 954 
Q 1530 954 1357 973 
L 1235 986 
Q 1107 947 979 812 
Q 851 678 851 582 
Q 851 435 1350 410 
L 2176 371 
Q 2528 358 2739 172 
Q 2950 -13 2950 -314 
Q 2950 -685 2566 -986 
Q 2035 -1395 1286 -1395 
Q 826 -1395 502 -1212 
Q 179 -1030 179 -774 
Q 179 -595 320 -419 
Q 461 -243 806 6 
Q 602 102 534 172 
Q 467 243 467 346 
Q 467 531 762 787 
Q 909 915 1037 1043 
Q 717 1203 579 1401 
Q 442 1600 442 1901 
Q 442 2336 752 2640 
Q 1062 2944 1510 2944 
Q 1766 2944 2022 2848 
L 2163 2797 
Q 2349 2733 2515 2733 
L 3008 2733 
L 3008 2483 
z
M 973 2163 
L 973 2144 
Q 973 1683 1155 1398 
Q 1338 1114 1632 1114 
Q 1850 1114 1978 1270 
Q 2106 1427 2106 1690 
Q 2106 2112 1914 2464 
Q 1754 2765 1446 2765 
Q 1222 2765 1097 2605 
Q 973 2445 973 2163 
z
M 2771 -410 
Q 2771 -230 2595 -163 
Q 2419 -96 1978 -96 
Q 1344 -96 941 -13 
Q 749 -243 688 -348 
Q 627 -454 627 -563 
Q 627 -774 880 -902 
Q 1133 -1030 1555 -1030 
Q 2099 -1030 2435 -860 
Q 2771 -691 2771 -410 
z
" transform="scale(0.015625)"/>
       </defs>
       <use xlink:href="#STIXGeneral-Regular-67"/>
       <use xlink:href="#STIXGeneral-Regular-72" x="49.999985"/>
       <use xlink:href="#STIXGeneral-Regular-6f" x="83.299973"/>
       <use xlink:href="#STIXGeneral-Regular-75" x="133.299957"/>
       <use xlink:href="#STIXGeneral-Regular-70" x="183.299942"/>
       <use xlink:href="#STIXGeneral-Regular-31" x="233.299927"/>
      </g>
     </g>
    </g>
    <g id="ytick_9">
     <g id="line2d_11">
      <g>
       <use xlink:href="#mfec495a1e3" x="48.195625" y="397.94812" style="stroke: #000000; stroke-width: 0.8"/>
      </g>
     </g>
     <g id="text_12">
      <!-- group2 -->
      <g transform="translate(7.2 402.040307) scale(0.12 -0.12)">
       <use xlink:href="#STIXGeneral-Regular-67"/>
       <use xlink:href="#STIXGeneral-Regular-72" x="49.999985"/>
       <use xlink:href="#STIXGeneral-Regular-6f" x="83.299973"/>
       <use xlink:href="#STIXGeneral-Regular-75" x="133.299957"/>
       <use xlink:href="#STIXGeneral-Regular-70" x="183.299942"/>
       <use xlink:href="#STIXGeneral-Regular-32" x="233.299927"/>
      </g>
     </g>
    </g>
   </g>
   <g id="patch_56">
    <path d="M 48.195625 471.745312 
L 48.195625 393.335795 
" style="fill: none; stroke: #000000; stroke-width: 0.8; stroke-linejoin: miter; stroke-linecap: square"/>
   </g>
   <g id="text_13">
    <!-- controls -->
    <g transform="translate(768.800969 414.819382) rotate(-270) scale(0.11 -0.11)">
     <use xlink:href="#STIXGeneral-Regular-63"/>
     <use xlink:href="#STIXGeneral-Regular-6f" x="44.399994"/>
     <use xlink:href="#STIXGeneral-Regular-6e" x="94.399979"/>
     <use xlink:href="#STIXGeneral-Regular-74" x="144.399963"/>
     <use xlink:href="#STIXGeneral-Regular-72" x="172.199951"/>
     <use xlink:href="#STIXGeneral-Regular-6f" x="205.499939"/>
     <use xlink:href="#STIXGeneral-Regular-6c" x="255.499924"/>
     <use xlink:href="#STIXGeneral-Regular-73" x="283.299911"/>
    </g>
   </g>
  </g>
 </g>
 <defs>
  <clipPath id="p8f51ea78a5">
   <rect x="48.195625" y="28.225313" width="669.6" height="324.790483"/>
  </clipPath>
  <clipPath id="pb1570639e6">
   <rect x="48.195625" y="393.335795" width="669.6" height="78.409517"/>
  </clipPath>
 </defs>
</svg>
