<?xml version="1.0" encoding="utf-8" standalone="no"?>
<!DOCTYPE svg PUBLIC "-//W3C//DTD SVG 1.1//EN"
  "http://www.w3.org/Graphics/SVG/1.1/DTD/svg11.dtd">
<svg xmlns:xlink="http://www.w3.org/1999/xlink" width="744.6235pt" height="463.147041pt" viewBox="0 0 744.6235 463.147041" xmlns="http://www.w3.org/2000/svg" version="1.1">
 <metadata>
  <rdf:RDF xmlns:dc="http://purl.org/dc/elements/1.1/" xmlns:cc="http://creativecommons.org/ns#" xmlns:rdf="http://www.w3.org/1999/02/22-rdf-syntax-ns#">
   <cc:Work>
    <dc:type rdf:resource="http://purl.org/dc/dcmitype/StillImage"/>
    <dc:date>2025-11-04T13:17:47.790057</dc:date>
    <dc:format>image/svg+xml</dc:format>
    <dc:creator>
     <cc:Agent>
      <dc:title>Matplotlib v3.9.4, https://matplotlib.org/</dc:title>
     </cc:Agent>
    </dc:creator>
   </cc:Work>
  </rdf:RDF>
 </metadata>
 <defs>
  <style type="text/css">*{stroke-linejoin: round; stroke-linecap: butt}</style>
 </defs>
 <g id="figure_1">
  <g id="patch_1">
   <path d="M -0 463.147041 
L 744.6235 463.147041 
L 744.6235 0 
L -0 0 
z
" style="fill: #ffffff"/>
  </g>
  <g id="axes_1">
   <g id="patch_2">
    <path d="M 49.9 295.746098 
L 719.5 295.746098 
L 719.5 10.664934 
L 49.9 10.664934 
z
" style="fill: #ffffff"/>
   </g>
   <g id="LineCollection_1">
    <path d="M 70.825 73.602144 
L 70.825 52.681507 
" clip-path="url(#pefdf1024df)" style="fill: none; stroke: #0000ff; stroke-opacity: 0.2; stroke-width: 2"/>
    <path d="M 112.675 73.491075 
L 112.675 52.776548 
" clip-path="url(#pefdf1024df)" style="fill: none; stroke: #0000ff; stroke-opacity: 0.2; stroke-width: 2"/>
    <path d="M 154.525 73.571172 
L 154.525 52.650914 
" clip-path="url(#pefdf1024df)" style="fill: none; stroke: #0000ff; stroke-opacity: 0.2; stroke-width: 2"/>
    <path d="M 196.375 73.467045 
L 196.375 52.753089 
" clip-path="url(#pefdf1024df)" style="fill: none; stroke: #0000ff; stroke-opacity: 0.2; stroke-width: 2"/>
    <path d="M 238.225 73.412067 
L 238.225 52.694169 
" clip-path="url(#pefdf1024df)" style="fill: none; stroke: #0000ff; stroke-opacity: 0.2; stroke-width: 2"/>
    <path d="M 280.075 73.508084 
L 280.075 52.58419 
" clip-path="url(#pefdf1024df)" style="fill: none; stroke: #0000ff; stroke-opacity: 0.2; stroke-width: 2"/>
    <path d="M 321.925 73.387957 
L 321.925 52.670636 
" clip-path="url(#pefdf1024df)" style="fill: none; stroke: #0000ff; stroke-opacity: 0.2; stroke-width: 2"/>
    <path d="M 363.775 73.476999 
L 363.775 52.55349 
" clip-path="url(#pefdf1024df)" style="fill: none; stroke: #0000ff; stroke-opacity: 0.2; stroke-width: 2"/>
    <path d="M 405.625 69.634187 
L 405.625 54.419712 
" clip-path="url(#pefdf1024df)" style="fill: none; stroke: #0000ff; stroke-opacity: 0.2; stroke-width: 2"/>
    <path d="M 447.475 69.492355 
L 447.475 54.545995 
" clip-path="url(#pefdf1024df)" style="fill: none; stroke: #0000ff; stroke-opacity: 0.2; stroke-width: 2"/>
    <path d="M 489.325 69.624087 
L 489.325 54.410185 
" clip-path="url(#pefdf1024df)" style="fill: none; stroke: #0000ff; stroke-opacity: 0.2; stroke-width: 2"/>
    <path d="M 531.175 69.489058 
L 531.175 54.543322 
" clip-path="url(#pefdf1024df)" style="fill: none; stroke: #0000ff; stroke-opacity: 0.2; stroke-width: 2"/>
    <path d="M 573.025 69.46705 
L 573.025 54.518037 
" clip-path="url(#pefdf1024df)" style="fill: none; stroke: #0000ff; stroke-opacity: 0.2; stroke-width: 2"/>
    <path d="M 614.875 69.46375 
L 614.875 54.515365 
" clip-path="url(#pefdf1024df)" style="fill: none; stroke: #0000ff; stroke-opacity: 0.2; stroke-width: 2"/>
    <path d="M 656.725 69.594317 
L 656.725 54.37722 
" clip-path="url(#pefdf1024df)" style="fill: none; stroke: #0000ff; stroke-opacity: 0.2; stroke-width: 2"/>
    <path d="M 698.575 69.584187 
L 698.575 54.367665 
" clip-path="url(#pefdf1024df)" style="fill: none; stroke: #0000ff; stroke-opacity: 0.2; stroke-width: 2"/>
   </g>
   <g id="line2d_1">
    <defs>
     <path id="m39d5cfb19b" d="M 0 1.5 
C 0.397805 1.5 0.77937 1.341951 1.06066 1.06066 
C 1.341951 0.77937 1.5 0.397805 1.5 0 
C 1.5 -0.397805 1.341951 -0.77937 1.06066 -1.06066 
C 0.77937 -1.341951 0.397805 -1.5 0 -1.5 
C -0.397805 -1.5 -0.77937 -1.341951 -1.06066 -1.06066 
C -1.341951 -0.77937 -1.5 -0.397805 -1.5 0 
C -1.5 0.397805 -1.341951 0.77937 -1.06066 1.06066 
C -0.77937 1.341951 -0.397805 1.5 0 1.5 
z
" style="stroke: #0000ff; stroke-opacity: 0.6"/>
    </defs>
    <g clip-path="url(#pefdf1024df)">
     <use xlink:href="#m39d5cfb19b" x="70.825" y="63.141825" style="fill: #0000ff; fill-opacity: 0.6; stroke: #0000ff; stroke-opacity: 0.6"/>
     <use xlink:href="#m39d5cfb19b" x="112.675" y="63.133812" style="fill: #0000ff; fill-opacity: 0.6; stroke: #0000ff; stroke-opacity: 0.6"/>
     <use xlink:href="#m39d5cfb19b" x="154.525" y="63.111043" style="fill: #0000ff; fill-opacity: 0.6; stroke: #0000ff; stroke-opacity: 0.6"/>
     <use xlink:href="#m39d5cfb19b" x="196.375" y="63.110067" style="fill: #0000ff; fill-opacity: 0.6; stroke: #0000ff; stroke-opacity: 0.6"/>
     <use xlink:href="#m39d5cfb19b" x="238.225" y="63.053118" style="fill: #0000ff; fill-opacity: 0.6; stroke: #0000ff; stroke-opacity: 0.6"/>
     <use xlink:href="#m39d5cfb19b" x="280.075" y="63.046137" style="fill: #0000ff; fill-opacity: 0.6; stroke: #0000ff; stroke-opacity: 0.6"/>
     <use xlink:href="#m39d5cfb19b" x="321.925" y="63.029296" style="fill: #0000ff; fill-opacity: 0.6; stroke: #0000ff; stroke-opacity: 0.6"/>
     <use xlink:href="#m39d5cfb19b" x="363.775" y="63.015244" style="fill: #0000ff; fill-opacity: 0.6; stroke: #0000ff; stroke-opacity: 0.6"/>
     <use xlink:href="#m39d5cfb19b" x="405.625" y="62.026949" style="fill: #0000ff; fill-opacity: 0.6; stroke: #0000ff; stroke-opacity: 0.6"/>
     <use xlink:href="#m39d5cfb19b" x="447.475" y="62.019175" style="fill: #0000ff; fill-opacity: 0.6; stroke: #0000ff; stroke-opacity: 0.6"/>
     <use xlink:href="#m39d5cfb19b" x="489.325" y="62.017136" style="fill: #0000ff; fill-opacity: 0.6; stroke: #0000ff; stroke-opacity: 0.6"/>
     <use xlink:href="#m39d5cfb19b" x="531.175" y="62.01619" style="fill: #0000ff; fill-opacity: 0.6; stroke: #0000ff; stroke-opacity: 0.6"/>
     <use xlink:href="#m39d5cfb19b" x="573.025" y="61.992543" style="fill: #0000ff; fill-opacity: 0.6; stroke: #0000ff; stroke-opacity: 0.6"/>
     <use xlink:href="#m39d5cfb19b" x="614.875" y="61.989558" style="fill: #0000ff; fill-opacity: 0.6; stroke: #0000ff; stroke-opacity: 0.6"/>
     <use xlink:href="#m39d5cfb19b" x="656.725" y="61.985768" style="fill: #0000ff; fill-opacity: 0.6; stroke: #0000ff; stroke-opacity: 0.6"/>
     <use xlink:href="#m39d5cfb19b" x="698.575" y="61.975926" style="fill: #0000ff; fill-opacity: 0.6; stroke: #0000ff; stroke-opacity: 0.6"/>
    </g>
   </g>
   <g id="matplotlib.axis_1"/>
   <g id="matplotlib.axis_2">
    <g id="ytick_1">
     <g id="line2d_2">
      <defs>
       <path id="mbc06063d7b" d="M 0 0 
L -3.5 0 
" style="stroke: #000000; stroke-width: 0.8"/>
      </defs>
      <g>
       <use xlink:href="#mbc06063d7b" x="49.9" y="262.515778" style="stroke: #000000; stroke-width: 0.8"/>
      </g>
     </g>
     <g id="text_1">
      <!-- 0.0 -->
      <g transform="translate(22.9 267.979528) scale(0.16 -0.16)">
       <defs>
        <path id="STIXGeneral-Regular-30" d="M 3046 2112 
Q 3046 1683 2963 1302 
Q 2880 922 2717 602 
Q 2554 282 2266 96 
Q 1978 -90 1600 -90 
Q 1210 -90 915 108 
Q 621 307 461 640 
Q 301 973 227 1350 
Q 154 1728 154 2150 
Q 154 2746 301 3222 
Q 448 3699 790 4012 
Q 1133 4326 1626 4326 
Q 2253 4326 2649 3712 
Q 3046 3098 3046 2112 
z
M 2432 2080 
Q 2432 3091 2217 3625 
Q 2003 4160 1587 4160 
Q 1190 4160 979 3622 
Q 768 3085 768 2106 
Q 768 1120 979 598 
Q 1190 77 1600 77 
Q 2003 77 2217 598 
Q 2432 1120 2432 2080 
z
" transform="scale(0.015625)"/>
        <path id="STIXGeneral-Regular-2e" d="M 1158 275 
Q 1158 134 1052 32 
Q 947 -70 800 -70 
Q 653 -70 550 32 
Q 448 134 448 281 
Q 448 429 553 534 
Q 659 640 806 640 
Q 947 640 1052 531 
Q 1158 422 1158 275 
z
" transform="scale(0.015625)"/>
       </defs>
       <use xlink:href="#STIXGeneral-Regular-30"/>
       <use xlink:href="#STIXGeneral-Regular-2e" x="49.999985"/>
       <use xlink:href="#STIXGeneral-Regular-30" x="74.999969"/>
      </g>
     </g>
    </g>
    <g id="ytick_2">
     <g id="line2d_3">
      <g>
       <use xlink:href="#mbc06063d7b" x="49.9" y="212.545373" style="stroke: #000000; stroke-width: 0.8"/>
      </g>
     </g>
     <g id="text_2">
      <!-- 0.1 -->
      <g transform="translate(22.9 218.009123) scale(0.16 -0.16)">
       <defs>
        <path id="STIXGeneral-Regular-31" d="M 2522 0 
L 755 0 
L 755 96 
Q 1107 115 1235 227 
Q 1363 339 1363 608 
L 1363 3482 
Q 1363 3795 1171 3795 
Q 1082 3795 883 3718 
L 710 3654 
L 710 3744 
L 1856 4326 
L 1914 4307 
L 1914 486 
Q 1914 275 2042 185 
Q 2170 96 2522 96 
L 2522 0 
z
" transform="scale(0.015625)"/>
       </defs>
       <use xlink:href="#STIXGeneral-Regular-30"/>
       <use xlink:href="#STIXGeneral-Regular-2e" x="49.999985"/>
       <use xlink:href="#STIXGeneral-Regular-31" x="74.999969"/>
      </g>
     </g>
    </g>
    <g id="ytick_3">
     <g id="line2d_4">
      <g>
       <use xlink:href="#mbc06063d7b" x="49.9" y="162.574967" style="stroke: #000000; stroke-width: 0.8"/>
      </g>
     </g>
     <g id="text_3">
      <!-- 0.2 -->
      <g transform="translate(22.9 168.038717) scale(0.16 -0.16)">
       <defs>
        <path id="STIXGeneral-Regular-32" d="M 3034 877 
L 2688 0 
L 186 0 
L 186 77 
L 1325 1286 
Q 1773 1754 1965 2144 
Q 2157 2534 2157 2950 
Q 2157 3379 1920 3616 
Q 1683 3853 1267 3853 
Q 922 3853 720 3673 
Q 518 3494 326 3021 
L 192 3053 
Q 301 3648 630 3987 
Q 960 4326 1523 4326 
Q 2054 4326 2380 4006 
Q 2707 3686 2707 3200 
Q 2707 2477 1888 1613 
L 832 486 
L 2330 486 
Q 2541 486 2665 569 
Q 2790 653 2944 915 
L 3034 877 
z
" transform="scale(0.015625)"/>
       </defs>
       <use xlink:href="#STIXGeneral-Regular-30"/>
       <use xlink:href="#STIXGeneral-Regular-2e" x="49.999985"/>
       <use xlink:href="#STIXGeneral-Regular-32" x="74.999969"/>
      </g>
     </g>
    </g>
    <g id="ytick_4">
     <g id="line2d_5">
      <g>
       <use xlink:href="#mbc06063d7b" x="49.9" y="112.604561" style="stroke: #000000; stroke-width: 0.8"/>
      </g>
     </g>
     <g id="text_4">
      <!-- 0.3 -->
      <g transform="translate(22.9 118.068311) scale(0.16 -0.16)">
       <defs>
        <path id="STIXGeneral-Regular-33" d="M 390 3264 
L 288 3290 
Q 435 3770 748 4048 
Q 1062 4326 1542 4326 
Q 1990 4326 2265 4083 
Q 2541 3840 2541 3450 
Q 2541 2925 1946 2566 
Q 2298 2413 2477 2227 
Q 2758 1914 2758 1402 
Q 2758 890 2464 506 
Q 2246 211 1840 60 
Q 1434 -90 979 -90 
Q 262 -90 262 275 
Q 262 378 339 442 
Q 416 506 525 506 
Q 685 506 915 339 
Q 1197 141 1466 141 
Q 1818 141 2058 425 
Q 2298 710 2298 1120 
Q 2298 1856 1632 2048 
Q 1434 2112 979 2112 
L 979 2202 
Q 1338 2323 1517 2432 
Q 2035 2726 2035 3290 
Q 2035 3610 1852 3776 
Q 1670 3942 1344 3942 
Q 768 3942 390 3264 
z
" transform="scale(0.015625)"/>
       </defs>
       <use xlink:href="#STIXGeneral-Regular-30"/>
       <use xlink:href="#STIXGeneral-Regular-2e" x="49.999985"/>
       <use xlink:href="#STIXGeneral-Regular-33" x="74.999969"/>
      </g>
     </g>
    </g>
    <g id="ytick_5">
     <g id="line2d_6">
      <g>
       <use xlink:href="#mbc06063d7b" x="49.9" y="62.634156" style="stroke: #000000; stroke-width: 0.8"/>
      </g>
     </g>
     <g id="text_5">
      <!-- 0.4 -->
      <g transform="translate(22.9 68.097906) scale(0.16 -0.16)">
       <defs>
        <path id="STIXGeneral-Regular-34" d="M 3027 1069 
L 2368 1069 
L 2368 0 
L 1869 0 
L 1869 1069 
L 77 1069 
L 77 1478 
L 2086 4326 
L 2368 4326 
L 2368 1478 
L 3027 1478 
L 3027 1069 
z
M 1869 1478 
L 1869 3674 
L 333 1478 
L 1869 1478 
z
" transform="scale(0.015625)"/>
       </defs>
       <use xlink:href="#STIXGeneral-Regular-30"/>
       <use xlink:href="#STIXGeneral-Regular-2e" x="49.999985"/>
       <use xlink:href="#STIXGeneral-Regular-34" x="74.999969"/>
      </g>
     </g>
    </g>
    <g id="ytick_6">
     <g id="line2d_7">
      <g>
       <use xlink:href="#mbc06063d7b" x="49.9" y="12.66375" style="stroke: #000000; stroke-width: 0.8"/>
      </g>
     </g>
     <g id="text_6">
      <!-- 0.5 -->
      <g transform="translate(22.9 18.1275) scale(0.16 -0.16)">
       <defs>
        <path id="STIXGeneral-Regular-35" d="M 2803 4358 
L 2573 3814 
Q 2534 3731 2400 3731 
L 1158 3731 
L 902 3187 
Q 1606 3053 1920 2896 
Q 2234 2739 2502 2368 
Q 2726 2061 2726 1555 
Q 2726 1094 2576 780 
Q 2426 467 2099 224 
Q 1664 -90 1011 -90 
Q 646 -90 422 19 
Q 198 128 198 307 
Q 198 550 486 550 
Q 717 550 960 352 
Q 1210 147 1414 147 
Q 1747 147 2012 480 
Q 2278 813 2278 1229 
Q 2278 1843 1850 2189 
Q 1293 2637 486 2637 
Q 410 2637 410 2688 
L 416 2720 
L 1114 4237 
L 2438 4237 
Q 2547 4237 2608 4269 
Q 2669 4301 2746 4403 
L 2803 4358 
z
" transform="scale(0.015625)"/>
       </defs>
       <use xlink:href="#STIXGeneral-Regular-30"/>
       <use xlink:href="#STIXGeneral-Regular-2e" x="49.999985"/>
       <use xlink:href="#STIXGeneral-Regular-35" x="74.999969"/>
      </g>
     </g>
    </g>
    <g id="ytick_7">
     <g id="line2d_8">
      <defs>
       <path id="mbd98b0d4ea" d="M 0 0 
L -2 0 
" style="stroke: #000000; stroke-width: 0.6"/>
      </defs>
      <g>
       <use xlink:href="#mbd98b0d4ea" x="49.9" y="292.498022" style="stroke: #000000; stroke-width: 0.6"/>
      </g>
     </g>
    </g>
    <g id="ytick_8">
     <g id="line2d_9">
      <g>
       <use xlink:href="#mbd98b0d4ea" x="49.9" y="282.503941" style="stroke: #000000; stroke-width: 0.6"/>
      </g>
     </g>
    </g>
    <g id="ytick_9">
     <g id="line2d_10">
      <g>
       <use xlink:href="#mbd98b0d4ea" x="49.9" y="272.509859" style="stroke: #000000; stroke-width: 0.6"/>
      </g>
     </g>
    </g>
    <g id="ytick_10">
     <g id="line2d_11">
      <g>
       <use xlink:href="#mbd98b0d4ea" x="49.9" y="252.521697" style="stroke: #000000; stroke-width: 0.6"/>
      </g>
     </g>
    </g>
    <g id="ytick_11">
     <g id="line2d_12">
      <g>
       <use xlink:href="#mbd98b0d4ea" x="49.9" y="242.527616" style="stroke: #000000; stroke-width: 0.6"/>
      </g>
     </g>
    </g>
    <g id="ytick_12">
     <g id="line2d_13">
      <g>
       <use xlink:href="#mbd98b0d4ea" x="49.9" y="232.533535" style="stroke: #000000; stroke-width: 0.6"/>
      </g>
     </g>
    </g>
    <g id="ytick_13">
     <g id="line2d_14">
      <g>
       <use xlink:href="#mbd98b0d4ea" x="49.9" y="222.539454" style="stroke: #000000; stroke-width: 0.6"/>
      </g>
     </g>
    </g>
    <g id="ytick_14">
     <g id="line2d_15">
      <g>
       <use xlink:href="#mbd98b0d4ea" x="49.9" y="202.551292" style="stroke: #000000; stroke-width: 0.6"/>
      </g>
     </g>
    </g>
    <g id="ytick_15">
     <g id="line2d_16">
      <g>
       <use xlink:href="#mbd98b0d4ea" x="49.9" y="192.55721" style="stroke: #000000; stroke-width: 0.6"/>
      </g>
     </g>
    </g>
    <g id="ytick_16">
     <g id="line2d_17">
      <g>
       <use xlink:href="#mbd98b0d4ea" x="49.9" y="182.563129" style="stroke: #000000; stroke-width: 0.6"/>
      </g>
     </g>
    </g>
    <g id="ytick_17">
     <g id="line2d_18">
      <g>
       <use xlink:href="#mbd98b0d4ea" x="49.9" y="172.569048" style="stroke: #000000; stroke-width: 0.6"/>
      </g>
     </g>
    </g>
    <g id="ytick_18">
     <g id="line2d_19">
      <g>
       <use xlink:href="#mbd98b0d4ea" x="49.9" y="152.580886" style="stroke: #000000; stroke-width: 0.6"/>
      </g>
     </g>
    </g>
    <g id="ytick_19">
     <g id="line2d_20">
      <g>
       <use xlink:href="#mbd98b0d4ea" x="49.9" y="142.586805" style="stroke: #000000; stroke-width: 0.6"/>
      </g>
     </g>
    </g>
    <g id="ytick_20">
     <g id="line2d_21">
      <g>
       <use xlink:href="#mbd98b0d4ea" x="49.9" y="132.592724" style="stroke: #000000; stroke-width: 0.6"/>
      </g>
     </g>
    </g>
    <g id="ytick_21">
     <g id="line2d_22">
      <g>
       <use xlink:href="#mbd98b0d4ea" x="49.9" y="122.598642" style="stroke: #000000; stroke-width: 0.6"/>
      </g>
     </g>
    </g>
    <g id="ytick_22">
     <g id="line2d_23">
      <g>
       <use xlink:href="#mbd98b0d4ea" x="49.9" y="102.61048" style="stroke: #000000; stroke-width: 0.6"/>
      </g>
     </g>
    </g>
    <g id="ytick_23">
     <g id="line2d_24">
      <g>
       <use xlink:href="#mbd98b0d4ea" x="49.9" y="92.616399" style="stroke: #000000; stroke-width: 0.6"/>
      </g>
     </g>
    </g>
    <g id="ytick_24">
     <g id="line2d_25">
      <g>
       <use xlink:href="#mbd98b0d4ea" x="49.9" y="82.622318" style="stroke: #000000; stroke-width: 0.6"/>
      </g>
     </g>
    </g>
    <g id="ytick_25">
     <g id="line2d_26">
      <g>
       <use xlink:href="#mbd98b0d4ea" x="49.9" y="72.628237" style="stroke: #000000; stroke-width: 0.6"/>
      </g>
     </g>
    </g>
    <g id="ytick_26">
     <g id="line2d_27">
      <g>
       <use xlink:href="#mbd98b0d4ea" x="49.9" y="52.640075" style="stroke: #000000; stroke-width: 0.6"/>
      </g>
     </g>
    </g>
    <g id="ytick_27">
     <g id="line2d_28">
      <g>
       <use xlink:href="#mbd98b0d4ea" x="49.9" y="42.645993" style="stroke: #000000; stroke-width: 0.6"/>
      </g>
     </g>
    </g>
    <g id="ytick_28">
     <g id="line2d_29">
      <g>
       <use xlink:href="#mbd98b0d4ea" x="49.9" y="32.651912" style="stroke: #000000; stroke-width: 0.6"/>
      </g>
     </g>
    </g>
    <g id="ytick_29">
     <g id="line2d_30">
      <g>
       <use xlink:href="#mbd98b0d4ea" x="49.9" y="22.657831" style="stroke: #000000; stroke-width: 0.6"/>
      </g>
     </g>
    </g>
    <g id="text_7">
     <!-- Coefficient -->
     <g transform="translate(16.078594 182.449422) rotate(-90) scale(0.13 -0.13)">
      <defs>
       <path id="STIXGeneral-Regular-43" d="M 3930 838 
L 4051 723 
Q 3482 -90 2304 -90 
Q 1376 -90 794 480 
Q 179 1082 179 2080 
Q 179 3014 755 3661 
Q 1357 4326 2310 4326 
Q 2720 4326 3072 4230 
Q 3475 4115 3514 4115 
Q 3725 4115 3782 4326 
L 3910 4326 
L 3968 2874 
L 3821 2874 
Q 3718 3334 3488 3584 
Q 3034 4070 2458 4070 
Q 1747 4070 1334 3548 
Q 922 3027 922 2182 
Q 922 1152 1382 653 
Q 1811 192 2522 192 
Q 2944 192 3251 339 
Q 3558 486 3930 838 
z
" transform="scale(0.015625)"/>
       <path id="STIXGeneral-Regular-6f" d="M 3008 1478 
Q 3008 806 2608 371 
Q 2208 -64 1568 -64 
Q 979 -64 582 368 
Q 186 800 186 1459 
Q 186 2125 582 2534 
Q 979 2944 1626 2944 
Q 2221 2944 2614 2537 
Q 3008 2131 3008 1478 
z
M 2432 1306 
Q 2432 2035 2112 2445 
Q 1856 2765 1504 2765 
Q 1171 2765 966 2493 
Q 762 2221 762 1747 
Q 762 928 1101 435 
Q 1318 115 1677 115 
Q 2029 115 2230 432 
Q 2432 749 2432 1306 
z
" transform="scale(0.015625)"/>
       <path id="STIXGeneral-Regular-65" d="M 2611 1050 
L 2714 1005 
Q 2330 -64 1376 -64 
Q 813 -64 486 329 
Q 160 723 160 1389 
Q 160 2074 525 2509 
Q 890 2944 1485 2944 
Q 2061 2944 2374 2502 
Q 2560 2246 2592 1773 
L 621 1773 
Q 646 1370 700 1158 
Q 755 947 915 730 
Q 1184 378 1626 378 
Q 1939 378 2153 531 
Q 2368 685 2611 1050 
z
M 634 1978 
L 1939 1978 
Q 1882 2381 1750 2547 
Q 1619 2714 1312 2714 
Q 1043 2714 864 2525 
Q 685 2336 634 1978 
z
" transform="scale(0.015625)"/>
       <path id="STIXGeneral-Regular-66" d="M 134 2880 
L 659 2880 
Q 666 3264 710 3478 
Q 755 3693 883 3910 
Q 1152 4371 1786 4371 
Q 2074 4371 2262 4259 
Q 2451 4147 2451 3974 
Q 2451 3866 2374 3789 
Q 2298 3712 2182 3712 
Q 2029 3712 1894 3942 
Q 1741 4192 1555 4192 
Q 1197 4192 1197 3622 
L 1197 2880 
L 1978 2880 
L 1978 2675 
L 1197 2675 
L 1197 666 
Q 1197 307 1299 208 
Q 1402 109 1792 96 
L 1792 0 
L 128 0 
L 128 96 
Q 474 115 566 214 
Q 659 314 659 666 
L 659 2675 
L 134 2675 
L 134 2880 
z
" transform="scale(0.015625)"/>
       <path id="STIXGeneral-Regular-69" d="M 1152 4045 
Q 1152 3904 1056 3811 
Q 960 3718 819 3718 
Q 685 3718 592 3811 
Q 499 3904 499 4045 
Q 499 4179 595 4275 
Q 691 4371 826 4371 
Q 966 4371 1059 4275 
Q 1152 4179 1152 4045 
z
M 1619 0 
L 102 0 
L 102 96 
Q 435 115 521 211 
Q 608 307 608 666 
L 608 2118 
Q 608 2342 563 2432 
Q 518 2522 397 2522 
Q 243 2522 128 2490 
L 128 2592 
L 1120 2944 
L 1146 2918 
L 1146 672 
Q 1146 314 1226 218 
Q 1306 122 1619 96 
L 1619 0 
z
" transform="scale(0.015625)"/>
       <path id="STIXGeneral-Regular-63" d="M 2547 998 
L 2637 941 
Q 2362 403 2112 205 
Q 1786 -64 1376 -64 
Q 845 -64 502 336 
Q 160 736 160 1357 
Q 160 2170 698 2618 
Q 1094 2944 1562 2944 
Q 1965 2944 2256 2749 
Q 2547 2554 2547 2285 
Q 2547 2176 2457 2096 
Q 2368 2016 2246 2016 
Q 2022 2016 1939 2310 
L 1901 2451 
Q 1850 2630 1773 2694 
Q 1696 2758 1523 2758 
Q 1133 2758 893 2451 
Q 653 2144 653 1645 
Q 653 1094 928 745 
Q 1203 397 1645 397 
Q 1920 397 2118 528 
Q 2317 659 2547 998 
z
" transform="scale(0.015625)"/>
       <path id="STIXGeneral-Regular-6e" d="M 3104 0 
L 1773 0 
L 1779 96 
Q 2016 115 2096 233 
Q 2176 352 2176 672 
L 2176 1946 
Q 2176 2592 1709 2592 
Q 1549 2592 1408 2515 
Q 1267 2438 1050 2227 
L 1050 461 
Q 1050 269 1136 192 
Q 1222 115 1466 96 
L 1466 0 
L 115 0 
L 115 96 
Q 358 115 435 214 
Q 512 314 512 602 
L 512 2157 
Q 512 2394 467 2483 
Q 422 2573 288 2573 
Q 160 2573 102 2547 
L 102 2656 
Q 550 2784 979 2944 
L 1030 2925 
L 1030 2426 
L 1037 2426 
Q 1491 2944 1958 2944 
Q 2323 2944 2518 2688 
Q 2714 2432 2714 1958 
L 2714 544 
Q 2714 288 2790 205 
Q 2867 122 3104 96 
L 3104 0 
z
" transform="scale(0.015625)"/>
       <path id="STIXGeneral-Regular-74" d="M 1702 493 
L 1786 422 
Q 1478 -64 1011 -64 
Q 448 -64 448 749 
L 448 2675 
L 109 2675 
Q 83 2694 83 2720 
Q 83 2771 192 2842 
Q 435 2982 813 3526 
Q 826 3546 874 3606 
Q 922 3667 941 3706 
Q 986 3706 986 3622 
L 986 2880 
L 1632 2880 
L 1632 2675 
L 986 2675 
L 986 845 
Q 986 538 1062 403 
Q 1139 269 1318 269 
Q 1510 269 1702 493 
z
" transform="scale(0.015625)"/>
      </defs>
      <use xlink:href="#STIXGeneral-Regular-43"/>
      <use xlink:href="#STIXGeneral-Regular-6f" x="66.699997"/>
      <use xlink:href="#STIXGeneral-Regular-65" x="116.699982"/>
      <use xlink:href="#STIXGeneral-Regular-66" x="161.099976"/>
      <use xlink:href="#STIXGeneral-Regular-66" x="194.399963"/>
      <use xlink:href="#STIXGeneral-Regular-69" x="227.699951"/>
      <use xlink:href="#STIXGeneral-Regular-63" x="255.499939"/>
      <use xlink:href="#STIXGeneral-Regular-69" x="299.899933"/>
      <use xlink:href="#STIXGeneral-Regular-65" x="327.699921"/>
      <use xlink:href="#STIXGeneral-Regular-6e" x="372.099915"/>
      <use xlink:href="#STIXGeneral-Regular-74" x="422.099899"/>
     </g>
    </g>
   </g>
   <g id="line2d_31">
    <path d="M 49.9 62.521097 
L 719.5 62.521097 
" clip-path="url(#pefdf1024df)" style="fill: none; stroke-dasharray: 3.6,1.5; stroke-dashoffset: 0; stroke: #000000; stroke-width: 0.3"/>
   </g>
   <g id="line2d_32">
    <path d="M 70.825 290.067286 
L 112.675 290.0753 
L 154.525 290.098069 
L 196.375 290.099045 
L 238.225 290.155993 
L 280.075 290.162974 
L 321.925 290.179815 
L 363.775 290.193867 
L 405.625 273.672279 
L 447.475 273.680053 
L 489.325 273.682092 
L 531.175 273.683038 
L 573.025 273.706685 
L 614.875 273.70967 
L 656.725 273.71346 
L 698.575 273.723302 
" clip-path="url(#pefdf1024df)" style="fill: none; stroke-dasharray: 7.4,3.2; stroke-dashoffset: 0; stroke: #000000; stroke-opacity: 0.1; stroke-width: 2"/>
   </g>
   <g id="line2d_33">
    <path d="M 70.825 240.151084 
L 112.675 240.159097 
L 154.525 240.181866 
L 196.375 240.182842 
L 238.225 240.239791 
L 280.075 240.246772 
L 321.925 240.263613 
L 363.775 240.277665 
L 405.625 243.16182 
L 447.475 243.169594 
L 489.325 243.171633 
L 531.175 243.17258 
L 573.025 243.196226 
L 614.875 243.199212 
L 656.725 243.203001 
L 698.575 243.212843 
" clip-path="url(#pefdf1024df)" style="fill: none; stroke-dasharray: 7.4,3.2; stroke-dashoffset: 0; stroke: #000000; stroke-opacity: 0.1; stroke-width: 2"/>
   </g>
   <g id="line2d_34">
    <path d="M 70.825 259.573088 
L 112.675 259.581101 
L 154.525 259.60387 
L 196.375 259.604846 
L 238.225 259.661795 
L 280.075 259.668776 
L 321.925 259.685617 
L 363.775 259.699669 
L 405.625 259.478767 
L 447.475 259.486542 
L 489.325 259.48858 
L 531.175 259.489527 
L 573.025 259.513173 
L 614.875 259.516159 
L 656.725 259.519948 
L 698.575 259.52979 
" clip-path="url(#pefdf1024df)" style="fill: none; stroke-dasharray: 12.8,3.2,2,3.2; stroke-dashoffset: 0; stroke: #000000; stroke-opacity: 0.3; stroke-width: 2"/>
   </g>
   <g id="patch_3">
    <path d="M 49.9 295.746098 
L 49.9 10.664934 
" style="fill: none; stroke: #000000; stroke-width: 0.8; stroke-linejoin: miter; stroke-linecap: square"/>
   </g>
   <g id="text_8">
    <!-- Median -->
    <g style="opacity: 0.6" transform="translate(86.4 57.521097) scale(0.12 -0.12)">
     <defs>
      <path id="STIXGeneral-Regular-4d" d="M 5530 0 
L 3738 0 
L 3738 122 
Q 4115 147 4214 265 
Q 4314 384 4314 787 
L 4314 3661 
L 2682 0 
L 2592 0 
L 979 3514 
L 979 966 
Q 979 448 1088 294 
Q 1197 141 1574 122 
L 1574 0 
L 77 0 
L 77 122 
Q 358 141 480 205 
Q 602 269 650 432 
Q 698 595 698 966 
L 698 3514 
Q 698 3878 589 3984 
Q 480 4090 90 4115 
L 90 4237 
L 1357 4237 
L 2835 1024 
L 4250 4237 
L 5523 4237 
L 5523 4115 
Q 5178 4109 5072 3993 
Q 4966 3878 4966 3520 
L 4966 717 
Q 4966 378 5072 262 
Q 5178 147 5530 122 
L 5530 0 
z
" transform="scale(0.015625)"/>
      <path id="STIXGeneral-Regular-64" d="M 3142 269 
L 2202 -64 
L 2176 -45 
L 2176 365 
Q 1869 -64 1357 -64 
Q 826 -64 499 317 
Q 173 698 173 1312 
Q 173 1990 563 2467 
Q 954 2944 1504 2944 
Q 1850 2944 2176 2669 
L 2176 3667 
Q 2176 3866 2118 3930 
Q 2061 3994 1882 3994 
Q 1792 3994 1741 3987 
L 1741 4090 
Q 2323 4243 2682 4371 
L 2714 4358 
L 2714 730 
Q 2714 506 2768 435 
Q 2822 365 2995 365 
Q 3034 365 3142 371 
L 3142 269 
z
M 2176 653 
L 2176 2125 
Q 2176 2381 1981 2573 
Q 1786 2765 1523 2765 
Q 1158 2765 940 2438 
Q 723 2112 723 1568 
Q 723 979 963 624 
Q 1203 269 1606 269 
Q 1907 269 2080 474 
Q 2176 582 2176 653 
z
" transform="scale(0.015625)"/>
      <path id="STIXGeneral-Regular-61" d="M 2829 422 
L 2829 243 
Q 2586 -64 2253 -64 
Q 1888 -64 1843 403 
L 1837 403 
Q 1427 -64 909 -64 
Q 608 -64 422 112 
Q 237 288 237 602 
Q 237 1050 685 1350 
Q 992 1555 1837 1869 
L 1837 2214 
Q 1837 2502 1699 2646 
Q 1562 2790 1338 2790 
Q 1146 2790 1018 2697 
Q 890 2605 890 2477 
Q 890 2419 909 2348 
Q 928 2278 928 2208 
Q 928 2112 841 2029 
Q 755 1946 634 1946 
Q 525 1946 441 2029 
Q 358 2112 358 2240 
Q 358 2547 685 2752 
Q 986 2944 1421 2944 
Q 1939 2944 2176 2656 
Q 2291 2522 2323 2384 
Q 2355 2246 2355 1946 
L 2355 723 
Q 2355 301 2554 301 
Q 2682 301 2829 422 
z
M 1837 813 
L 1837 1715 
Q 1248 1510 1018 1293 
Q 800 1094 800 800 
Q 800 557 921 432 
Q 1043 307 1242 307 
Q 1453 307 1613 410 
Q 1747 506 1792 589 
Q 1837 672 1837 813 
z
" transform="scale(0.015625)"/>
     </defs>
     <use xlink:href="#STIXGeneral-Regular-4d"/>
     <use xlink:href="#STIXGeneral-Regular-65" x="88.899994"/>
     <use xlink:href="#STIXGeneral-Regular-64" x="133.299988"/>
     <use xlink:href="#STIXGeneral-Regular-69" x="183.299973"/>
     <use xlink:href="#STIXGeneral-Regular-61" x="211.09996"/>
     <use xlink:href="#STIXGeneral-Regular-6e" x="255.499954"/>
    </g>
   </g>
   <g id="text_9">
    <!-- Median under null -->
    <g style="fill: #808080" transform="translate(518.4 254.52979) scale(0.11 -0.11)">
     <defs>
      <path id="STIXGeneral-Regular-20" transform="scale(0.015625)"/>
      <path id="STIXGeneral-Regular-75" d="M 3072 320 
L 3072 230 
Q 2573 96 2195 -58 
L 2163 -38 
L 2163 486 
L 2150 486 
Q 1747 -64 1235 -64 
Q 870 -64 662 160 
Q 454 384 454 755 
L 454 2362 
Q 454 2598 371 2688 
Q 288 2778 58 2790 
L 58 2880 
L 992 2880 
L 992 813 
Q 992 595 1123 451 
Q 1254 307 1446 307 
Q 1760 307 1984 506 
Q 2067 582 2099 649 
Q 2131 717 2131 877 
L 2131 2355 
Q 2131 2605 2041 2678 
Q 1952 2752 1658 2771 
L 1658 2880 
L 2669 2880 
L 2669 685 
Q 2669 461 2742 390 
Q 2816 320 3034 320 
L 3072 320 
z
" transform="scale(0.015625)"/>
      <path id="STIXGeneral-Regular-72" d="M 1024 2931 
L 1024 2342 
Q 1267 2688 1430 2816 
Q 1594 2944 1792 2944 
Q 1958 2944 2051 2854 
Q 2144 2765 2144 2605 
Q 2144 2470 2077 2393 
Q 2010 2317 1894 2317 
Q 1773 2317 1638 2445 
Q 1536 2541 1472 2541 
Q 1338 2541 1181 2355 
Q 1024 2170 1024 2016 
L 1024 576 
Q 1024 301 1133 205 
Q 1242 109 1568 96 
L 1568 0 
L 32 0 
L 32 96 
Q 339 154 412 224 
Q 486 294 486 538 
L 486 2138 
Q 486 2349 438 2435 
Q 390 2522 269 2522 
Q 166 2522 45 2496 
L 45 2598 
Q 448 2726 992 2944 
L 1024 2931 
z
" transform="scale(0.015625)"/>
      <path id="STIXGeneral-Regular-6c" d="M 1645 0 
L 134 0 
L 134 96 
Q 435 122 531 221 
Q 627 320 627 589 
L 627 3590 
Q 627 3821 569 3910 
Q 512 4000 358 4000 
Q 224 4000 122 3987 
L 122 4090 
Q 730 4237 1133 4371 
L 1165 4346 
L 1165 557 
Q 1165 288 1254 201 
Q 1344 115 1645 96 
L 1645 0 
z
" transform="scale(0.015625)"/>
     </defs>
     <use xlink:href="#STIXGeneral-Regular-4d"/>
     <use xlink:href="#STIXGeneral-Regular-65" x="88.899994"/>
     <use xlink:href="#STIXGeneral-Regular-64" x="133.299988"/>
     <use xlink:href="#STIXGeneral-Regular-69" x="183.299973"/>
     <use xlink:href="#STIXGeneral-Regular-61" x="211.09996"/>
     <use xlink:href="#STIXGeneral-Regular-6e" x="255.499954"/>
     <use xlink:href="#STIXGeneral-Regular-20" x="305.499939"/>
     <use xlink:href="#STIXGeneral-Regular-75" x="330.499924"/>
     <use xlink:href="#STIXGeneral-Regular-6e" x="380.499908"/>
     <use xlink:href="#STIXGeneral-Regular-64" x="430.499893"/>
     <use xlink:href="#STIXGeneral-Regular-65" x="480.499878"/>
     <use xlink:href="#STIXGeneral-Regular-72" x="524.899872"/>
     <use xlink:href="#STIXGeneral-Regular-20" x="558.19986"/>
     <use xlink:href="#STIXGeneral-Regular-6e" x="583.199844"/>
     <use xlink:href="#STIXGeneral-Regular-75" x="633.199829"/>
     <use xlink:href="#STIXGeneral-Regular-6c" x="683.199814"/>
     <use xlink:href="#STIXGeneral-Regular-6c" x="710.999802"/>
    </g>
   </g>
  </g>
  <g id="axes_2">
   <g id="patch_4">
    <path d="M 49.9 368.81456 
L 719.5 368.81456 
L 719.5 321.83551 
L 49.9 321.83551 
z
" style="fill: #ffffff"/>
   </g>
   <g id="patch_5">
    <path d="M 60.3625 365.458914 
L 81.2875 365.458914 
L 81.2875 358.747621 
L 60.3625 358.747621 
z
" clip-path="url(#p82b83f1383)" style="fill: #f2f2f2; stroke: #f2f2f2; stroke-linejoin: miter"/>
   </g>
   <g id="patch_6">
    <path d="M 102.2125 365.458914 
L 123.1375 365.458914 
L 123.1375 358.747621 
L 102.2125 358.747621 
z
" clip-path="url(#p82b83f1383)" style="fill: #f2f2f2; stroke: #f2f2f2; stroke-linejoin: miter"/>
   </g>
   <g id="patch_7">
    <path d="M 144.0625 365.458914 
L 164.9875 365.458914 
L 164.9875 358.747621 
L 144.0625 358.747621 
z
" clip-path="url(#p82b83f1383)" style="fill: #f2f2f2; stroke: #f2f2f2; stroke-linejoin: miter"/>
   </g>
   <g id="patch_8">
    <path d="M 185.9125 365.458914 
L 206.8375 365.458914 
L 206.8375 358.747621 
L 185.9125 358.747621 
z
" clip-path="url(#p82b83f1383)" style="fill: #f2f2f2; stroke: #f2f2f2; stroke-linejoin: miter"/>
   </g>
   <g id="patch_9">
    <path d="M 227.7625 365.458914 
L 248.6875 365.458914 
L 248.6875 358.747621 
L 227.7625 358.747621 
z
" clip-path="url(#p82b83f1383)" style="fill: #f2f2f2; stroke: #f2f2f2; stroke-linejoin: miter"/>
   </g>
   <g id="patch_10">
    <path d="M 269.6125 365.458914 
L 290.5375 365.458914 
L 290.5375 358.747621 
L 269.6125 358.747621 
z
" clip-path="url(#p82b83f1383)" style="fill: #f2f2f2; stroke: #f2f2f2; stroke-linejoin: miter"/>
   </g>
   <g id="patch_11">
    <path d="M 311.4625 365.458914 
L 332.3875 365.458914 
L 332.3875 358.747621 
L 311.4625 358.747621 
z
" clip-path="url(#p82b83f1383)" style="fill: #f2f2f2; stroke: #f2f2f2; stroke-linejoin: miter"/>
   </g>
   <g id="patch_12">
    <path d="M 353.3125 365.458914 
L 374.2375 365.458914 
L 374.2375 358.747621 
L 353.3125 358.747621 
z
" clip-path="url(#p82b83f1383)" style="fill: #f2f2f2; stroke: #f2f2f2; stroke-linejoin: miter"/>
   </g>
   <g id="patch_13">
    <path d="M 395.1625 365.458914 
L 416.0875 365.458914 
L 416.0875 358.747621 
L 395.1625 358.747621 
z
" clip-path="url(#p82b83f1383)" style="fill: #0000ff; opacity: 0.4; stroke: #0000ff; stroke-linejoin: miter"/>
   </g>
   <g id="patch_14">
    <path d="M 437.0125 365.458914 
L 457.9375 365.458914 
L 457.9375 358.747621 
L 437.0125 358.747621 
z
" clip-path="url(#p82b83f1383)" style="fill: #0000ff; opacity: 0.4; stroke: #0000ff; stroke-linejoin: miter"/>
   </g>
   <g id="patch_15">
    <path d="M 478.8625 365.458914 
L 499.7875 365.458914 
L 499.7875 358.747621 
L 478.8625 358.747621 
z
" clip-path="url(#p82b83f1383)" style="fill: #0000ff; opacity: 0.4; stroke: #0000ff; stroke-linejoin: miter"/>
   </g>
   <g id="patch_16">
    <path d="M 520.7125 365.458914 
L 541.6375 365.458914 
L 541.6375 358.747621 
L 520.7125 358.747621 
z
" clip-path="url(#p82b83f1383)" style="fill: #0000ff; opacity: 0.4; stroke: #0000ff; stroke-linejoin: miter"/>
   </g>
   <g id="patch_17">
    <path d="M 562.5625 365.458914 
L 583.4875 365.458914 
L 583.4875 358.747621 
L 562.5625 358.747621 
z
" clip-path="url(#p82b83f1383)" style="fill: #0000ff; opacity: 0.4; stroke: #0000ff; stroke-linejoin: miter"/>
   </g>
   <g id="patch_18">
    <path d="M 604.4125 365.458914 
L 625.3375 365.458914 
L 625.3375 358.747621 
L 604.4125 358.747621 
z
" clip-path="url(#p82b83f1383)" style="fill: #0000ff; opacity: 0.4; stroke: #0000ff; stroke-linejoin: miter"/>
   </g>
   <g id="patch_19">
    <path d="M 646.2625 365.458914 
L 667.1875 365.458914 
L 667.1875 358.747621 
L 646.2625 358.747621 
z
" clip-path="url(#p82b83f1383)" style="fill: #0000ff; opacity: 0.4; stroke: #0000ff; stroke-linejoin: miter"/>
   </g>
   <g id="patch_20">
    <path d="M 688.1125 365.458914 
L 709.0375 365.458914 
L 709.0375 358.747621 
L 688.1125 358.747621 
z
" clip-path="url(#p82b83f1383)" style="fill: #0000ff; opacity: 0.4; stroke: #0000ff; stroke-linejoin: miter"/>
   </g>
   <g id="patch_21">
    <path d="M 60.3625 331.902449 
L 81.2875 331.902449 
L 81.2875 325.191156 
L 60.3625 325.191156 
z
" clip-path="url(#p82b83f1383)" style="fill: #0000ff; opacity: 0.4; stroke: #0000ff; stroke-linejoin: miter"/>
   </g>
   <g id="patch_22">
    <path d="M 102.2125 331.902449 
L 123.1375 331.902449 
L 123.1375 325.191156 
L 102.2125 325.191156 
z
" clip-path="url(#p82b83f1383)" style="fill: #0000ff; opacity: 0.4; stroke: #0000ff; stroke-linejoin: miter"/>
   </g>
   <g id="patch_23">
    <path d="M 144.0625 331.902449 
L 164.9875 331.902449 
L 164.9875 325.191156 
L 144.0625 325.191156 
z
" clip-path="url(#p82b83f1383)" style="fill: #0000ff; opacity: 0.4; stroke: #0000ff; stroke-linejoin: miter"/>
   </g>
   <g id="patch_24">
    <path d="M 185.9125 331.902449 
L 206.8375 331.902449 
L 206.8375 325.191156 
L 185.9125 325.191156 
z
" clip-path="url(#p82b83f1383)" style="fill: #0000ff; opacity: 0.4; stroke: #0000ff; stroke-linejoin: miter"/>
   </g>
   <g id="patch_25">
    <path d="M 227.7625 331.902449 
L 248.6875 331.902449 
L 248.6875 325.191156 
L 227.7625 325.191156 
z
" clip-path="url(#p82b83f1383)" style="fill: #0000ff; opacity: 0.4; stroke: #0000ff; stroke-linejoin: miter"/>
   </g>
   <g id="patch_26">
    <path d="M 269.6125 331.902449 
L 290.5375 331.902449 
L 290.5375 325.191156 
L 269.6125 325.191156 
z
" clip-path="url(#p82b83f1383)" style="fill: #0000ff; opacity: 0.4; stroke: #0000ff; stroke-linejoin: miter"/>
   </g>
   <g id="patch_27">
    <path d="M 311.4625 331.902449 
L 332.3875 331.902449 
L 332.3875 325.191156 
L 311.4625 325.191156 
z
" clip-path="url(#p82b83f1383)" style="fill: #0000ff; opacity: 0.4; stroke: #0000ff; stroke-linejoin: miter"/>
   </g>
   <g id="patch_28">
    <path d="M 353.3125 331.902449 
L 374.2375 331.902449 
L 374.2375 325.191156 
L 353.3125 325.191156 
z
" clip-path="url(#p82b83f1383)" style="fill: #0000ff; opacity: 0.4; stroke: #0000ff; stroke-linejoin: miter"/>
   </g>
   <g id="patch_29">
    <path d="M 395.1625 331.902449 
L 416.0875 331.902449 
L 416.0875 325.191156 
L 395.1625 325.191156 
z
" clip-path="url(#p82b83f1383)" style="fill: #f2f2f2; stroke: #f2f2f2; stroke-linejoin: miter"/>
   </g>
   <g id="patch_30">
    <path d="M 437.0125 331.902449 
L 457.9375 331.902449 
L 457.9375 325.191156 
L 437.0125 325.191156 
z
" clip-path="url(#p82b83f1383)" style="fill: #f2f2f2; stroke: #f2f2f2; stroke-linejoin: miter"/>
   </g>
   <g id="patch_31">
    <path d="M 478.8625 331.902449 
L 499.7875 331.902449 
L 499.7875 325.191156 
L 478.8625 325.191156 
z
" clip-path="url(#p82b83f1383)" style="fill: #f2f2f2; stroke: #f2f2f2; stroke-linejoin: miter"/>
   </g>
   <g id="patch_32">
    <path d="M 520.7125 331.902449 
L 541.6375 331.902449 
L 541.6375 325.191156 
L 520.7125 325.191156 
z
" clip-path="url(#p82b83f1383)" style="fill: #f2f2f2; stroke: #f2f2f2; stroke-linejoin: miter"/>
   </g>
   <g id="patch_33">
    <path d="M 562.5625 331.902449 
L 583.4875 331.902449 
L 583.4875 325.191156 
L 562.5625 325.191156 
z
" clip-path="url(#p82b83f1383)" style="fill: #f2f2f2; stroke: #f2f2f2; stroke-linejoin: miter"/>
   </g>
   <g id="patch_34">
    <path d="M 604.4125 331.902449 
L 625.3375 331.902449 
L 625.3375 325.191156 
L 604.4125 325.191156 
z
" clip-path="url(#p82b83f1383)" style="fill: #f2f2f2; stroke: #f2f2f2; stroke-linejoin: miter"/>
   </g>
   <g id="patch_35">
    <path d="M 646.2625 331.902449 
L 667.1875 331.902449 
L 667.1875 325.191156 
L 646.2625 325.191156 
z
" clip-path="url(#p82b83f1383)" style="fill: #f2f2f2; stroke: #f2f2f2; stroke-linejoin: miter"/>
   </g>
   <g id="patch_36">
    <path d="M 688.1125 331.902449 
L 709.0375 331.902449 
L 709.0375 325.191156 
L 688.1125 325.191156 
z
" clip-path="url(#p82b83f1383)" style="fill: #f2f2f2; stroke: #f2f2f2; stroke-linejoin: miter"/>
   </g>
   <g id="matplotlib.axis_3"/>
   <g id="matplotlib.axis_4">
    <g id="ytick_30">
     <g id="line2d_35">
      <g>
       <use xlink:href="#mbc06063d7b" x="49.9" y="362.103267" style="stroke: #000000; stroke-width: 0.8"/>
      </g>
     </g>
     <g id="text_10">
      <!-- y1 -->
      <g transform="translate(30.9 366.195455) scale(0.12 -0.12)">
       <defs>
        <path id="STIXGeneral-Regular-79" d="M 3040 2880 
L 3040 2784 
Q 2925 2771 2854 2700 
Q 2784 2630 2720 2458 
L 1760 -160 
Q 1510 -838 1257 -1116 
Q 1005 -1395 640 -1395 
Q 435 -1395 313 -1289 
Q 192 -1184 192 -1024 
Q 192 -902 272 -816 
Q 352 -730 467 -730 
Q 653 -730 800 -813 
Q 883 -858 966 -858 
Q 1101 -858 1286 -576 
Q 1376 -448 1459 -211 
Q 1542 26 1542 115 
Q 1542 198 1274 762 
L 429 2566 
Q 346 2752 90 2790 
L 90 2880 
L 1402 2880 
L 1402 2784 
Q 1197 2778 1117 2739 
Q 1037 2701 1037 2611 
Q 1037 2541 1120 2349 
L 1837 749 
L 2458 2515 
Q 2483 2573 2483 2630 
Q 2483 2784 2189 2784 
L 2189 2880 
L 3040 2880 
z
" transform="scale(0.015625)"/>
       </defs>
       <use xlink:href="#STIXGeneral-Regular-79"/>
       <use xlink:href="#STIXGeneral-Regular-31" x="49.999985"/>
      </g>
     </g>
    </g>
    <g id="ytick_31">
     <g id="line2d_36">
      <g>
       <use xlink:href="#mbc06063d7b" x="49.9" y="328.546803" style="stroke: #000000; stroke-width: 0.8"/>
      </g>
     </g>
     <g id="text_11">
      <!-- y2 -->
      <g transform="translate(30.9 332.63899) scale(0.12 -0.12)">
       <use xlink:href="#STIXGeneral-Regular-79"/>
       <use xlink:href="#STIXGeneral-Regular-32" x="49.999985"/>
      </g>
     </g>
    </g>
   </g>
   <g id="patch_37">
    <path d="M 49.9 368.81456 
L 49.9 321.83551 
" style="fill: none; stroke: #000000; stroke-width: 0.8; stroke-linejoin: miter; stroke-linecap: square"/>
   </g>
   <g id="text_12">
    <!-- y -->
    <g transform="translate(729.921156 342.575035) rotate(-270) scale(0.11 -0.11)">
     <use xlink:href="#STIXGeneral-Regular-79"/>
    </g>
   </g>
  </g>
  <g id="axes_3">
   <g id="patch_38">
    <path d="M 49.9 454.184934 
L 719.5 454.184934 
L 719.5 394.903972 
L 49.9 394.903972 
z
" style="fill: #ffffff"/>
   </g>
   <g id="patch_39">
    <path d="M 60.3625 451.714894 
L 81.2875 451.714894 
L 81.2875 446.774814 
L 60.3625 446.774814 
z
" clip-path="url(#p966e67656a)" style="fill: #f2f2f2; stroke: #f2f2f2; stroke-linejoin: miter"/>
   </g>
   <g id="patch_40">
    <path d="M 102.2125 451.714894 
L 123.1375 451.714894 
L 123.1375 446.774814 
L 102.2125 446.774814 
z
" clip-path="url(#p966e67656a)" style="fill: #0000ff; opacity: 0.4; stroke: #0000ff; stroke-linejoin: miter"/>
   </g>
   <g id="patch_41">
    <path d="M 144.0625 451.714894 
L 164.9875 451.714894 
L 164.9875 446.774814 
L 144.0625 446.774814 
z
" clip-path="url(#p966e67656a)" style="fill: #f2f2f2; stroke: #f2f2f2; stroke-linejoin: miter"/>
   </g>
   <g id="patch_42">
    <path d="M 185.9125 451.714894 
L 206.8375 451.714894 
L 206.8375 446.774814 
L 185.9125 446.774814 
z
" clip-path="url(#p966e67656a)" style="fill: #0000ff; opacity: 0.4; stroke: #0000ff; stroke-linejoin: miter"/>
   </g>
   <g id="patch_43">
    <path d="M 227.7625 451.714894 
L 248.6875 451.714894 
L 248.6875 446.774814 
L 227.7625 446.774814 
z
" clip-path="url(#p966e67656a)" style="fill: #0000ff; opacity: 0.4; stroke: #0000ff; stroke-linejoin: miter"/>
   </g>
   <g id="patch_44">
    <path d="M 269.6125 451.714894 
L 290.5375 451.714894 
L 290.5375 446.774814 
L 269.6125 446.774814 
z
" clip-path="url(#p966e67656a)" style="fill: #f2f2f2; stroke: #f2f2f2; stroke-linejoin: miter"/>
   </g>
   <g id="patch_45">
    <path d="M 311.4625 451.714894 
L 332.3875 451.714894 
L 332.3875 446.774814 
L 311.4625 446.774814 
z
" clip-path="url(#p966e67656a)" style="fill: #0000ff; opacity: 0.4; stroke: #0000ff; stroke-linejoin: miter"/>
   </g>
   <g id="patch_46">
    <path d="M 353.3125 451.714894 
L 374.2375 451.714894 
L 374.2375 446.774814 
L 353.3125 446.774814 
z
" clip-path="url(#p966e67656a)" style="fill: #f2f2f2; stroke: #f2f2f2; stroke-linejoin: miter"/>
   </g>
   <g id="patch_47">
    <path d="M 395.1625 451.714894 
L 416.0875 451.714894 
L 416.0875 446.774814 
L 395.1625 446.774814 
z
" clip-path="url(#p966e67656a)" style="fill: #f2f2f2; stroke: #f2f2f2; stroke-linejoin: miter"/>
   </g>
   <g id="patch_48">
    <path d="M 437.0125 451.714894 
L 457.9375 451.714894 
L 457.9375 446.774814 
L 437.0125 446.774814 
z
" clip-path="url(#p966e67656a)" style="fill: #0000ff; opacity: 0.4; stroke: #0000ff; stroke-linejoin: miter"/>
   </g>
   <g id="patch_49">
    <path d="M 478.8625 451.714894 
L 499.7875 451.714894 
L 499.7875 446.774814 
L 478.8625 446.774814 
z
" clip-path="url(#p966e67656a)" style="fill: #f2f2f2; stroke: #f2f2f2; stroke-linejoin: miter"/>
   </g>
   <g id="patch_50">
    <path d="M 520.7125 451.714894 
L 541.6375 451.714894 
L 541.6375 446.774814 
L 520.7125 446.774814 
z
" clip-path="url(#p966e67656a)" style="fill: #0000ff; opacity: 0.4; stroke: #0000ff; stroke-linejoin: miter"/>
   </g>
   <g id="patch_51">
    <path d="M 562.5625 451.714894 
L 583.4875 451.714894 
L 583.4875 446.774814 
L 562.5625 446.774814 
z
" clip-path="url(#p966e67656a)" style="fill: #0000ff; opacity: 0.4; stroke: #0000ff; stroke-linejoin: miter"/>
   </g>
   <g id="patch_52">
    <path d="M 604.4125 451.714894 
L 625.3375 451.714894 
L 625.3375 446.774814 
L 604.4125 446.774814 
z
" clip-path="url(#p966e67656a)" style="fill: #0000ff; opacity: 0.4; stroke: #0000ff; stroke-linejoin: miter"/>
   </g>
   <g id="patch_53">
    <path d="M 646.2625 451.714894 
L 667.1875 451.714894 
L 667.1875 446.774814 
L 646.2625 446.774814 
z
" clip-path="url(#p966e67656a)" style="fill: #f2f2f2; stroke: #f2f2f2; stroke-linejoin: miter"/>
   </g>
   <g id="patch_54">
    <path d="M 688.1125 451.714894 
L 709.0375 451.714894 
L 709.0375 446.774814 
L 688.1125 446.774814 
z
" clip-path="url(#p966e67656a)" style="fill: #f2f2f2; stroke: #f2f2f2; stroke-linejoin: miter"/>
   </g>
   <g id="patch_55">
    <path d="M 60.3625 427.014493 
L 81.2875 427.014493 
L 81.2875 422.074413 
L 60.3625 422.074413 
z
" clip-path="url(#p966e67656a)" style="fill: #f2f2f2; stroke: #f2f2f2; stroke-linejoin: miter"/>
   </g>
   <g id="patch_56">
    <path d="M 102.2125 427.014493 
L 123.1375 427.014493 
L 123.1375 422.074413 
L 102.2125 422.074413 
z
" clip-path="url(#p966e67656a)" style="fill: #f2f2f2; stroke: #f2f2f2; stroke-linejoin: miter"/>
   </g>
   <g id="patch_57">
    <path d="M 144.0625 427.014493 
L 164.9875 427.014493 
L 164.9875 422.074413 
L 144.0625 422.074413 
z
" clip-path="url(#p966e67656a)" style="fill: #f2f2f2; stroke: #f2f2f2; stroke-linejoin: miter"/>
   </g>
   <g id="patch_58">
    <path d="M 185.9125 427.014493 
L 206.8375 427.014493 
L 206.8375 422.074413 
L 185.9125 422.074413 
z
" clip-path="url(#p966e67656a)" style="fill: #f2f2f2; stroke: #f2f2f2; stroke-linejoin: miter"/>
   </g>
   <g id="patch_59">
    <path d="M 227.7625 427.014493 
L 248.6875 427.014493 
L 248.6875 422.074413 
L 227.7625 422.074413 
z
" clip-path="url(#p966e67656a)" style="fill: #0000ff; opacity: 0.4; stroke: #0000ff; stroke-linejoin: miter"/>
   </g>
   <g id="patch_60">
    <path d="M 269.6125 427.014493 
L 290.5375 427.014493 
L 290.5375 422.074413 
L 269.6125 422.074413 
z
" clip-path="url(#p966e67656a)" style="fill: #0000ff; opacity: 0.4; stroke: #0000ff; stroke-linejoin: miter"/>
   </g>
   <g id="patch_61">
    <path d="M 311.4625 427.014493 
L 332.3875 427.014493 
L 332.3875 422.074413 
L 311.4625 422.074413 
z
" clip-path="url(#p966e67656a)" style="fill: #0000ff; opacity: 0.4; stroke: #0000ff; stroke-linejoin: miter"/>
   </g>
   <g id="patch_62">
    <path d="M 353.3125 427.014493 
L 374.2375 427.014493 
L 374.2375 422.074413 
L 353.3125 422.074413 
z
" clip-path="url(#p966e67656a)" style="fill: #0000ff; opacity: 0.4; stroke: #0000ff; stroke-linejoin: miter"/>
   </g>
   <g id="patch_63">
    <path d="M 395.1625 427.014493 
L 416.0875 427.014493 
L 416.0875 422.074413 
L 395.1625 422.074413 
z
" clip-path="url(#p966e67656a)" style="fill: #f2f2f2; stroke: #f2f2f2; stroke-linejoin: miter"/>
   </g>
   <g id="patch_64">
    <path d="M 437.0125 427.014493 
L 457.9375 427.014493 
L 457.9375 422.074413 
L 437.0125 422.074413 
z
" clip-path="url(#p966e67656a)" style="fill: #f2f2f2; stroke: #f2f2f2; stroke-linejoin: miter"/>
   </g>
   <g id="patch_65">
    <path d="M 478.8625 427.014493 
L 499.7875 427.014493 
L 499.7875 422.074413 
L 478.8625 422.074413 
z
" clip-path="url(#p966e67656a)" style="fill: #f2f2f2; stroke: #f2f2f2; stroke-linejoin: miter"/>
   </g>
   <g id="patch_66">
    <path d="M 520.7125 427.014493 
L 541.6375 427.014493 
L 541.6375 422.074413 
L 520.7125 422.074413 
z
" clip-path="url(#p966e67656a)" style="fill: #f2f2f2; stroke: #f2f2f2; stroke-linejoin: miter"/>
   </g>
   <g id="patch_67">
    <path d="M 562.5625 427.014493 
L 583.4875 427.014493 
L 583.4875 422.074413 
L 562.5625 422.074413 
z
" clip-path="url(#p966e67656a)" style="fill: #0000ff; opacity: 0.4; stroke: #0000ff; stroke-linejoin: miter"/>
   </g>
   <g id="patch_68">
    <path d="M 604.4125 427.014493 
L 625.3375 427.014493 
L 625.3375 422.074413 
L 604.4125 422.074413 
z
" clip-path="url(#p966e67656a)" style="fill: #0000ff; opacity: 0.4; stroke: #0000ff; stroke-linejoin: miter"/>
   </g>
   <g id="patch_69">
    <path d="M 646.2625 427.014493 
L 667.1875 427.014493 
L 667.1875 422.074413 
L 646.2625 422.074413 
z
" clip-path="url(#p966e67656a)" style="fill: #0000ff; opacity: 0.4; stroke: #0000ff; stroke-linejoin: miter"/>
   </g>
   <g id="patch_70">
    <path d="M 688.1125 427.014493 
L 709.0375 427.014493 
L 709.0375 422.074413 
L 688.1125 422.074413 
z
" clip-path="url(#p966e67656a)" style="fill: #0000ff; opacity: 0.4; stroke: #0000ff; stroke-linejoin: miter"/>
   </g>
   <g id="patch_71">
    <path d="M 60.3625 402.314092 
L 81.2875 402.314092 
L 81.2875 397.374012 
L 60.3625 397.374012 
z
" clip-path="url(#p966e67656a)" style="fill: #0000ff; opacity: 0.4; stroke: #0000ff; stroke-linejoin: miter"/>
   </g>
   <g id="patch_72">
    <path d="M 102.2125 402.314092 
L 123.1375 402.314092 
L 123.1375 397.374012 
L 102.2125 397.374012 
z
" clip-path="url(#p966e67656a)" style="fill: #0000ff; opacity: 0.4; stroke: #0000ff; stroke-linejoin: miter"/>
   </g>
   <g id="patch_73">
    <path d="M 144.0625 402.314092 
L 164.9875 402.314092 
L 164.9875 397.374012 
L 144.0625 397.374012 
z
" clip-path="url(#p966e67656a)" style="fill: #f2f2f2; stroke: #f2f2f2; stroke-linejoin: miter"/>
   </g>
   <g id="patch_74">
    <path d="M 185.9125 402.314092 
L 206.8375 402.314092 
L 206.8375 397.374012 
L 185.9125 397.374012 
z
" clip-path="url(#p966e67656a)" style="fill: #f2f2f2; stroke: #f2f2f2; stroke-linejoin: miter"/>
   </g>
   <g id="patch_75">
    <path d="M 227.7625 402.314092 
L 248.6875 402.314092 
L 248.6875 397.374012 
L 227.7625 397.374012 
z
" clip-path="url(#p966e67656a)" style="fill: #0000ff; opacity: 0.4; stroke: #0000ff; stroke-linejoin: miter"/>
   </g>
   <g id="patch_76">
    <path d="M 269.6125 402.314092 
L 290.5375 402.314092 
L 290.5375 397.374012 
L 269.6125 397.374012 
z
" clip-path="url(#p966e67656a)" style="fill: #0000ff; opacity: 0.4; stroke: #0000ff; stroke-linejoin: miter"/>
   </g>
   <g id="patch_77">
    <path d="M 311.4625 402.314092 
L 332.3875 402.314092 
L 332.3875 397.374012 
L 311.4625 397.374012 
z
" clip-path="url(#p966e67656a)" style="fill: #f2f2f2; stroke: #f2f2f2; stroke-linejoin: miter"/>
   </g>
   <g id="patch_78">
    <path d="M 353.3125 402.314092 
L 374.2375 402.314092 
L 374.2375 397.374012 
L 353.3125 397.374012 
z
" clip-path="url(#p966e67656a)" style="fill: #f2f2f2; stroke: #f2f2f2; stroke-linejoin: miter"/>
   </g>
   <g id="patch_79">
    <path d="M 395.1625 402.314092 
L 416.0875 402.314092 
L 416.0875 397.374012 
L 395.1625 397.374012 
z
" clip-path="url(#p966e67656a)" style="fill: #0000ff; opacity: 0.4; stroke: #0000ff; stroke-linejoin: miter"/>
   </g>
   <g id="patch_80">
    <path d="M 437.0125 402.314092 
L 457.9375 402.314092 
L 457.9375 397.374012 
L 437.0125 397.374012 
z
" clip-path="url(#p966e67656a)" style="fill: #0000ff; opacity: 0.4; stroke: #0000ff; stroke-linejoin: miter"/>
   </g>
   <g id="patch_81">
    <path d="M 478.8625 402.314092 
L 499.7875 402.314092 
L 499.7875 397.374012 
L 478.8625 397.374012 
z
" clip-path="url(#p966e67656a)" style="fill: #f2f2f2; stroke: #f2f2f2; stroke-linejoin: miter"/>
   </g>
   <g id="patch_82">
    <path d="M 520.7125 402.314092 
L 541.6375 402.314092 
L 541.6375 397.374012 
L 520.7125 397.374012 
z
" clip-path="url(#p966e67656a)" style="fill: #f2f2f2; stroke: #f2f2f2; stroke-linejoin: miter"/>
   </g>
   <g id="patch_83">
    <path d="M 562.5625 402.314092 
L 583.4875 402.314092 
L 583.4875 397.374012 
L 562.5625 397.374012 
z
" clip-path="url(#p966e67656a)" style="fill: #0000ff; opacity: 0.4; stroke: #0000ff; stroke-linejoin: miter"/>
   </g>
   <g id="patch_84">
    <path d="M 604.4125 402.314092 
L 625.3375 402.314092 
L 625.3375 397.374012 
L 604.4125 397.374012 
z
" clip-path="url(#p966e67656a)" style="fill: #f2f2f2; stroke: #f2f2f2; stroke-linejoin: miter"/>
   </g>
   <g id="patch_85">
    <path d="M 646.2625 402.314092 
L 667.1875 402.314092 
L 667.1875 397.374012 
L 646.2625 397.374012 
z
" clip-path="url(#p966e67656a)" style="fill: #0000ff; opacity: 0.4; stroke: #0000ff; stroke-linejoin: miter"/>
   </g>
   <g id="patch_86">
    <path d="M 688.1125 402.314092 
L 709.0375 402.314092 
L 709.0375 397.374012 
L 688.1125 397.374012 
z
" clip-path="url(#p966e67656a)" style="fill: #f2f2f2; stroke: #f2f2f2; stroke-linejoin: miter"/>
   </g>
   <g id="matplotlib.axis_5"/>
   <g id="matplotlib.axis_6">
    <g id="ytick_32">
     <g id="line2d_37">
      <g>
       <use xlink:href="#mbc06063d7b" x="49.9" y="449.244854" style="stroke: #000000; stroke-width: 0.8"/>
      </g>
     </g>
     <g id="text_13">
      <!-- c1 -->
      <g transform="translate(31.57125 453.342666) scale(0.12 -0.12)">
       <use xlink:href="#STIXGeneral-Regular-63"/>
       <use xlink:href="#STIXGeneral-Regular-31" x="44.399994"/>
      </g>
     </g>
    </g>
    <g id="ytick_33">
     <g id="line2d_38">
      <g>
       <use xlink:href="#mbc06063d7b" x="49.9" y="424.544453" style="stroke: #000000; stroke-width: 0.8"/>
      </g>
     </g>
     <g id="text_14">
      <!-- c2 -->
      <g transform="translate(31.57125 428.642265) scale(0.12 -0.12)">
       <use xlink:href="#STIXGeneral-Regular-63"/>
       <use xlink:href="#STIXGeneral-Regular-32" x="44.399994"/>
      </g>
     </g>
    </g>
    <g id="ytick_34">
     <g id="line2d_39">
      <g>
       <use xlink:href="#mbc06063d7b" x="49.9" y="399.844052" style="stroke: #000000; stroke-width: 0.8"/>
      </g>
     </g>
     <g id="text_15">
      <!-- c3 -->
      <g transform="translate(31.57125 403.941865) scale(0.12 -0.12)">
       <use xlink:href="#STIXGeneral-Regular-63"/>
       <use xlink:href="#STIXGeneral-Regular-33" x="44.399994"/>
      </g>
     </g>
    </g>
   </g>
   <g id="patch_87">
    <path d="M 49.9 454.184934 
L 49.9 394.903972 
" style="fill: none; stroke: #000000; stroke-width: 0.8; stroke-linejoin: miter; stroke-linecap: square"/>
   </g>
   <g id="text_16">
    <!-- controls -->
    <g transform="translate(729.910844 406.823281) rotate(-270) scale(0.11 -0.11)">
     <defs>
      <path id="STIXGeneral-Regular-73" d="M 998 1926 
L 1664 1523 
Q 1984 1331 2105 1164 
Q 2227 998 2227 736 
Q 2227 416 1961 176 
Q 1696 -64 1331 -64 
Q 1030 -64 864 -6 
Q 691 51 570 51 
Q 461 51 416 -26 
L 333 -26 
L 333 979 
L 435 979 
Q 538 512 730 294 
Q 922 77 1248 77 
Q 1485 77 1632 211 
Q 1779 346 1779 550 
Q 1779 845 1440 1030 
L 1094 1222 
Q 326 1651 326 2150 
Q 326 2522 566 2730 
Q 806 2938 1210 2938 
Q 1491 2938 1638 2867 
Q 1754 2816 1818 2816 
Q 1862 2816 1920 2880 
L 1990 2880 
L 2022 2010 
L 1926 2010 
Q 1818 2445 1654 2621 
Q 1491 2797 1203 2797 
Q 986 2797 854 2688 
Q 723 2579 723 2362 
Q 723 2253 796 2128 
Q 870 2003 998 1926 
z
" transform="scale(0.015625)"/>
     </defs>
     <use xlink:href="#STIXGeneral-Regular-63"/>
     <use xlink:href="#STIXGeneral-Regular-6f" x="44.399994"/>
     <use xlink:href="#STIXGeneral-Regular-6e" x="94.399979"/>
     <use xlink:href="#STIXGeneral-Regular-74" x="144.399963"/>
     <use xlink:href="#STIXGeneral-Regular-72" x="172.199951"/>
     <use xlink:href="#STIXGeneral-Regular-6f" x="205.499939"/>
     <use xlink:href="#STIXGeneral-Regular-6c" x="255.499924"/>
     <use xlink:href="#STIXGeneral-Regular-73" x="283.299911"/>
    </g>
   </g>
  </g>
 </g>
 <defs>
  <clipPath id="pefdf1024df">
   <rect x="49.9" y="10.664934" width="669.6" height="285.081164"/>
  </clipPath>
  <clipPath id="p82b83f1383">
   <rect x="49.9" y="321.83551" width="669.6" height="46.979051"/>
  </clipPath>
  <clipPath id="p966e67656a">
   <rect x="49.9" y="394.903972" width="669.6" height="59.280962"/>
  </clipPath>
 </defs>
</svg>
