<?xml version="1.0" encoding="utf-8" standalone="no"?>
<!DOCTYPE svg PUBLIC "-//W3C//DTD SVG 1.1//EN"
  "http://www.w3.org/Graphics/SVG/1.1/DTD/svg11.dtd">
<svg xmlns:xlink="http://www.w3.org/1999/xlink" width="763.5835pt" height="460.275506pt" viewBox="0 0 763.5835 460.275506" xmlns="http://www.w3.org/2000/svg" version="1.1">
 <metadata>
  <rdf:RDF xmlns:dc="http://purl.org/dc/elements/1.1/" xmlns:cc="http://creativecommons.org/ns#" xmlns:rdf="http://www.w3.org/1999/02/22-rdf-syntax-ns#">
   <cc:Work>
    <dc:type rdf:resource="http://purl.org/dc/dcmitype/StillImage"/>
    <dc:date>2026-01-04T03:37:14.238914</dc:date>
    <dc:format>image/svg+xml</dc:format>
    <dc:creator>
     <cc:Agent>
      <dc:title>Matplotlib v3.9.4, https://matplotlib.org/</dc:title>
     </cc:Agent>
    </dc:creator>
   </cc:Work>
  </rdf:RDF>
 </metadata>
 <defs>
  <style type="text/css">*{stroke-linejoin: round; stroke-linecap: butt}</style>
 </defs>
 <g id="figure_1">
  <g id="patch_1">
   <path d="M 0 460.275506 
L 763.5835 460.275506 
L 763.5835 0 
L 0 0 
z
" style="fill: #ffffff"/>
  </g>
  <g id="axes_1">
   <g id="patch_2">
    <path d="M 68.86 258.037452 
L 738.46 258.037452 
L 738.46 7.2 
L 68.86 7.2 
z
" style="fill: #ffffff"/>
   </g>
   <g id="LineCollection_1">
    <path d="M 89.785 185.348116 
L 89.785 63.548361 
" clip-path="url(#p77b51a3d57)" style="fill: none; stroke: #ff0000; stroke-opacity: 0.2; stroke-width: 2"/>
    <path d="M 131.635 185.308428 
L 131.635 63.579088 
" clip-path="url(#p77b51a3d57)" style="fill: none; stroke: #ff0000; stroke-opacity: 0.2; stroke-width: 2"/>
    <path d="M 173.485 184.254279 
L 173.485 62.880525 
" clip-path="url(#p77b51a3d57)" style="fill: none; stroke: #ff0000; stroke-opacity: 0.2; stroke-width: 2"/>
    <path d="M 215.335 184.265836 
L 215.335 62.821577 
" clip-path="url(#p77b51a3d57)" style="fill: none; stroke: #ff0000; stroke-opacity: 0.2; stroke-width: 2"/>
    <path d="M 257.185 179.135623 
L 257.185 56.692972 
" clip-path="url(#p77b51a3d57)" style="fill: none; stroke: #ff0000; stroke-opacity: 0.2; stroke-width: 2"/>
    <path d="M 299.035 178.25148 
L 299.035 55.998949 
" clip-path="url(#p77b51a3d57)" style="fill: none; stroke: #ff0000; stroke-opacity: 0.2; stroke-width: 2"/>
    <path d="M 340.885 178.128332 
L 340.885 56.009216 
" clip-path="url(#p77b51a3d57)" style="fill: none; stroke: #ff0000; stroke-opacity: 0.2; stroke-width: 2"/>
    <path d="M 382.735 177.187852 
L 382.735 55.277726 
" clip-path="url(#p77b51a3d57)" style="fill: none; stroke: #ff0000; stroke-opacity: 0.2; stroke-width: 2"/>
    <path d="M 424.585 169.161074 
L 424.585 48.275227 
" clip-path="url(#p77b51a3d57)" style="fill: none; stroke: #ff0000; stroke-opacity: 0.2; stroke-width: 2"/>
    <path d="M 466.435 168.313602 
L 466.435 47.616786 
" clip-path="url(#p77b51a3d57)" style="fill: none; stroke: #ff0000; stroke-opacity: 0.2; stroke-width: 2"/>
    <path d="M 508.285 168.138732 
L 508.285 47.569993 
" clip-path="url(#p77b51a3d57)" style="fill: none; stroke: #ff0000; stroke-opacity: 0.2; stroke-width: 2"/>
    <path d="M 550.135 167.235898 
L 550.135 46.8748 
" clip-path="url(#p77b51a3d57)" style="fill: none; stroke: #ff0000; stroke-opacity: 0.2; stroke-width: 2"/>
    <path d="M 591.985 165.315528 
L 591.985 44.682695 
" clip-path="url(#p77b51a3d57)" style="fill: none; stroke: #ff0000; stroke-opacity: 0.2; stroke-width: 2"/>
    <path d="M 633.835 165.280339 
L 633.835 44.716633 
" clip-path="url(#p77b51a3d57)" style="fill: none; stroke: #ff0000; stroke-opacity: 0.2; stroke-width: 2"/>
    <path d="M 675.685 164.209679 
L 675.685 43.994212 
" clip-path="url(#p77b51a3d57)" style="fill: none; stroke: #ff0000; stroke-opacity: 0.2; stroke-width: 2"/>
    <path d="M 717.535 164.21791 
L 717.535 43.933307 
" clip-path="url(#p77b51a3d57)" style="fill: none; stroke: #ff0000; stroke-opacity: 0.2; stroke-width: 2"/>
   </g>
   <g id="line2d_1">
    <defs>
     <path id="me727a741f2" d="M 0 1.5 
C 0.397805 1.5 0.77937 1.341951 1.06066 1.06066 
C 1.341951 0.77937 1.5 0.397805 1.5 0 
C 1.5 -0.397805 1.341951 -0.77937 1.06066 -1.06066 
C 0.77937 -1.341951 0.397805 -1.5 0 -1.5 
C -0.397805 -1.5 -0.77937 -1.341951 -1.06066 -1.06066 
C -1.341951 -0.77937 -1.5 -0.397805 -1.5 0 
C -1.5 0.397805 -1.341951 0.77937 -1.06066 1.06066 
C -0.77937 1.341951 -0.397805 1.5 0 1.5 
z
" style="stroke: #ff0000; stroke-opacity: 0.6"/>
    </defs>
    <g clip-path="url(#p77b51a3d57)">
     <use xlink:href="#me727a741f2" x="89.785" y="124.448239" style="fill: #ff0000; fill-opacity: 0.6; stroke: #ff0000; stroke-opacity: 0.6"/>
     <use xlink:href="#me727a741f2" x="131.635" y="124.443758" style="fill: #ff0000; fill-opacity: 0.6; stroke: #ff0000; stroke-opacity: 0.6"/>
     <use xlink:href="#me727a741f2" x="173.485" y="123.567402" style="fill: #ff0000; fill-opacity: 0.6; stroke: #ff0000; stroke-opacity: 0.6"/>
     <use xlink:href="#me727a741f2" x="215.335" y="123.543707" style="fill: #ff0000; fill-opacity: 0.6; stroke: #ff0000; stroke-opacity: 0.6"/>
     <use xlink:href="#me727a741f2" x="257.185" y="117.914297" style="fill: #ff0000; fill-opacity: 0.6; stroke: #ff0000; stroke-opacity: 0.6"/>
     <use xlink:href="#me727a741f2" x="299.035" y="117.125215" style="fill: #ff0000; fill-opacity: 0.6; stroke: #ff0000; stroke-opacity: 0.6"/>
     <use xlink:href="#me727a741f2" x="340.885" y="117.068774" style="fill: #ff0000; fill-opacity: 0.6; stroke: #ff0000; stroke-opacity: 0.6"/>
     <use xlink:href="#me727a741f2" x="382.735" y="116.232789" style="fill: #ff0000; fill-opacity: 0.6; stroke: #ff0000; stroke-opacity: 0.6"/>
     <use xlink:href="#me727a741f2" x="424.585" y="108.71815" style="fill: #ff0000; fill-opacity: 0.6; stroke: #ff0000; stroke-opacity: 0.6"/>
     <use xlink:href="#me727a741f2" x="466.435" y="107.965194" style="fill: #ff0000; fill-opacity: 0.6; stroke: #ff0000; stroke-opacity: 0.6"/>
     <use xlink:href="#me727a741f2" x="508.285" y="107.854363" style="fill: #ff0000; fill-opacity: 0.6; stroke: #ff0000; stroke-opacity: 0.6"/>
     <use xlink:href="#me727a741f2" x="550.135" y="107.055349" style="fill: #ff0000; fill-opacity: 0.6; stroke: #ff0000; stroke-opacity: 0.6"/>
     <use xlink:href="#me727a741f2" x="591.985" y="104.999111" style="fill: #ff0000; fill-opacity: 0.6; stroke: #ff0000; stroke-opacity: 0.6"/>
     <use xlink:href="#me727a741f2" x="633.835" y="104.998486" style="fill: #ff0000; fill-opacity: 0.6; stroke: #ff0000; stroke-opacity: 0.6"/>
     <use xlink:href="#me727a741f2" x="675.685" y="104.101945" style="fill: #ff0000; fill-opacity: 0.6; stroke: #ff0000; stroke-opacity: 0.6"/>
     <use xlink:href="#me727a741f2" x="717.535" y="104.075608" style="fill: #ff0000; fill-opacity: 0.6; stroke: #ff0000; stroke-opacity: 0.6"/>
    </g>
   </g>
   <g id="matplotlib.axis_1"/>
   <g id="matplotlib.axis_2">
    <g id="ytick_1">
     <g id="line2d_2">
      <defs>
       <path id="md4db944bc0" d="M 0 0 
L -3.5 0 
" style="stroke: #000000; stroke-width: 0.8"/>
      </defs>
      <g>
       <use xlink:href="#md4db944bc0" x="68.86" y="224.891074" style="stroke: #000000; stroke-width: 0.8"/>
      </g>
     </g>
     <g id="text_1">
      <!-- −0.45 -->
      <g transform="translate(22.9 230.354824) scale(0.16 -0.16)">
       <defs>
        <path id="STIXGeneral-Regular-2212" d="M 3974 1408 
L 410 1408 
L 410 1830 
L 3974 1830 
L 3974 1408 
z
" transform="scale(0.015625)"/>
        <path id="STIXGeneral-Regular-30" d="M 3046 2112 
Q 3046 1683 2963 1302 
Q 2880 922 2717 602 
Q 2554 282 2266 96 
Q 1978 -90 1600 -90 
Q 1210 -90 915 108 
Q 621 307 461 640 
Q 301 973 227 1350 
Q 154 1728 154 2150 
Q 154 2746 301 3222 
Q 448 3699 790 4012 
Q 1133 4326 1626 4326 
Q 2253 4326 2649 3712 
Q 3046 3098 3046 2112 
z
M 2432 2080 
Q 2432 3091 2217 3625 
Q 2003 4160 1587 4160 
Q 1190 4160 979 3622 
Q 768 3085 768 2106 
Q 768 1120 979 598 
Q 1190 77 1600 77 
Q 2003 77 2217 598 
Q 2432 1120 2432 2080 
z
" transform="scale(0.015625)"/>
        <path id="STIXGeneral-Regular-2e" d="M 1158 275 
Q 1158 134 1052 32 
Q 947 -70 800 -70 
Q 653 -70 550 32 
Q 448 134 448 281 
Q 448 429 553 534 
Q 659 640 806 640 
Q 947 640 1052 531 
Q 1158 422 1158 275 
z
" transform="scale(0.015625)"/>
        <path id="STIXGeneral-Regular-34" d="M 3027 1069 
L 2368 1069 
L 2368 0 
L 1869 0 
L 1869 1069 
L 77 1069 
L 77 1478 
L 2086 4326 
L 2368 4326 
L 2368 1478 
L 3027 1478 
L 3027 1069 
z
M 1869 1478 
L 1869 3674 
L 333 1478 
L 1869 1478 
z
" transform="scale(0.015625)"/>
        <path id="STIXGeneral-Regular-35" d="M 2803 4358 
L 2573 3814 
Q 2534 3731 2400 3731 
L 1158 3731 
L 902 3187 
Q 1606 3053 1920 2896 
Q 2234 2739 2502 2368 
Q 2726 2061 2726 1555 
Q 2726 1094 2576 780 
Q 2426 467 2099 224 
Q 1664 -90 1011 -90 
Q 646 -90 422 19 
Q 198 128 198 307 
Q 198 550 486 550 
Q 717 550 960 352 
Q 1210 147 1414 147 
Q 1747 147 2012 480 
Q 2278 813 2278 1229 
Q 2278 1843 1850 2189 
Q 1293 2637 486 2637 
Q 410 2637 410 2688 
L 416 2720 
L 1114 4237 
L 2438 4237 
Q 2547 4237 2608 4269 
Q 2669 4301 2746 4403 
L 2803 4358 
z
" transform="scale(0.015625)"/>
       </defs>
       <use xlink:href="#STIXGeneral-Regular-2212"/>
       <use xlink:href="#STIXGeneral-Regular-30" x="68.499985"/>
       <use xlink:href="#STIXGeneral-Regular-2e" x="118.499969"/>
       <use xlink:href="#STIXGeneral-Regular-34" x="143.499954"/>
       <use xlink:href="#STIXGeneral-Regular-35" x="193.499939"/>
      </g>
     </g>
    </g>
    <g id="ytick_2">
     <g id="line2d_3">
      <g>
       <use xlink:href="#md4db944bc0" x="68.86" y="180.098672" style="stroke: #000000; stroke-width: 0.8"/>
      </g>
     </g>
     <g id="text_2">
      <!-- −0.40 -->
      <g transform="translate(22.9 185.562422) scale(0.16 -0.16)">
       <use xlink:href="#STIXGeneral-Regular-2212"/>
       <use xlink:href="#STIXGeneral-Regular-30" x="68.499985"/>
       <use xlink:href="#STIXGeneral-Regular-2e" x="118.499969"/>
       <use xlink:href="#STIXGeneral-Regular-34" x="143.499954"/>
       <use xlink:href="#STIXGeneral-Regular-30" x="193.499939"/>
      </g>
     </g>
    </g>
    <g id="ytick_3">
     <g id="line2d_4">
      <g>
       <use xlink:href="#md4db944bc0" x="68.86" y="135.30627" style="stroke: #000000; stroke-width: 0.8"/>
      </g>
     </g>
     <g id="text_3">
      <!-- −0.35 -->
      <g transform="translate(22.9 140.77002) scale(0.16 -0.16)">
       <defs>
        <path id="STIXGeneral-Regular-33" d="M 390 3264 
L 288 3290 
Q 435 3770 748 4048 
Q 1062 4326 1542 4326 
Q 1990 4326 2265 4083 
Q 2541 3840 2541 3450 
Q 2541 2925 1946 2566 
Q 2298 2413 2477 2227 
Q 2758 1914 2758 1402 
Q 2758 890 2464 506 
Q 2246 211 1840 60 
Q 1434 -90 979 -90 
Q 262 -90 262 275 
Q 262 378 339 442 
Q 416 506 525 506 
Q 685 506 915 339 
Q 1197 141 1466 141 
Q 1818 141 2058 425 
Q 2298 710 2298 1120 
Q 2298 1856 1632 2048 
Q 1434 2112 979 2112 
L 979 2202 
Q 1338 2323 1517 2432 
Q 2035 2726 2035 3290 
Q 2035 3610 1852 3776 
Q 1670 3942 1344 3942 
Q 768 3942 390 3264 
z
" transform="scale(0.015625)"/>
       </defs>
       <use xlink:href="#STIXGeneral-Regular-2212"/>
       <use xlink:href="#STIXGeneral-Regular-30" x="68.499985"/>
       <use xlink:href="#STIXGeneral-Regular-2e" x="118.499969"/>
       <use xlink:href="#STIXGeneral-Regular-33" x="143.499954"/>
       <use xlink:href="#STIXGeneral-Regular-35" x="193.499939"/>
      </g>
     </g>
    </g>
    <g id="ytick_4">
     <g id="line2d_5">
      <g>
       <use xlink:href="#md4db944bc0" x="68.86" y="90.513868" style="stroke: #000000; stroke-width: 0.8"/>
      </g>
     </g>
     <g id="text_4">
      <!-- −0.30 -->
      <g transform="translate(22.9 95.977618) scale(0.16 -0.16)">
       <use xlink:href="#STIXGeneral-Regular-2212"/>
       <use xlink:href="#STIXGeneral-Regular-30" x="68.499985"/>
       <use xlink:href="#STIXGeneral-Regular-2e" x="118.499969"/>
       <use xlink:href="#STIXGeneral-Regular-33" x="143.499954"/>
       <use xlink:href="#STIXGeneral-Regular-30" x="193.499939"/>
      </g>
     </g>
    </g>
    <g id="ytick_5">
     <g id="line2d_6">
      <g>
       <use xlink:href="#md4db944bc0" x="68.86" y="45.721466" style="stroke: #000000; stroke-width: 0.8"/>
      </g>
     </g>
     <g id="text_5">
      <!-- −0.25 -->
      <g transform="translate(22.9 51.185216) scale(0.16 -0.16)">
       <defs>
        <path id="STIXGeneral-Regular-32" d="M 3034 877 
L 2688 0 
L 186 0 
L 186 77 
L 1325 1286 
Q 1773 1754 1965 2144 
Q 2157 2534 2157 2950 
Q 2157 3379 1920 3616 
Q 1683 3853 1267 3853 
Q 922 3853 720 3673 
Q 518 3494 326 3021 
L 192 3053 
Q 301 3648 630 3987 
Q 960 4326 1523 4326 
Q 2054 4326 2380 4006 
Q 2707 3686 2707 3200 
Q 2707 2477 1888 1613 
L 832 486 
L 2330 486 
Q 2541 486 2665 569 
Q 2790 653 2944 915 
L 3034 877 
z
" transform="scale(0.015625)"/>
       </defs>
       <use xlink:href="#STIXGeneral-Regular-2212"/>
       <use xlink:href="#STIXGeneral-Regular-30" x="68.499985"/>
       <use xlink:href="#STIXGeneral-Regular-2e" x="118.499969"/>
       <use xlink:href="#STIXGeneral-Regular-32" x="143.499954"/>
       <use xlink:href="#STIXGeneral-Regular-35" x="193.499939"/>
      </g>
     </g>
    </g>
    <g id="ytick_6">
     <g id="line2d_7">
      <defs>
       <path id="mee06cff051" d="M 0 0 
L -2 0 
" style="stroke: #000000; stroke-width: 0.6"/>
      </defs>
      <g>
       <use xlink:href="#mee06cff051" x="68.86" y="251.766515" style="stroke: #000000; stroke-width: 0.6"/>
      </g>
     </g>
    </g>
    <g id="ytick_7">
     <g id="line2d_8">
      <g>
       <use xlink:href="#mee06cff051" x="68.86" y="242.808035" style="stroke: #000000; stroke-width: 0.6"/>
      </g>
     </g>
    </g>
    <g id="ytick_8">
     <g id="line2d_9">
      <g>
       <use xlink:href="#mee06cff051" x="68.86" y="233.849554" style="stroke: #000000; stroke-width: 0.6"/>
      </g>
     </g>
    </g>
    <g id="ytick_9">
     <g id="line2d_10">
      <g>
       <use xlink:href="#mee06cff051" x="68.86" y="215.932594" style="stroke: #000000; stroke-width: 0.6"/>
      </g>
     </g>
    </g>
    <g id="ytick_10">
     <g id="line2d_11">
      <g>
       <use xlink:href="#mee06cff051" x="68.86" y="206.974113" style="stroke: #000000; stroke-width: 0.6"/>
      </g>
     </g>
    </g>
    <g id="ytick_11">
     <g id="line2d_12">
      <g>
       <use xlink:href="#mee06cff051" x="68.86" y="198.015633" style="stroke: #000000; stroke-width: 0.6"/>
      </g>
     </g>
    </g>
    <g id="ytick_12">
     <g id="line2d_13">
      <g>
       <use xlink:href="#mee06cff051" x="68.86" y="189.057152" style="stroke: #000000; stroke-width: 0.6"/>
      </g>
     </g>
    </g>
    <g id="ytick_13">
     <g id="line2d_14">
      <g>
       <use xlink:href="#mee06cff051" x="68.86" y="171.140192" style="stroke: #000000; stroke-width: 0.6"/>
      </g>
     </g>
    </g>
    <g id="ytick_14">
     <g id="line2d_15">
      <g>
       <use xlink:href="#mee06cff051" x="68.86" y="162.181711" style="stroke: #000000; stroke-width: 0.6"/>
      </g>
     </g>
    </g>
    <g id="ytick_15">
     <g id="line2d_16">
      <g>
       <use xlink:href="#mee06cff051" x="68.86" y="153.223231" style="stroke: #000000; stroke-width: 0.6"/>
      </g>
     </g>
    </g>
    <g id="ytick_16">
     <g id="line2d_17">
      <g>
       <use xlink:href="#mee06cff051" x="68.86" y="144.26475" style="stroke: #000000; stroke-width: 0.6"/>
      </g>
     </g>
    </g>
    <g id="ytick_17">
     <g id="line2d_18">
      <g>
       <use xlink:href="#mee06cff051" x="68.86" y="126.347789" style="stroke: #000000; stroke-width: 0.6"/>
      </g>
     </g>
    </g>
    <g id="ytick_18">
     <g id="line2d_19">
      <g>
       <use xlink:href="#mee06cff051" x="68.86" y="117.389309" style="stroke: #000000; stroke-width: 0.6"/>
      </g>
     </g>
    </g>
    <g id="ytick_19">
     <g id="line2d_20">
      <g>
       <use xlink:href="#mee06cff051" x="68.86" y="108.430829" style="stroke: #000000; stroke-width: 0.6"/>
      </g>
     </g>
    </g>
    <g id="ytick_20">
     <g id="line2d_21">
      <g>
       <use xlink:href="#mee06cff051" x="68.86" y="99.472348" style="stroke: #000000; stroke-width: 0.6"/>
      </g>
     </g>
    </g>
    <g id="ytick_21">
     <g id="line2d_22">
      <g>
       <use xlink:href="#mee06cff051" x="68.86" y="81.555387" style="stroke: #000000; stroke-width: 0.6"/>
      </g>
     </g>
    </g>
    <g id="ytick_22">
     <g id="line2d_23">
      <g>
       <use xlink:href="#mee06cff051" x="68.86" y="72.596907" style="stroke: #000000; stroke-width: 0.6"/>
      </g>
     </g>
    </g>
    <g id="ytick_23">
     <g id="line2d_24">
      <g>
       <use xlink:href="#mee06cff051" x="68.86" y="63.638427" style="stroke: #000000; stroke-width: 0.6"/>
      </g>
     </g>
    </g>
    <g id="ytick_24">
     <g id="line2d_25">
      <g>
       <use xlink:href="#mee06cff051" x="68.86" y="54.679946" style="stroke: #000000; stroke-width: 0.6"/>
      </g>
     </g>
    </g>
    <g id="ytick_25">
     <g id="line2d_26">
      <g>
       <use xlink:href="#mee06cff051" x="68.86" y="36.762985" style="stroke: #000000; stroke-width: 0.6"/>
      </g>
     </g>
    </g>
    <g id="ytick_26">
     <g id="line2d_27">
      <g>
       <use xlink:href="#mee06cff051" x="68.86" y="27.804505" style="stroke: #000000; stroke-width: 0.6"/>
      </g>
     </g>
    </g>
    <g id="ytick_27">
     <g id="line2d_28">
      <g>
       <use xlink:href="#mee06cff051" x="68.86" y="18.846025" style="stroke: #000000; stroke-width: 0.6"/>
      </g>
     </g>
    </g>
    <g id="ytick_28">
     <g id="line2d_29">
      <g>
       <use xlink:href="#mee06cff051" x="68.86" y="9.887544" style="stroke: #000000; stroke-width: 0.6"/>
      </g>
     </g>
    </g>
    <g id="text_6">
     <!-- Coefficient -->
     <g transform="translate(16.078594 161.862632) rotate(-90) scale(0.13 -0.13)">
      <defs>
       <path id="STIXGeneral-Regular-43" d="M 3930 838 
L 4051 723 
Q 3482 -90 2304 -90 
Q 1376 -90 794 480 
Q 179 1082 179 2080 
Q 179 3014 755 3661 
Q 1357 4326 2310 4326 
Q 2720 4326 3072 4230 
Q 3475 4115 3514 4115 
Q 3725 4115 3782 4326 
L 3910 4326 
L 3968 2874 
L 3821 2874 
Q 3718 3334 3488 3584 
Q 3034 4070 2458 4070 
Q 1747 4070 1334 3548 
Q 922 3027 922 2182 
Q 922 1152 1382 653 
Q 1811 192 2522 192 
Q 2944 192 3251 339 
Q 3558 486 3930 838 
z
" transform="scale(0.015625)"/>
       <path id="STIXGeneral-Regular-6f" d="M 3008 1478 
Q 3008 806 2608 371 
Q 2208 -64 1568 -64 
Q 979 -64 582 368 
Q 186 800 186 1459 
Q 186 2125 582 2534 
Q 979 2944 1626 2944 
Q 2221 2944 2614 2537 
Q 3008 2131 3008 1478 
z
M 2432 1306 
Q 2432 2035 2112 2445 
Q 1856 2765 1504 2765 
Q 1171 2765 966 2493 
Q 762 2221 762 1747 
Q 762 928 1101 435 
Q 1318 115 1677 115 
Q 2029 115 2230 432 
Q 2432 749 2432 1306 
z
" transform="scale(0.015625)"/>
       <path id="STIXGeneral-Regular-65" d="M 2611 1050 
L 2714 1005 
Q 2330 -64 1376 -64 
Q 813 -64 486 329 
Q 160 723 160 1389 
Q 160 2074 525 2509 
Q 890 2944 1485 2944 
Q 2061 2944 2374 2502 
Q 2560 2246 2592 1773 
L 621 1773 
Q 646 1370 700 1158 
Q 755 947 915 730 
Q 1184 378 1626 378 
Q 1939 378 2153 531 
Q 2368 685 2611 1050 
z
M 634 1978 
L 1939 1978 
Q 1882 2381 1750 2547 
Q 1619 2714 1312 2714 
Q 1043 2714 864 2525 
Q 685 2336 634 1978 
z
" transform="scale(0.015625)"/>
       <path id="STIXGeneral-Regular-66" d="M 134 2880 
L 659 2880 
Q 666 3264 710 3478 
Q 755 3693 883 3910 
Q 1152 4371 1786 4371 
Q 2074 4371 2262 4259 
Q 2451 4147 2451 3974 
Q 2451 3866 2374 3789 
Q 2298 3712 2182 3712 
Q 2029 3712 1894 3942 
Q 1741 4192 1555 4192 
Q 1197 4192 1197 3622 
L 1197 2880 
L 1978 2880 
L 1978 2675 
L 1197 2675 
L 1197 666 
Q 1197 307 1299 208 
Q 1402 109 1792 96 
L 1792 0 
L 128 0 
L 128 96 
Q 474 115 566 214 
Q 659 314 659 666 
L 659 2675 
L 134 2675 
L 134 2880 
z
" transform="scale(0.015625)"/>
       <path id="STIXGeneral-Regular-69" d="M 1152 4045 
Q 1152 3904 1056 3811 
Q 960 3718 819 3718 
Q 685 3718 592 3811 
Q 499 3904 499 4045 
Q 499 4179 595 4275 
Q 691 4371 826 4371 
Q 966 4371 1059 4275 
Q 1152 4179 1152 4045 
z
M 1619 0 
L 102 0 
L 102 96 
Q 435 115 521 211 
Q 608 307 608 666 
L 608 2118 
Q 608 2342 563 2432 
Q 518 2522 397 2522 
Q 243 2522 128 2490 
L 128 2592 
L 1120 2944 
L 1146 2918 
L 1146 672 
Q 1146 314 1226 218 
Q 1306 122 1619 96 
L 1619 0 
z
" transform="scale(0.015625)"/>
       <path id="STIXGeneral-Regular-63" d="M 2547 998 
L 2637 941 
Q 2362 403 2112 205 
Q 1786 -64 1376 -64 
Q 845 -64 502 336 
Q 160 736 160 1357 
Q 160 2170 698 2618 
Q 1094 2944 1562 2944 
Q 1965 2944 2256 2749 
Q 2547 2554 2547 2285 
Q 2547 2176 2457 2096 
Q 2368 2016 2246 2016 
Q 2022 2016 1939 2310 
L 1901 2451 
Q 1850 2630 1773 2694 
Q 1696 2758 1523 2758 
Q 1133 2758 893 2451 
Q 653 2144 653 1645 
Q 653 1094 928 745 
Q 1203 397 1645 397 
Q 1920 397 2118 528 
Q 2317 659 2547 998 
z
" transform="scale(0.015625)"/>
       <path id="STIXGeneral-Regular-6e" d="M 3104 0 
L 1773 0 
L 1779 96 
Q 2016 115 2096 233 
Q 2176 352 2176 672 
L 2176 1946 
Q 2176 2592 1709 2592 
Q 1549 2592 1408 2515 
Q 1267 2438 1050 2227 
L 1050 461 
Q 1050 269 1136 192 
Q 1222 115 1466 96 
L 1466 0 
L 115 0 
L 115 96 
Q 358 115 435 214 
Q 512 314 512 602 
L 512 2157 
Q 512 2394 467 2483 
Q 422 2573 288 2573 
Q 160 2573 102 2547 
L 102 2656 
Q 550 2784 979 2944 
L 1030 2925 
L 1030 2426 
L 1037 2426 
Q 1491 2944 1958 2944 
Q 2323 2944 2518 2688 
Q 2714 2432 2714 1958 
L 2714 544 
Q 2714 288 2790 205 
Q 2867 122 3104 96 
L 3104 0 
z
" transform="scale(0.015625)"/>
       <path id="STIXGeneral-Regular-74" d="M 1702 493 
L 1786 422 
Q 1478 -64 1011 -64 
Q 448 -64 448 749 
L 448 2675 
L 109 2675 
Q 83 2694 83 2720 
Q 83 2771 192 2842 
Q 435 2982 813 3526 
Q 826 3546 874 3606 
Q 922 3667 941 3706 
Q 986 3706 986 3622 
L 986 2880 
L 1632 2880 
L 1632 2675 
L 986 2675 
L 986 845 
Q 986 538 1062 403 
Q 1139 269 1318 269 
Q 1510 269 1702 493 
z
" transform="scale(0.015625)"/>
      </defs>
      <use xlink:href="#STIXGeneral-Regular-43"/>
      <use xlink:href="#STIXGeneral-Regular-6f" x="66.699997"/>
      <use xlink:href="#STIXGeneral-Regular-65" x="116.699982"/>
      <use xlink:href="#STIXGeneral-Regular-66" x="161.099976"/>
      <use xlink:href="#STIXGeneral-Regular-66" x="194.399963"/>
      <use xlink:href="#STIXGeneral-Regular-69" x="227.699951"/>
      <use xlink:href="#STIXGeneral-Regular-63" x="255.499939"/>
      <use xlink:href="#STIXGeneral-Regular-69" x="299.899933"/>
      <use xlink:href="#STIXGeneral-Regular-65" x="327.699921"/>
      <use xlink:href="#STIXGeneral-Regular-6e" x="372.099915"/>
      <use xlink:href="#STIXGeneral-Regular-74" x="422.099899"/>
     </g>
    </g>
   </g>
   <g id="line2d_30">
    <path d="M 68.86 112.47547 
L 738.46 112.47547 
" clip-path="url(#p77b51a3d57)" style="fill: none; stroke-dasharray: 3.6,1.5; stroke-dashoffset: 0; stroke: #000000; stroke-width: 0.3"/>
   </g>
   <g id="patch_3">
    <path d="M 68.86 258.037452 
L 68.86 7.2 
" style="fill: none; stroke: #000000; stroke-width: 0.8; stroke-linejoin: miter; stroke-linecap: square"/>
   </g>
   <g id="text_7">
    <!-- Median -->
    <g style="opacity: 0.6" transform="translate(86.4 107.47547) scale(0.12 -0.12)">
     <defs>
      <path id="STIXGeneral-Regular-4d" d="M 5530 0 
L 3738 0 
L 3738 122 
Q 4115 147 4214 265 
Q 4314 384 4314 787 
L 4314 3661 
L 2682 0 
L 2592 0 
L 979 3514 
L 979 966 
Q 979 448 1088 294 
Q 1197 141 1574 122 
L 1574 0 
L 77 0 
L 77 122 
Q 358 141 480 205 
Q 602 269 650 432 
Q 698 595 698 966 
L 698 3514 
Q 698 3878 589 3984 
Q 480 4090 90 4115 
L 90 4237 
L 1357 4237 
L 2835 1024 
L 4250 4237 
L 5523 4237 
L 5523 4115 
Q 5178 4109 5072 3993 
Q 4966 3878 4966 3520 
L 4966 717 
Q 4966 378 5072 262 
Q 5178 147 5530 122 
L 5530 0 
z
" transform="scale(0.015625)"/>
      <path id="STIXGeneral-Regular-64" d="M 3142 269 
L 2202 -64 
L 2176 -45 
L 2176 365 
Q 1869 -64 1357 -64 
Q 826 -64 499 317 
Q 173 698 173 1312 
Q 173 1990 563 2467 
Q 954 2944 1504 2944 
Q 1850 2944 2176 2669 
L 2176 3667 
Q 2176 3866 2118 3930 
Q 2061 3994 1882 3994 
Q 1792 3994 1741 3987 
L 1741 4090 
Q 2323 4243 2682 4371 
L 2714 4358 
L 2714 730 
Q 2714 506 2768 435 
Q 2822 365 2995 365 
Q 3034 365 3142 371 
L 3142 269 
z
M 2176 653 
L 2176 2125 
Q 2176 2381 1981 2573 
Q 1786 2765 1523 2765 
Q 1158 2765 940 2438 
Q 723 2112 723 1568 
Q 723 979 963 624 
Q 1203 269 1606 269 
Q 1907 269 2080 474 
Q 2176 582 2176 653 
z
" transform="scale(0.015625)"/>
      <path id="STIXGeneral-Regular-61" d="M 2829 422 
L 2829 243 
Q 2586 -64 2253 -64 
Q 1888 -64 1843 403 
L 1837 403 
Q 1427 -64 909 -64 
Q 608 -64 422 112 
Q 237 288 237 602 
Q 237 1050 685 1350 
Q 992 1555 1837 1869 
L 1837 2214 
Q 1837 2502 1699 2646 
Q 1562 2790 1338 2790 
Q 1146 2790 1018 2697 
Q 890 2605 890 2477 
Q 890 2419 909 2348 
Q 928 2278 928 2208 
Q 928 2112 841 2029 
Q 755 1946 634 1946 
Q 525 1946 441 2029 
Q 358 2112 358 2240 
Q 358 2547 685 2752 
Q 986 2944 1421 2944 
Q 1939 2944 2176 2656 
Q 2291 2522 2323 2384 
Q 2355 2246 2355 1946 
L 2355 723 
Q 2355 301 2554 301 
Q 2682 301 2829 422 
z
M 1837 813 
L 1837 1715 
Q 1248 1510 1018 1293 
Q 800 1094 800 800 
Q 800 557 921 432 
Q 1043 307 1242 307 
Q 1453 307 1613 410 
Q 1747 506 1792 589 
Q 1837 672 1837 813 
z
" transform="scale(0.015625)"/>
     </defs>
     <use xlink:href="#STIXGeneral-Regular-4d"/>
     <use xlink:href="#STIXGeneral-Regular-65" x="88.899994"/>
     <use xlink:href="#STIXGeneral-Regular-64" x="133.299988"/>
     <use xlink:href="#STIXGeneral-Regular-69" x="183.299973"/>
     <use xlink:href="#STIXGeneral-Regular-61" x="211.09996"/>
     <use xlink:href="#STIXGeneral-Regular-6e" x="255.499954"/>
    </g>
   </g>
  </g>
  <g id="axes_2">
   <g id="patch_4">
    <path d="M 68.86 318.656896 
L 738.46 318.656896 
L 738.46 277.32093 
L 68.86 277.32093 
z
" style="fill: #ffffff"/>
   </g>
   <g id="patch_5">
    <path d="M 79.3225 315.704327 
L 100.2475 315.704327 
L 100.2475 309.799189 
L 79.3225 309.799189 
z
" clip-path="url(#p4a17188390)" style="fill: #ff0000; opacity: 0.4; stroke: #ff0000; stroke-linejoin: miter"/>
   </g>
   <g id="patch_6">
    <path d="M 121.1725 315.704327 
L 142.0975 315.704327 
L 142.0975 309.799189 
L 121.1725 309.799189 
z
" clip-path="url(#p4a17188390)" style="fill: #ff0000; opacity: 0.4; stroke: #ff0000; stroke-linejoin: miter"/>
   </g>
   <g id="patch_7">
    <path d="M 163.0225 315.704327 
L 183.9475 315.704327 
L 183.9475 309.799189 
L 163.0225 309.799189 
z
" clip-path="url(#p4a17188390)" style="fill: #ff0000; opacity: 0.4; stroke: #ff0000; stroke-linejoin: miter"/>
   </g>
   <g id="patch_8">
    <path d="M 204.8725 315.704327 
L 225.7975 315.704327 
L 225.7975 309.799189 
L 204.8725 309.799189 
z
" clip-path="url(#p4a17188390)" style="fill: #ff0000; opacity: 0.4; stroke: #ff0000; stroke-linejoin: miter"/>
   </g>
   <g id="patch_9">
    <path d="M 246.7225 315.704327 
L 267.6475 315.704327 
L 267.6475 309.799189 
L 246.7225 309.799189 
z
" clip-path="url(#p4a17188390)" style="fill: #ff0000; opacity: 0.4; stroke: #ff0000; stroke-linejoin: miter"/>
   </g>
   <g id="patch_10">
    <path d="M 288.5725 315.704327 
L 309.4975 315.704327 
L 309.4975 309.799189 
L 288.5725 309.799189 
z
" clip-path="url(#p4a17188390)" style="fill: #ff0000; opacity: 0.4; stroke: #ff0000; stroke-linejoin: miter"/>
   </g>
   <g id="patch_11">
    <path d="M 330.4225 315.704327 
L 351.3475 315.704327 
L 351.3475 309.799189 
L 330.4225 309.799189 
z
" clip-path="url(#p4a17188390)" style="fill: #ff0000; opacity: 0.4; stroke: #ff0000; stroke-linejoin: miter"/>
   </g>
   <g id="patch_12">
    <path d="M 372.2725 315.704327 
L 393.1975 315.704327 
L 393.1975 309.799189 
L 372.2725 309.799189 
z
" clip-path="url(#p4a17188390)" style="fill: #ff0000; opacity: 0.4; stroke: #ff0000; stroke-linejoin: miter"/>
   </g>
   <g id="patch_13">
    <path d="M 414.1225 315.704327 
L 435.0475 315.704327 
L 435.0475 309.799189 
L 414.1225 309.799189 
z
" clip-path="url(#p4a17188390)" style="fill: #f2f2f2; stroke: #f2f2f2; stroke-linejoin: miter"/>
   </g>
   <g id="patch_14">
    <path d="M 455.9725 315.704327 
L 476.8975 315.704327 
L 476.8975 309.799189 
L 455.9725 309.799189 
z
" clip-path="url(#p4a17188390)" style="fill: #f2f2f2; stroke: #f2f2f2; stroke-linejoin: miter"/>
   </g>
   <g id="patch_15">
    <path d="M 497.8225 315.704327 
L 518.7475 315.704327 
L 518.7475 309.799189 
L 497.8225 309.799189 
z
" clip-path="url(#p4a17188390)" style="fill: #f2f2f2; stroke: #f2f2f2; stroke-linejoin: miter"/>
   </g>
   <g id="patch_16">
    <path d="M 539.6725 315.704327 
L 560.5975 315.704327 
L 560.5975 309.799189 
L 539.6725 309.799189 
z
" clip-path="url(#p4a17188390)" style="fill: #f2f2f2; stroke: #f2f2f2; stroke-linejoin: miter"/>
   </g>
   <g id="patch_17">
    <path d="M 581.5225 315.704327 
L 602.4475 315.704327 
L 602.4475 309.799189 
L 581.5225 309.799189 
z
" clip-path="url(#p4a17188390)" style="fill: #f2f2f2; stroke: #f2f2f2; stroke-linejoin: miter"/>
   </g>
   <g id="patch_18">
    <path d="M 623.3725 315.704327 
L 644.2975 315.704327 
L 644.2975 309.799189 
L 623.3725 309.799189 
z
" clip-path="url(#p4a17188390)" style="fill: #f2f2f2; stroke: #f2f2f2; stroke-linejoin: miter"/>
   </g>
   <g id="patch_19">
    <path d="M 665.2225 315.704327 
L 686.1475 315.704327 
L 686.1475 309.799189 
L 665.2225 309.799189 
z
" clip-path="url(#p4a17188390)" style="fill: #f2f2f2; stroke: #f2f2f2; stroke-linejoin: miter"/>
   </g>
   <g id="patch_20">
    <path d="M 707.0725 315.704327 
L 727.9975 315.704327 
L 727.9975 309.799189 
L 707.0725 309.799189 
z
" clip-path="url(#p4a17188390)" style="fill: #f2f2f2; stroke: #f2f2f2; stroke-linejoin: miter"/>
   </g>
   <g id="patch_21">
    <path d="M 79.3225 286.178637 
L 100.2475 286.178637 
L 100.2475 280.273499 
L 79.3225 280.273499 
z
" clip-path="url(#p4a17188390)" style="fill: #f2f2f2; stroke: #f2f2f2; stroke-linejoin: miter"/>
   </g>
   <g id="patch_22">
    <path d="M 121.1725 286.178637 
L 142.0975 286.178637 
L 142.0975 280.273499 
L 121.1725 280.273499 
z
" clip-path="url(#p4a17188390)" style="fill: #f2f2f2; stroke: #f2f2f2; stroke-linejoin: miter"/>
   </g>
   <g id="patch_23">
    <path d="M 163.0225 286.178637 
L 183.9475 286.178637 
L 183.9475 280.273499 
L 163.0225 280.273499 
z
" clip-path="url(#p4a17188390)" style="fill: #f2f2f2; stroke: #f2f2f2; stroke-linejoin: miter"/>
   </g>
   <g id="patch_24">
    <path d="M 204.8725 286.178637 
L 225.7975 286.178637 
L 225.7975 280.273499 
L 204.8725 280.273499 
z
" clip-path="url(#p4a17188390)" style="fill: #f2f2f2; stroke: #f2f2f2; stroke-linejoin: miter"/>
   </g>
   <g id="patch_25">
    <path d="M 246.7225 286.178637 
L 267.6475 286.178637 
L 267.6475 280.273499 
L 246.7225 280.273499 
z
" clip-path="url(#p4a17188390)" style="fill: #f2f2f2; stroke: #f2f2f2; stroke-linejoin: miter"/>
   </g>
   <g id="patch_26">
    <path d="M 288.5725 286.178637 
L 309.4975 286.178637 
L 309.4975 280.273499 
L 288.5725 280.273499 
z
" clip-path="url(#p4a17188390)" style="fill: #f2f2f2; stroke: #f2f2f2; stroke-linejoin: miter"/>
   </g>
   <g id="patch_27">
    <path d="M 330.4225 286.178637 
L 351.3475 286.178637 
L 351.3475 280.273499 
L 330.4225 280.273499 
z
" clip-path="url(#p4a17188390)" style="fill: #f2f2f2; stroke: #f2f2f2; stroke-linejoin: miter"/>
   </g>
   <g id="patch_28">
    <path d="M 372.2725 286.178637 
L 393.1975 286.178637 
L 393.1975 280.273499 
L 372.2725 280.273499 
z
" clip-path="url(#p4a17188390)" style="fill: #f2f2f2; stroke: #f2f2f2; stroke-linejoin: miter"/>
   </g>
   <g id="patch_29">
    <path d="M 414.1225 286.178637 
L 435.0475 286.178637 
L 435.0475 280.273499 
L 414.1225 280.273499 
z
" clip-path="url(#p4a17188390)" style="fill: #ff0000; opacity: 0.4; stroke: #ff0000; stroke-linejoin: miter"/>
   </g>
   <g id="patch_30">
    <path d="M 455.9725 286.178637 
L 476.8975 286.178637 
L 476.8975 280.273499 
L 455.9725 280.273499 
z
" clip-path="url(#p4a17188390)" style="fill: #ff0000; opacity: 0.4; stroke: #ff0000; stroke-linejoin: miter"/>
   </g>
   <g id="patch_31">
    <path d="M 497.8225 286.178637 
L 518.7475 286.178637 
L 518.7475 280.273499 
L 497.8225 280.273499 
z
" clip-path="url(#p4a17188390)" style="fill: #ff0000; opacity: 0.4; stroke: #ff0000; stroke-linejoin: miter"/>
   </g>
   <g id="patch_32">
    <path d="M 539.6725 286.178637 
L 560.5975 286.178637 
L 560.5975 280.273499 
L 539.6725 280.273499 
z
" clip-path="url(#p4a17188390)" style="fill: #ff0000; opacity: 0.4; stroke: #ff0000; stroke-linejoin: miter"/>
   </g>
   <g id="patch_33">
    <path d="M 581.5225 286.178637 
L 602.4475 286.178637 
L 602.4475 280.273499 
L 581.5225 280.273499 
z
" clip-path="url(#p4a17188390)" style="fill: #ff0000; opacity: 0.4; stroke: #ff0000; stroke-linejoin: miter"/>
   </g>
   <g id="patch_34">
    <path d="M 623.3725 286.178637 
L 644.2975 286.178637 
L 644.2975 280.273499 
L 623.3725 280.273499 
z
" clip-path="url(#p4a17188390)" style="fill: #ff0000; opacity: 0.4; stroke: #ff0000; stroke-linejoin: miter"/>
   </g>
   <g id="patch_35">
    <path d="M 665.2225 286.178637 
L 686.1475 286.178637 
L 686.1475 280.273499 
L 665.2225 280.273499 
z
" clip-path="url(#p4a17188390)" style="fill: #ff0000; opacity: 0.4; stroke: #ff0000; stroke-linejoin: miter"/>
   </g>
   <g id="patch_36">
    <path d="M 707.0725 286.178637 
L 727.9975 286.178637 
L 727.9975 280.273499 
L 707.0725 280.273499 
z
" clip-path="url(#p4a17188390)" style="fill: #ff0000; opacity: 0.4; stroke: #ff0000; stroke-linejoin: miter"/>
   </g>
   <g id="matplotlib.axis_3"/>
   <g id="matplotlib.axis_4">
    <g id="ytick_29">
     <g id="line2d_31">
      <g>
       <use xlink:href="#md4db944bc0" x="68.86" y="312.751758" style="stroke: #000000; stroke-width: 0.8"/>
      </g>
     </g>
     <g id="text_8">
      <!-- x_1 -->
      <g transform="translate(43.86 316.84957) scale(0.12 -0.12)">
       <defs>
        <path id="STIXGeneral-Regular-78" d="M 3066 0 
L 1779 0 
L 1779 96 
Q 1939 109 1987 137 
Q 2035 166 2035 250 
Q 2035 307 1997 365 
L 1414 1261 
L 909 474 
Q 781 275 781 211 
Q 781 96 1037 96 
L 1037 0 
L 109 0 
L 109 96 
Q 269 109 355 169 
Q 442 230 576 422 
L 1306 1478 
L 704 2400 
Q 557 2624 454 2704 
Q 352 2784 211 2784 
L 154 2784 
L 154 2880 
L 1478 2880 
L 1478 2784 
Q 1203 2778 1203 2643 
Q 1203 2509 1498 2074 
Q 1581 1958 1587 1946 
Q 1619 1990 1779 2227 
Q 1811 2285 1856 2349 
Q 1901 2413 1923 2451 
Q 1946 2490 1971 2528 
Q 1997 2566 2006 2595 
Q 2016 2624 2016 2643 
Q 2016 2765 1760 2784 
L 1760 2880 
L 2771 2880 
L 2771 2784 
Q 2445 2771 2253 2502 
L 1722 1734 
L 2541 480 
Q 2790 96 3066 96 
L 3066 0 
z
" transform="scale(0.015625)"/>
        <path id="STIXGeneral-Regular-5f" d="M 3200 -800 
L 0 -800 
L 0 -480 
L 3200 -480 
L 3200 -800 
z
" transform="scale(0.015625)"/>
        <path id="STIXGeneral-Regular-31" d="M 2522 0 
L 755 0 
L 755 96 
Q 1107 115 1235 227 
Q 1363 339 1363 608 
L 1363 3482 
Q 1363 3795 1171 3795 
Q 1082 3795 883 3718 
L 710 3654 
L 710 3744 
L 1856 4326 
L 1914 4307 
L 1914 486 
Q 1914 275 2042 185 
Q 2170 96 2522 96 
L 2522 0 
z
" transform="scale(0.015625)"/>
       </defs>
       <use xlink:href="#STIXGeneral-Regular-78"/>
       <use xlink:href="#STIXGeneral-Regular-5f" x="49.999985"/>
       <use xlink:href="#STIXGeneral-Regular-31" x="99.999969"/>
      </g>
     </g>
    </g>
    <g id="ytick_30">
     <g id="line2d_32">
      <g>
       <use xlink:href="#md4db944bc0" x="68.86" y="283.226068" style="stroke: #000000; stroke-width: 0.8"/>
      </g>
     </g>
     <g id="text_9">
      <!-- x_5 -->
      <g transform="translate(43.86 287.32388) scale(0.12 -0.12)">
       <use xlink:href="#STIXGeneral-Regular-78"/>
       <use xlink:href="#STIXGeneral-Regular-5f" x="49.999985"/>
       <use xlink:href="#STIXGeneral-Regular-35" x="99.999969"/>
      </g>
     </g>
    </g>
   </g>
   <g id="patch_37">
    <path d="M 68.86 318.656896 
L 68.86 277.32093 
" style="fill: none; stroke: #000000; stroke-width: 0.8; stroke-linejoin: miter; stroke-linecap: square"/>
   </g>
   <g id="text_10">
    <!-- x -->
    <g transform="translate(748.870844 295.238913) rotate(-270) scale(0.11 -0.11)">
     <use xlink:href="#STIXGeneral-Regular-78"/>
    </g>
   </g>
  </g>
  <g id="axes_3">
   <g id="patch_38">
    <path d="M 68.86 379.27634 
L 738.46 379.27634 
L 738.46 337.940374 
L 68.86 337.940374 
z
" style="fill: #ffffff"/>
   </g>
   <g id="patch_39">
    <path d="M 79.3225 376.323771 
L 100.2475 376.323771 
L 100.2475 370.418633 
L 79.3225 370.418633 
z
" clip-path="url(#p5640add422)" style="fill: #f2f2f2; stroke: #f2f2f2; stroke-linejoin: miter"/>
   </g>
   <g id="patch_40">
    <path d="M 121.1725 376.323771 
L 142.0975 376.323771 
L 142.0975 370.418633 
L 121.1725 370.418633 
z
" clip-path="url(#p5640add422)" style="fill: #f2f2f2; stroke: #f2f2f2; stroke-linejoin: miter"/>
   </g>
   <g id="patch_41">
    <path d="M 163.0225 376.323771 
L 183.9475 376.323771 
L 183.9475 370.418633 
L 163.0225 370.418633 
z
" clip-path="url(#p5640add422)" style="fill: #f2f2f2; stroke: #f2f2f2; stroke-linejoin: miter"/>
   </g>
   <g id="patch_42">
    <path d="M 204.8725 376.323771 
L 225.7975 376.323771 
L 225.7975 370.418633 
L 204.8725 370.418633 
z
" clip-path="url(#p5640add422)" style="fill: #f2f2f2; stroke: #f2f2f2; stroke-linejoin: miter"/>
   </g>
   <g id="patch_43">
    <path d="M 246.7225 376.323771 
L 267.6475 376.323771 
L 267.6475 370.418633 
L 246.7225 370.418633 
z
" clip-path="url(#p5640add422)" style="fill: #ff0000; opacity: 0.4; stroke: #ff0000; stroke-linejoin: miter"/>
   </g>
   <g id="patch_44">
    <path d="M 288.5725 376.323771 
L 309.4975 376.323771 
L 309.4975 370.418633 
L 288.5725 370.418633 
z
" clip-path="url(#p5640add422)" style="fill: #ff0000; opacity: 0.4; stroke: #ff0000; stroke-linejoin: miter"/>
   </g>
   <g id="patch_45">
    <path d="M 330.4225 376.323771 
L 351.3475 376.323771 
L 351.3475 370.418633 
L 330.4225 370.418633 
z
" clip-path="url(#p5640add422)" style="fill: #ff0000; opacity: 0.4; stroke: #ff0000; stroke-linejoin: miter"/>
   </g>
   <g id="patch_46">
    <path d="M 372.2725 376.323771 
L 393.1975 376.323771 
L 393.1975 370.418633 
L 372.2725 370.418633 
z
" clip-path="url(#p5640add422)" style="fill: #ff0000; opacity: 0.4; stroke: #ff0000; stroke-linejoin: miter"/>
   </g>
   <g id="patch_47">
    <path d="M 414.1225 376.323771 
L 435.0475 376.323771 
L 435.0475 370.418633 
L 414.1225 370.418633 
z
" clip-path="url(#p5640add422)" style="fill: #ff0000; opacity: 0.4; stroke: #ff0000; stroke-linejoin: miter"/>
   </g>
   <g id="patch_48">
    <path d="M 455.9725 376.323771 
L 476.8975 376.323771 
L 476.8975 370.418633 
L 455.9725 370.418633 
z
" clip-path="url(#p5640add422)" style="fill: #ff0000; opacity: 0.4; stroke: #ff0000; stroke-linejoin: miter"/>
   </g>
   <g id="patch_49">
    <path d="M 497.8225 376.323771 
L 518.7475 376.323771 
L 518.7475 370.418633 
L 497.8225 370.418633 
z
" clip-path="url(#p5640add422)" style="fill: #ff0000; opacity: 0.4; stroke: #ff0000; stroke-linejoin: miter"/>
   </g>
   <g id="patch_50">
    <path d="M 539.6725 376.323771 
L 560.5975 376.323771 
L 560.5975 370.418633 
L 539.6725 370.418633 
z
" clip-path="url(#p5640add422)" style="fill: #ff0000; opacity: 0.4; stroke: #ff0000; stroke-linejoin: miter"/>
   </g>
   <g id="patch_51">
    <path d="M 581.5225 376.323771 
L 602.4475 376.323771 
L 602.4475 370.418633 
L 581.5225 370.418633 
z
" clip-path="url(#p5640add422)" style="fill: #f2f2f2; stroke: #f2f2f2; stroke-linejoin: miter"/>
   </g>
   <g id="patch_52">
    <path d="M 623.3725 376.323771 
L 644.2975 376.323771 
L 644.2975 370.418633 
L 623.3725 370.418633 
z
" clip-path="url(#p5640add422)" style="fill: #f2f2f2; stroke: #f2f2f2; stroke-linejoin: miter"/>
   </g>
   <g id="patch_53">
    <path d="M 665.2225 376.323771 
L 686.1475 376.323771 
L 686.1475 370.418633 
L 665.2225 370.418633 
z
" clip-path="url(#p5640add422)" style="fill: #f2f2f2; stroke: #f2f2f2; stroke-linejoin: miter"/>
   </g>
   <g id="patch_54">
    <path d="M 707.0725 376.323771 
L 727.9975 376.323771 
L 727.9975 370.418633 
L 707.0725 370.418633 
z
" clip-path="url(#p5640add422)" style="fill: #f2f2f2; stroke: #f2f2f2; stroke-linejoin: miter"/>
   </g>
   <g id="patch_55">
    <path d="M 79.3225 346.798081 
L 100.2475 346.798081 
L 100.2475 340.892943 
L 79.3225 340.892943 
z
" clip-path="url(#p5640add422)" style="fill: #ff0000; opacity: 0.4; stroke: #ff0000; stroke-linejoin: miter"/>
   </g>
   <g id="patch_56">
    <path d="M 121.1725 346.798081 
L 142.0975 346.798081 
L 142.0975 340.892943 
L 121.1725 340.892943 
z
" clip-path="url(#p5640add422)" style="fill: #ff0000; opacity: 0.4; stroke: #ff0000; stroke-linejoin: miter"/>
   </g>
   <g id="patch_57">
    <path d="M 163.0225 346.798081 
L 183.9475 346.798081 
L 183.9475 340.892943 
L 163.0225 340.892943 
z
" clip-path="url(#p5640add422)" style="fill: #ff0000; opacity: 0.4; stroke: #ff0000; stroke-linejoin: miter"/>
   </g>
   <g id="patch_58">
    <path d="M 204.8725 346.798081 
L 225.7975 346.798081 
L 225.7975 340.892943 
L 204.8725 340.892943 
z
" clip-path="url(#p5640add422)" style="fill: #ff0000; opacity: 0.4; stroke: #ff0000; stroke-linejoin: miter"/>
   </g>
   <g id="patch_59">
    <path d="M 246.7225 346.798081 
L 267.6475 346.798081 
L 267.6475 340.892943 
L 246.7225 340.892943 
z
" clip-path="url(#p5640add422)" style="fill: #f2f2f2; stroke: #f2f2f2; stroke-linejoin: miter"/>
   </g>
   <g id="patch_60">
    <path d="M 288.5725 346.798081 
L 309.4975 346.798081 
L 309.4975 340.892943 
L 288.5725 340.892943 
z
" clip-path="url(#p5640add422)" style="fill: #f2f2f2; stroke: #f2f2f2; stroke-linejoin: miter"/>
   </g>
   <g id="patch_61">
    <path d="M 330.4225 346.798081 
L 351.3475 346.798081 
L 351.3475 340.892943 
L 330.4225 340.892943 
z
" clip-path="url(#p5640add422)" style="fill: #f2f2f2; stroke: #f2f2f2; stroke-linejoin: miter"/>
   </g>
   <g id="patch_62">
    <path d="M 372.2725 346.798081 
L 393.1975 346.798081 
L 393.1975 340.892943 
L 372.2725 340.892943 
z
" clip-path="url(#p5640add422)" style="fill: #f2f2f2; stroke: #f2f2f2; stroke-linejoin: miter"/>
   </g>
   <g id="patch_63">
    <path d="M 414.1225 346.798081 
L 435.0475 346.798081 
L 435.0475 340.892943 
L 414.1225 340.892943 
z
" clip-path="url(#p5640add422)" style="fill: #f2f2f2; stroke: #f2f2f2; stroke-linejoin: miter"/>
   </g>
   <g id="patch_64">
    <path d="M 455.9725 346.798081 
L 476.8975 346.798081 
L 476.8975 340.892943 
L 455.9725 340.892943 
z
" clip-path="url(#p5640add422)" style="fill: #f2f2f2; stroke: #f2f2f2; stroke-linejoin: miter"/>
   </g>
   <g id="patch_65">
    <path d="M 497.8225 346.798081 
L 518.7475 346.798081 
L 518.7475 340.892943 
L 497.8225 340.892943 
z
" clip-path="url(#p5640add422)" style="fill: #f2f2f2; stroke: #f2f2f2; stroke-linejoin: miter"/>
   </g>
   <g id="patch_66">
    <path d="M 539.6725 346.798081 
L 560.5975 346.798081 
L 560.5975 340.892943 
L 539.6725 340.892943 
z
" clip-path="url(#p5640add422)" style="fill: #f2f2f2; stroke: #f2f2f2; stroke-linejoin: miter"/>
   </g>
   <g id="patch_67">
    <path d="M 581.5225 346.798081 
L 602.4475 346.798081 
L 602.4475 340.892943 
L 581.5225 340.892943 
z
" clip-path="url(#p5640add422)" style="fill: #ff0000; opacity: 0.4; stroke: #ff0000; stroke-linejoin: miter"/>
   </g>
   <g id="patch_68">
    <path d="M 623.3725 346.798081 
L 644.2975 346.798081 
L 644.2975 340.892943 
L 623.3725 340.892943 
z
" clip-path="url(#p5640add422)" style="fill: #ff0000; opacity: 0.4; stroke: #ff0000; stroke-linejoin: miter"/>
   </g>
   <g id="patch_69">
    <path d="M 665.2225 346.798081 
L 686.1475 346.798081 
L 686.1475 340.892943 
L 665.2225 340.892943 
z
" clip-path="url(#p5640add422)" style="fill: #ff0000; opacity: 0.4; stroke: #ff0000; stroke-linejoin: miter"/>
   </g>
   <g id="patch_70">
    <path d="M 707.0725 346.798081 
L 727.9975 346.798081 
L 727.9975 340.892943 
L 707.0725 340.892943 
z
" clip-path="url(#p5640add422)" style="fill: #ff0000; opacity: 0.4; stroke: #ff0000; stroke-linejoin: miter"/>
   </g>
   <g id="matplotlib.axis_5"/>
   <g id="matplotlib.axis_6">
    <g id="ytick_31">
     <g id="line2d_33">
      <g>
       <use xlink:href="#md4db944bc0" x="68.86" y="373.371202" style="stroke: #000000; stroke-width: 0.8"/>
      </g>
     </g>
     <g id="text_11">
      <!-- y -->
      <g transform="translate(55.86 377.46339) scale(0.12 -0.12)">
       <defs>
        <path id="STIXGeneral-Regular-79" d="M 3040 2880 
L 3040 2784 
Q 2925 2771 2854 2700 
Q 2784 2630 2720 2458 
L 1760 -160 
Q 1510 -838 1257 -1116 
Q 1005 -1395 640 -1395 
Q 435 -1395 313 -1289 
Q 192 -1184 192 -1024 
Q 192 -902 272 -816 
Q 352 -730 467 -730 
Q 653 -730 800 -813 
Q 883 -858 966 -858 
Q 1101 -858 1286 -576 
Q 1376 -448 1459 -211 
Q 1542 26 1542 115 
Q 1542 198 1274 762 
L 429 2566 
Q 346 2752 90 2790 
L 90 2880 
L 1402 2880 
L 1402 2784 
Q 1197 2778 1117 2739 
Q 1037 2701 1037 2611 
Q 1037 2541 1120 2349 
L 1837 749 
L 2458 2515 
Q 2483 2573 2483 2630 
Q 2483 2784 2189 2784 
L 2189 2880 
L 3040 2880 
z
" transform="scale(0.015625)"/>
       </defs>
       <use xlink:href="#STIXGeneral-Regular-79"/>
      </g>
     </g>
    </g>
    <g id="ytick_32">
     <g id="line2d_34">
      <g>
       <use xlink:href="#md4db944bc0" x="68.86" y="343.845512" style="stroke: #000000; stroke-width: 0.8"/>
      </g>
     </g>
     <g id="text_12">
      <!-- y2 -->
      <g transform="translate(49.86 347.9377) scale(0.12 -0.12)">
       <use xlink:href="#STIXGeneral-Regular-79"/>
       <use xlink:href="#STIXGeneral-Regular-32" x="49.999985"/>
      </g>
     </g>
    </g>
   </g>
   <g id="patch_71">
    <path d="M 68.86 379.27634 
L 68.86 337.940374 
" style="fill: none; stroke: #000000; stroke-width: 0.8; stroke-linejoin: miter; stroke-linecap: square"/>
   </g>
   <g id="text_13">
    <!-- y -->
    <g transform="translate(748.881156 355.858357) rotate(-270) scale(0.11 -0.11)">
     <use xlink:href="#STIXGeneral-Regular-79"/>
    </g>
   </g>
  </g>
  <g id="axes_4">
   <g id="patch_72">
    <path d="M 68.86 450.72 
L 738.46 450.72 
L 738.46 398.559818 
L 68.86 398.559818 
z
" style="fill: #ffffff"/>
   </g>
   <g id="patch_73">
    <path d="M 79.3225 448.546659 
L 100.2475 448.546659 
L 100.2475 444.199977 
L 79.3225 444.199977 
z
" clip-path="url(#pa874a52809)" style="fill: #ff0000; opacity: 0.4; stroke: #ff0000; stroke-linejoin: miter"/>
   </g>
   <g id="patch_74">
    <path d="M 121.1725 448.546659 
L 142.0975 448.546659 
L 142.0975 444.199977 
L 121.1725 444.199977 
z
" clip-path="url(#pa874a52809)" style="fill: #ff0000; opacity: 0.4; stroke: #ff0000; stroke-linejoin: miter"/>
   </g>
   <g id="patch_75">
    <path d="M 163.0225 448.546659 
L 183.9475 448.546659 
L 183.9475 444.199977 
L 163.0225 444.199977 
z
" clip-path="url(#pa874a52809)" style="fill: #ff0000; opacity: 0.4; stroke: #ff0000; stroke-linejoin: miter"/>
   </g>
   <g id="patch_76">
    <path d="M 204.8725 448.546659 
L 225.7975 448.546659 
L 225.7975 444.199977 
L 204.8725 444.199977 
z
" clip-path="url(#pa874a52809)" style="fill: #ff0000; opacity: 0.4; stroke: #ff0000; stroke-linejoin: miter"/>
   </g>
   <g id="patch_77">
    <path d="M 246.7225 448.546659 
L 267.6475 448.546659 
L 267.6475 444.199977 
L 246.7225 444.199977 
z
" clip-path="url(#pa874a52809)" style="fill: #ff0000; opacity: 0.4; stroke: #ff0000; stroke-linejoin: miter"/>
   </g>
   <g id="patch_78">
    <path d="M 288.5725 448.546659 
L 309.4975 448.546659 
L 309.4975 444.199977 
L 288.5725 444.199977 
z
" clip-path="url(#pa874a52809)" style="fill: #ff0000; opacity: 0.4; stroke: #ff0000; stroke-linejoin: miter"/>
   </g>
   <g id="patch_79">
    <path d="M 330.4225 448.546659 
L 351.3475 448.546659 
L 351.3475 444.199977 
L 330.4225 444.199977 
z
" clip-path="url(#pa874a52809)" style="fill: #ff0000; opacity: 0.4; stroke: #ff0000; stroke-linejoin: miter"/>
   </g>
   <g id="patch_80">
    <path d="M 372.2725 448.546659 
L 393.1975 448.546659 
L 393.1975 444.199977 
L 372.2725 444.199977 
z
" clip-path="url(#pa874a52809)" style="fill: #ff0000; opacity: 0.4; stroke: #ff0000; stroke-linejoin: miter"/>
   </g>
   <g id="patch_81">
    <path d="M 414.1225 448.546659 
L 435.0475 448.546659 
L 435.0475 444.199977 
L 414.1225 444.199977 
z
" clip-path="url(#pa874a52809)" style="fill: #ff0000; opacity: 0.4; stroke: #ff0000; stroke-linejoin: miter"/>
   </g>
   <g id="patch_82">
    <path d="M 455.9725 448.546659 
L 476.8975 448.546659 
L 476.8975 444.199977 
L 455.9725 444.199977 
z
" clip-path="url(#pa874a52809)" style="fill: #ff0000; opacity: 0.4; stroke: #ff0000; stroke-linejoin: miter"/>
   </g>
   <g id="patch_83">
    <path d="M 497.8225 448.546659 
L 518.7475 448.546659 
L 518.7475 444.199977 
L 497.8225 444.199977 
z
" clip-path="url(#pa874a52809)" style="fill: #ff0000; opacity: 0.4; stroke: #ff0000; stroke-linejoin: miter"/>
   </g>
   <g id="patch_84">
    <path d="M 539.6725 448.546659 
L 560.5975 448.546659 
L 560.5975 444.199977 
L 539.6725 444.199977 
z
" clip-path="url(#pa874a52809)" style="fill: #ff0000; opacity: 0.4; stroke: #ff0000; stroke-linejoin: miter"/>
   </g>
   <g id="patch_85">
    <path d="M 581.5225 448.546659 
L 602.4475 448.546659 
L 602.4475 444.199977 
L 581.5225 444.199977 
z
" clip-path="url(#pa874a52809)" style="fill: #ff0000; opacity: 0.4; stroke: #ff0000; stroke-linejoin: miter"/>
   </g>
   <g id="patch_86">
    <path d="M 623.3725 448.546659 
L 644.2975 448.546659 
L 644.2975 444.199977 
L 623.3725 444.199977 
z
" clip-path="url(#pa874a52809)" style="fill: #ff0000; opacity: 0.4; stroke: #ff0000; stroke-linejoin: miter"/>
   </g>
   <g id="patch_87">
    <path d="M 665.2225 448.546659 
L 686.1475 448.546659 
L 686.1475 444.199977 
L 665.2225 444.199977 
z
" clip-path="url(#pa874a52809)" style="fill: #ff0000; opacity: 0.4; stroke: #ff0000; stroke-linejoin: miter"/>
   </g>
   <g id="patch_88">
    <path d="M 707.0725 448.546659 
L 727.9975 448.546659 
L 727.9975 444.199977 
L 707.0725 444.199977 
z
" clip-path="url(#pa874a52809)" style="fill: #ff0000; opacity: 0.4; stroke: #ff0000; stroke-linejoin: miter"/>
   </g>
   <g id="patch_89">
    <path d="M 79.3225 426.81325 
L 100.2475 426.81325 
L 100.2475 422.466568 
L 79.3225 422.466568 
z
" clip-path="url(#pa874a52809)" style="fill: #f2f2f2; stroke: #f2f2f2; stroke-linejoin: miter"/>
   </g>
   <g id="patch_90">
    <path d="M 121.1725 426.81325 
L 142.0975 426.81325 
L 142.0975 422.466568 
L 121.1725 422.466568 
z
" clip-path="url(#pa874a52809)" style="fill: #f2f2f2; stroke: #f2f2f2; stroke-linejoin: miter"/>
   </g>
   <g id="patch_91">
    <path d="M 163.0225 426.81325 
L 183.9475 426.81325 
L 183.9475 422.466568 
L 163.0225 422.466568 
z
" clip-path="url(#pa874a52809)" style="fill: #ff0000; opacity: 0.4; stroke: #ff0000; stroke-linejoin: miter"/>
   </g>
   <g id="patch_92">
    <path d="M 204.8725 426.81325 
L 225.7975 426.81325 
L 225.7975 422.466568 
L 204.8725 422.466568 
z
" clip-path="url(#pa874a52809)" style="fill: #ff0000; opacity: 0.4; stroke: #ff0000; stroke-linejoin: miter"/>
   </g>
   <g id="patch_93">
    <path d="M 246.7225 426.81325 
L 267.6475 426.81325 
L 267.6475 422.466568 
L 246.7225 422.466568 
z
" clip-path="url(#pa874a52809)" style="fill: #f2f2f2; stroke: #f2f2f2; stroke-linejoin: miter"/>
   </g>
   <g id="patch_94">
    <path d="M 288.5725 426.81325 
L 309.4975 426.81325 
L 309.4975 422.466568 
L 288.5725 422.466568 
z
" clip-path="url(#pa874a52809)" style="fill: #f2f2f2; stroke: #f2f2f2; stroke-linejoin: miter"/>
   </g>
   <g id="patch_95">
    <path d="M 330.4225 426.81325 
L 351.3475 426.81325 
L 351.3475 422.466568 
L 330.4225 422.466568 
z
" clip-path="url(#pa874a52809)" style="fill: #ff0000; opacity: 0.4; stroke: #ff0000; stroke-linejoin: miter"/>
   </g>
   <g id="patch_96">
    <path d="M 372.2725 426.81325 
L 393.1975 426.81325 
L 393.1975 422.466568 
L 372.2725 422.466568 
z
" clip-path="url(#pa874a52809)" style="fill: #ff0000; opacity: 0.4; stroke: #ff0000; stroke-linejoin: miter"/>
   </g>
   <g id="patch_97">
    <path d="M 414.1225 426.81325 
L 435.0475 426.81325 
L 435.0475 422.466568 
L 414.1225 422.466568 
z
" clip-path="url(#pa874a52809)" style="fill: #f2f2f2; stroke: #f2f2f2; stroke-linejoin: miter"/>
   </g>
   <g id="patch_98">
    <path d="M 455.9725 426.81325 
L 476.8975 426.81325 
L 476.8975 422.466568 
L 455.9725 422.466568 
z
" clip-path="url(#pa874a52809)" style="fill: #f2f2f2; stroke: #f2f2f2; stroke-linejoin: miter"/>
   </g>
   <g id="patch_99">
    <path d="M 497.8225 426.81325 
L 518.7475 426.81325 
L 518.7475 422.466568 
L 497.8225 422.466568 
z
" clip-path="url(#pa874a52809)" style="fill: #ff0000; opacity: 0.4; stroke: #ff0000; stroke-linejoin: miter"/>
   </g>
   <g id="patch_100">
    <path d="M 539.6725 426.81325 
L 560.5975 426.81325 
L 560.5975 422.466568 
L 539.6725 422.466568 
z
" clip-path="url(#pa874a52809)" style="fill: #ff0000; opacity: 0.4; stroke: #ff0000; stroke-linejoin: miter"/>
   </g>
   <g id="patch_101">
    <path d="M 581.5225 426.81325 
L 602.4475 426.81325 
L 602.4475 422.466568 
L 581.5225 422.466568 
z
" clip-path="url(#pa874a52809)" style="fill: #f2f2f2; stroke: #f2f2f2; stroke-linejoin: miter"/>
   </g>
   <g id="patch_102">
    <path d="M 623.3725 426.81325 
L 644.2975 426.81325 
L 644.2975 422.466568 
L 623.3725 422.466568 
z
" clip-path="url(#pa874a52809)" style="fill: #f2f2f2; stroke: #f2f2f2; stroke-linejoin: miter"/>
   </g>
   <g id="patch_103">
    <path d="M 665.2225 426.81325 
L 686.1475 426.81325 
L 686.1475 422.466568 
L 665.2225 422.466568 
z
" clip-path="url(#pa874a52809)" style="fill: #ff0000; opacity: 0.4; stroke: #ff0000; stroke-linejoin: miter"/>
   </g>
   <g id="patch_104">
    <path d="M 707.0725 426.81325 
L 727.9975 426.81325 
L 727.9975 422.466568 
L 707.0725 422.466568 
z
" clip-path="url(#pa874a52809)" style="fill: #ff0000; opacity: 0.4; stroke: #ff0000; stroke-linejoin: miter"/>
   </g>
   <g id="patch_105">
    <path d="M 79.3225 405.079841 
L 100.2475 405.079841 
L 100.2475 400.733159 
L 79.3225 400.733159 
z
" clip-path="url(#pa874a52809)" style="fill: #ff0000; opacity: 0.4; stroke: #ff0000; stroke-linejoin: miter"/>
   </g>
   <g id="patch_106">
    <path d="M 121.1725 405.079841 
L 142.0975 405.079841 
L 142.0975 400.733159 
L 121.1725 400.733159 
z
" clip-path="url(#pa874a52809)" style="fill: #f2f2f2; stroke: #f2f2f2; stroke-linejoin: miter"/>
   </g>
   <g id="patch_107">
    <path d="M 163.0225 405.079841 
L 183.9475 405.079841 
L 183.9475 400.733159 
L 163.0225 400.733159 
z
" clip-path="url(#pa874a52809)" style="fill: #f2f2f2; stroke: #f2f2f2; stroke-linejoin: miter"/>
   </g>
   <g id="patch_108">
    <path d="M 204.8725 405.079841 
L 225.7975 405.079841 
L 225.7975 400.733159 
L 204.8725 400.733159 
z
" clip-path="url(#pa874a52809)" style="fill: #ff0000; opacity: 0.4; stroke: #ff0000; stroke-linejoin: miter"/>
   </g>
   <g id="patch_109">
    <path d="M 246.7225 405.079841 
L 267.6475 405.079841 
L 267.6475 400.733159 
L 246.7225 400.733159 
z
" clip-path="url(#pa874a52809)" style="fill: #f2f2f2; stroke: #f2f2f2; stroke-linejoin: miter"/>
   </g>
   <g id="patch_110">
    <path d="M 288.5725 405.079841 
L 309.4975 405.079841 
L 309.4975 400.733159 
L 288.5725 400.733159 
z
" clip-path="url(#pa874a52809)" style="fill: #ff0000; opacity: 0.4; stroke: #ff0000; stroke-linejoin: miter"/>
   </g>
   <g id="patch_111">
    <path d="M 330.4225 405.079841 
L 351.3475 405.079841 
L 351.3475 400.733159 
L 330.4225 400.733159 
z
" clip-path="url(#pa874a52809)" style="fill: #f2f2f2; stroke: #f2f2f2; stroke-linejoin: miter"/>
   </g>
   <g id="patch_112">
    <path d="M 372.2725 405.079841 
L 393.1975 405.079841 
L 393.1975 400.733159 
L 372.2725 400.733159 
z
" clip-path="url(#pa874a52809)" style="fill: #ff0000; opacity: 0.4; stroke: #ff0000; stroke-linejoin: miter"/>
   </g>
   <g id="patch_113">
    <path d="M 414.1225 405.079841 
L 435.0475 405.079841 
L 435.0475 400.733159 
L 414.1225 400.733159 
z
" clip-path="url(#pa874a52809)" style="fill: #f2f2f2; stroke: #f2f2f2; stroke-linejoin: miter"/>
   </g>
   <g id="patch_114">
    <path d="M 455.9725 405.079841 
L 476.8975 405.079841 
L 476.8975 400.733159 
L 455.9725 400.733159 
z
" clip-path="url(#pa874a52809)" style="fill: #ff0000; opacity: 0.4; stroke: #ff0000; stroke-linejoin: miter"/>
   </g>
   <g id="patch_115">
    <path d="M 497.8225 405.079841 
L 518.7475 405.079841 
L 518.7475 400.733159 
L 497.8225 400.733159 
z
" clip-path="url(#pa874a52809)" style="fill: #f2f2f2; stroke: #f2f2f2; stroke-linejoin: miter"/>
   </g>
   <g id="patch_116">
    <path d="M 539.6725 405.079841 
L 560.5975 405.079841 
L 560.5975 400.733159 
L 539.6725 400.733159 
z
" clip-path="url(#pa874a52809)" style="fill: #ff0000; opacity: 0.4; stroke: #ff0000; stroke-linejoin: miter"/>
   </g>
   <g id="patch_117">
    <path d="M 581.5225 405.079841 
L 602.4475 405.079841 
L 602.4475 400.733159 
L 581.5225 400.733159 
z
" clip-path="url(#pa874a52809)" style="fill: #ff0000; opacity: 0.4; stroke: #ff0000; stroke-linejoin: miter"/>
   </g>
   <g id="patch_118">
    <path d="M 623.3725 405.079841 
L 644.2975 405.079841 
L 644.2975 400.733159 
L 623.3725 400.733159 
z
" clip-path="url(#pa874a52809)" style="fill: #f2f2f2; stroke: #f2f2f2; stroke-linejoin: miter"/>
   </g>
   <g id="patch_119">
    <path d="M 665.2225 405.079841 
L 686.1475 405.079841 
L 686.1475 400.733159 
L 665.2225 400.733159 
z
" clip-path="url(#pa874a52809)" style="fill: #f2f2f2; stroke: #f2f2f2; stroke-linejoin: miter"/>
   </g>
   <g id="patch_120">
    <path d="M 707.0725 405.079841 
L 727.9975 405.079841 
L 727.9975 400.733159 
L 707.0725 400.733159 
z
" clip-path="url(#pa874a52809)" style="fill: #ff0000; opacity: 0.4; stroke: #ff0000; stroke-linejoin: miter"/>
   </g>
   <g id="matplotlib.axis_7"/>
   <g id="matplotlib.axis_8">
    <g id="ytick_33">
     <g id="line2d_35">
      <g>
       <use xlink:href="#md4db944bc0" x="68.86" y="446.373318" style="stroke: #000000; stroke-width: 0.8"/>
      </g>
     </g>
     <g id="text_14">
      <!-- x_2 -->
      <g transform="translate(43.86 450.471131) scale(0.12 -0.12)">
       <use xlink:href="#STIXGeneral-Regular-78"/>
       <use xlink:href="#STIXGeneral-Regular-5f" x="49.999985"/>
       <use xlink:href="#STIXGeneral-Regular-32" x="99.999969"/>
      </g>
     </g>
    </g>
    <g id="ytick_34">
     <g id="line2d_36">
      <g>
       <use xlink:href="#md4db944bc0" x="68.86" y="424.639909" style="stroke: #000000; stroke-width: 0.8"/>
      </g>
     </g>
     <g id="text_15">
      <!-- x_3 -->
      <g transform="translate(43.86 428.737722) scale(0.12 -0.12)">
       <use xlink:href="#STIXGeneral-Regular-78"/>
       <use xlink:href="#STIXGeneral-Regular-5f" x="49.999985"/>
       <use xlink:href="#STIXGeneral-Regular-33" x="99.999969"/>
      </g>
     </g>
    </g>
    <g id="ytick_35">
     <g id="line2d_37">
      <g>
       <use xlink:href="#md4db944bc0" x="68.86" y="402.9065" style="stroke: #000000; stroke-width: 0.8"/>
      </g>
     </g>
     <g id="text_16">
      <!-- x_4 -->
      <g transform="translate(43.86 407.004313) scale(0.12 -0.12)">
       <use xlink:href="#STIXGeneral-Regular-78"/>
       <use xlink:href="#STIXGeneral-Regular-5f" x="49.999985"/>
       <use xlink:href="#STIXGeneral-Regular-34" x="99.999969"/>
      </g>
     </g>
    </g>
   </g>
   <g id="patch_121">
    <path d="M 68.86 450.72 
L 68.86 398.559818 
" style="fill: none; stroke: #000000; stroke-width: 0.8; stroke-linejoin: miter; stroke-linecap: square"/>
   </g>
   <g id="text_17">
    <!-- controls -->
    <g transform="translate(748.870844 406.918737) rotate(-270) scale(0.11 -0.11)">
     <defs>
      <path id="STIXGeneral-Regular-72" d="M 1024 2931 
L 1024 2342 
Q 1267 2688 1430 2816 
Q 1594 2944 1792 2944 
Q 1958 2944 2051 2854 
Q 2144 2765 2144 2605 
Q 2144 2470 2077 2393 
Q 2010 2317 1894 2317 
Q 1773 2317 1638 2445 
Q 1536 2541 1472 2541 
Q 1338 2541 1181 2355 
Q 1024 2170 1024 2016 
L 1024 576 
Q 1024 301 1133 205 
Q 1242 109 1568 96 
L 1568 0 
L 32 0 
L 32 96 
Q 339 154 412 224 
Q 486 294 486 538 
L 486 2138 
Q 486 2349 438 2435 
Q 390 2522 269 2522 
Q 166 2522 45 2496 
L 45 2598 
Q 448 2726 992 2944 
L 1024 2931 
z
" transform="scale(0.015625)"/>
      <path id="STIXGeneral-Regular-6c" d="M 1645 0 
L 134 0 
L 134 96 
Q 435 122 531 221 
Q 627 320 627 589 
L 627 3590 
Q 627 3821 569 3910 
Q 512 4000 358 4000 
Q 224 4000 122 3987 
L 122 4090 
Q 730 4237 1133 4371 
L 1165 4346 
L 1165 557 
Q 1165 288 1254 201 
Q 1344 115 1645 96 
L 1645 0 
z
" transform="scale(0.015625)"/>
      <path id="STIXGeneral-Regular-73" d="M 998 1926 
L 1664 1523 
Q 1984 1331 2105 1164 
Q 2227 998 2227 736 
Q 2227 416 1961 176 
Q 1696 -64 1331 -64 
Q 1030 -64 864 -6 
Q 691 51 570 51 
Q 461 51 416 -26 
L 333 -26 
L 333 979 
L 435 979 
Q 538 512 730 294 
Q 922 77 1248 77 
Q 1485 77 1632 211 
Q 1779 346 1779 550 
Q 1779 845 1440 1030 
L 1094 1222 
Q 326 1651 326 2150 
Q 326 2522 566 2730 
Q 806 2938 1210 2938 
Q 1491 2938 1638 2867 
Q 1754 2816 1818 2816 
Q 1862 2816 1920 2880 
L 1990 2880 
L 2022 2010 
L 1926 2010 
Q 1818 2445 1654 2621 
Q 1491 2797 1203 2797 
Q 986 2797 854 2688 
Q 723 2579 723 2362 
Q 723 2253 796 2128 
Q 870 2003 998 1926 
z
" transform="scale(0.015625)"/>
     </defs>
     <use xlink:href="#STIXGeneral-Regular-63"/>
     <use xlink:href="#STIXGeneral-Regular-6f" x="44.399994"/>
     <use xlink:href="#STIXGeneral-Regular-6e" x="94.399979"/>
     <use xlink:href="#STIXGeneral-Regular-74" x="144.399963"/>
     <use xlink:href="#STIXGeneral-Regular-72" x="172.199951"/>
     <use xlink:href="#STIXGeneral-Regular-6f" x="205.499939"/>
     <use xlink:href="#STIXGeneral-Regular-6c" x="255.499924"/>
     <use xlink:href="#STIXGeneral-Regular-73" x="283.299911"/>
    </g>
   </g>
  </g>
 </g>
 <defs>
  <clipPath id="p77b51a3d57">
   <rect x="68.86" y="7.2" width="669.6" height="250.837452"/>
  </clipPath>
  <clipPath id="p4a17188390">
   <rect x="68.86" y="277.32093" width="669.6" height="41.335966"/>
  </clipPath>
  <clipPath id="p5640add422">
   <rect x="68.86" y="337.940374" width="669.6" height="41.335966"/>
  </clipPath>
  <clipPath id="pa874a52809">
   <rect x="68.86" y="398.559818" width="669.6" height="52.160182"/>
  </clipPath>
 </defs>
</svg>
